<svg width="132" height="131" viewBox="0 0 132 131" fill="none" xmlns="http://www.w3.org/2000/svg">
<path d="M91.4408 39.6636H40.0214V91.122H91.4408V39.6636Z" fill="#59E0D8"/>
<path d="M91.438 95.0035H40.0194C37.8765 95.0035 36.1385 93.2645 36.1385 91.1198V39.6621C36.1385 37.5176 37.8762 35.7783 40.0194 35.7783H91.438C93.5809 35.7783 95.3189 37.5173 95.3189 39.6621V91.1198C95.3189 93.2648 93.5814 95.0035 91.438 95.0035ZM43.9002 87.236H87.5575V43.5459H43.9002V87.236Z" fill="#46FFF4"/>
<path d="M108.418 104.228H26.9223V26.5543H45.5498C46.2079 26.5543 46.8269 26.3889 47.3697 26.1C49.0676 25.6856 50.3291 24.1575 50.3291 22.331V4.27488C50.3291 2.13039 48.5914 0.391113 46.4483 0.391113C44.3054 0.391113 42.5674 2.13013 42.5674 4.27488V18.787H23.0417C20.8989 18.787 19.1609 20.5261 19.1609 22.6708V41.3124H4.66C2.51687 41.3122 0.779175 43.0515 0.779175 45.196C0.779175 47.3405 2.51687 49.0797 4.66 49.0797H19.1612V61.5075H12.4262C10.2834 61.5075 8.54542 63.2465 8.54542 65.3912C8.54542 67.536 10.2831 69.275 12.4262 69.275H19.1609V81.7028H4.66C2.51687 81.7023 0.779175 83.4415 0.779175 85.586C0.779175 87.7305 2.51687 89.4698 4.66 89.4698H19.1612V108.111C19.1612 110.256 20.8989 111.995 23.042 111.995H41.6695V126.507C41.6695 128.652 43.4072 130.391 45.5503 130.391C47.6932 130.391 49.4311 128.652 49.4311 126.507V111.995H61.8494V118.735C61.8494 120.879 63.5871 122.619 65.7303 122.619C67.8731 122.619 69.6111 120.88 69.6111 118.735V111.995H82.0294V126.507C82.0294 128.652 83.7671 130.391 85.9102 130.391C88.0534 130.391 89.7911 128.652 89.7911 126.507V111.995H108.419C110.561 111.995 112.299 110.256 112.299 108.111C112.299 105.967 110.561 104.228 108.418 104.228Z" fill="#46FFF4"/>
<path d="M112.197 81.7022V82.7022H113.197H127.699C127.905 82.7022 128.396 82.8944 128.89 83.4829C129.352 84.0336 129.681 84.7831 129.681 85.5863C129.681 87.1794 128.39 88.47 126.8 88.47H108.758C107.167 88.47 105.877 87.1792 105.877 85.5863C105.877 85.0631 106.018 84.5869 106.279 84.1775L106.436 83.9317V83.6402V26.5546V25.5546H105.436H66.6288C65.0393 25.5546 63.7489 24.2648 63.7479 22.6726C63.748 22.6713 63.7482 22.665 63.7492 22.6499L63.7505 22.6311L63.7521 22.6067C63.7532 22.589 63.7545 22.5664 63.7555 22.5413L63.7572 22.5007L63.7555 22.4601C63.7545 22.4351 63.7532 22.4125 63.752 22.3949L63.7504 22.3706L63.7492 22.3519C63.7482 22.3366 63.748 22.3303 63.7479 22.3291V12.0473C63.7479 10.4541 65.0386 9.16351 66.6288 9.16351C68.2188 9.16351 69.5096 10.4543 69.5096 12.0473V18.787V19.787H70.5096H82.9279H83.9279V18.787V4.27488C83.9279 2.68174 85.2183 1.39111 86.8082 1.39111C88.3983 1.39111 89.689 2.68191 89.689 4.27488V18.787V19.787H90.689H109.317C110.907 19.787 112.197 21.0778 112.197 22.6708V41.3122V42.3122H113.197H127.699C129.289 42.3122 130.579 43.603 130.579 45.196C130.579 46.7891 129.288 48.0797 127.699 48.0797H113.197H112.197V49.0797V61.507V62.507H113.197H119.932C121.522 62.507 122.813 63.7976 122.813 65.3907C122.813 66.9839 121.522 68.2745 119.932 68.2745H113.197H112.197V69.2745V81.7022Z" fill="white" fill-opacity="0.7" stroke="white" stroke-width="2"/>
<rect x="57.5604" y="33.666" width="42.2411" height="42.2747" rx="1" fill="white" fill-opacity="0.6" stroke="white" stroke-width="2"/>
</svg>
