<svg width="136" height="131" viewBox="0 0 136 131" fill="none" xmlns="http://www.w3.org/2000/svg">
<path d="M129.819 20.0373L129.824 20.0365C132.401 19.6455 134.619 21.5988 134.554 23.9817C133.195 70.2264 116.399 96.5596 100.046 111.337C91.8568 118.738 83.7547 123.262 77.707 125.934C74.6834 127.27 72.1751 128.142 70.4288 128.679C69.5557 128.948 68.8734 129.132 68.4128 129.249C68.2059 129.301 68.0438 129.34 67.9292 129.367C67.8146 129.34 67.6525 129.301 67.4456 129.249C66.985 129.132 66.3027 128.947 65.4296 128.678C63.6833 128.14 61.1749 127.267 58.1513 125.93C52.1035 123.256 44.0013 118.73 35.812 111.327C19.459 96.5463 2.66291 70.2127 1.304 23.9806C1.24 21.5982 3.45777 19.6456 6.03355 20.0365L6.03883 20.0373C17.904 21.7733 45.1096 23.0238 64.9196 2.66028L64.9236 2.65603C66.5451 0.969473 69.3405 0.969473 70.962 2.65604L70.9656 2.65976C90.7482 23.024 117.954 21.7732 129.819 20.0373Z" fill="white" fill-opacity="0.6" stroke="white" stroke-width="2"/>
<ellipse cx="66.6218" cy="118.096" rx="4.26841" ry="4.0838" fill="#522C97"/>
<ellipse cx="93.6023" cy="101.262" rx="4.26841" ry="4.0838" fill="#522C97"/>
<ellipse rx="4.26841" ry="4.0838" transform="matrix(-1 0 0 1 41.2623 101.262)" fill="#522C97"/>
<ellipse cx="109.745" cy="76.3577" rx="4.26841" ry="4.0838" fill="#522C97"/>
<ellipse rx="4.26841" ry="4.0838" transform="matrix(-1 0 0 1 25.1197 76.3577)" fill="#522C97"/>
<ellipse cx="118.282" cy="42.6906" rx="4.26841" ry="4.0838" fill="#522C97"/>
<ellipse rx="4.26841" ry="4.0838" transform="matrix(-1 0 0 1 16.5826 42.6906)" fill="#522C97"/>
<path d="M82.8822 61.4633C82.5968 60.5563 82.2504 59.7669 81.8437 59.0966C81.4372 58.4256 80.8549 57.7711 80.0958 57.1309C79.3377 56.491 78.6556 55.9756 78.0509 55.5839C77.4465 55.1918 76.6162 54.7534 75.5606 54.2682C74.5059 53.7832 73.6702 53.4222 73.055 53.1848C72.4391 52.9477 71.548 52.6227 70.3826 52.2101C69.3492 51.8389 68.5798 51.5551 68.0736 51.3592C67.568 51.1631 66.903 50.8848 66.0784 50.5235C65.2542 50.1627 64.6385 49.8427 64.2316 49.5643C63.8249 49.286 63.3907 48.9456 62.9289 48.5433C62.467 48.1411 62.1427 47.7129 61.9557 47.259C61.7692 46.805 61.6756 46.3098 61.6756 45.7733C61.6756 44.3706 62.335 43.2251 63.6542 42.3382C64.9736 41.4513 66.6779 41.0076 68.7669 41.0076C69.6899 41.0076 70.6309 41.1261 71.5867 41.3636C72.5426 41.6011 73.3617 41.8686 74.0434 42.168C74.7257 42.4674 75.3686 42.7976 75.9734 43.1585C76.5782 43.5196 77.0068 43.7928 77.2599 43.9785C77.5128 44.1643 77.673 44.288 77.7383 44.35C78.0245 44.5563 78.3206 44.6284 78.6285 44.5667C78.9582 44.5461 79.2113 44.3808 79.3876 44.0716L82.0596 39.5531C82.3233 39.1406 82.2688 38.7485 81.8947 38.3769C81.7626 38.2532 81.5983 38.1089 81.399 37.9437C81.2017 37.7785 80.7728 37.4794 80.1126 37.0459C79.4531 36.6127 78.755 36.2259 78.0189 35.8854C77.282 35.5452 76.3252 35.1994 75.1487 34.8489C73.973 34.4978 72.7578 34.2607 71.5042 34.137V28.6898C71.5042 28.4011 71.4054 28.1637 71.2081 27.9779C71.0103 27.7926 70.7573 27.6995 70.449 27.6995H65.9961C65.7103 27.6995 65.463 27.7973 65.2541 27.9934C65.0452 28.1895 64.9408 28.4215 64.9408 28.6898V34.2606C61.4885 34.8793 58.6851 36.2617 56.5302 38.4075C54.3757 40.5534 53.298 43.0495 53.298 45.8971C53.298 46.7429 53.3918 47.5476 53.5787 48.3106C53.7654 49.0743 53.9964 49.7603 54.2713 50.3689C54.5461 50.9779 54.9365 51.576 55.4422 52.1642C55.9478 52.7522 56.4262 53.2577 56.8768 53.6805C57.3277 54.1032 57.9159 54.5417 58.6413 54.9955C59.3671 55.4497 59.9883 55.8162 60.5051 56.0946C61.0221 56.3721 61.7091 56.6929 62.5664 57.0531C63.4239 57.4144 64.1003 57.6875 64.595 57.8736C65.0898 58.0591 65.7658 58.3173 66.6237 58.6467C67.8109 59.08 68.6906 59.4154 69.2622 59.6528C69.8343 59.8902 70.5596 60.2203 71.4397 60.6432C72.3189 61.0658 72.9618 61.4528 73.3689 61.8037C73.7757 62.1545 74.1438 62.5878 74.4739 63.1035C74.8039 63.6191 74.9692 64.1659 74.9692 64.7439C74.9692 66.3739 74.2931 67.6322 72.9404 68.5187C71.5884 69.4062 70.0212 69.8497 68.2404 69.8497C67.4276 69.8497 66.6134 69.7677 65.8002 69.6027C62.9417 69.0656 60.2703 67.776 57.7856 65.7336L57.7197 65.6717C57.5217 65.4453 57.2577 65.3523 56.9282 65.3939C56.5763 65.435 56.3234 65.5589 56.1696 65.7657L52.7723 69.9434C52.4424 70.356 52.4647 70.7788 52.8384 71.2121C52.9485 71.336 53.1408 71.5221 53.4156 71.7693C53.691 72.0174 54.2023 72.4036 54.9495 72.9308C55.6969 73.4572 56.5105 73.9517 57.3902 74.4165C58.2698 74.8806 59.3855 75.3394 60.738 75.7935C62.0905 76.2468 63.4919 76.5665 64.9432 76.7521V82.1681C64.9432 82.4367 65.0478 82.6686 65.2565 82.8648C65.4655 83.0611 65.7127 83.1586 65.9985 83.1586H70.4514C70.7597 83.1586 71.0127 83.0659 71.2104 82.8805C71.408 82.695 71.5065 82.4576 71.5065 82.1682V76.7522C75.0032 76.2158 77.8451 74.8076 80.0326 72.5276C82.2204 70.2477 83.3146 67.5293 83.3146 64.3728C83.3135 63.3414 83.1708 62.3717 82.8822 61.4633Z" fill="#FF7777"/>
</svg>
