<svg width="89" height="101" viewBox="0 0 89 101" fill="none" xmlns="http://www.w3.org/2000/svg">
<path d="M73.5191 21.4889C72.1138 9.53288 61.9979 0.25885 49.7265 0.25885C37.455 0.25885 27.3391 9.53288 25.934 21.4889C17.4155 21.4889 10.5092 28.4306 10.5092 36.9938C10.5092 45.5569 17.4146 52.4986 25.9331 52.4986H73.52C82.0385 52.4986 88.9439 45.5569 88.9439 36.9938C88.9439 28.4306 82.0376 21.4889 73.5191 21.4889Z" fill="url(#paint0_linear_656_523)"/>
<path d="M66.0577 68.4749H20.1577C17.86 68.4749 15.9974 66.6123 15.9974 64.3147C15.9974 62.0171 17.86 60.1545 20.1577 60.1545H66.0577C68.3553 60.1545 70.2179 62.0171 70.2179 64.3147C70.2179 66.6123 68.3553 68.4749 66.0577 68.4749Z" fill="url(#paint1_linear_656_523)"/>
<path d="M66.0577 79.3661H20.1577C17.86 79.3661 15.9974 77.5035 15.9974 75.2059C15.9974 72.9083 17.86 71.0457 20.1577 71.0457H66.0577C68.3553 71.0457 70.2179 72.9083 70.2179 75.2059C70.2179 77.5035 68.3553 79.3661 66.0577 79.3661Z" fill="url(#paint2_linear_656_523)"/>
<path d="M66.0577 89.2207H20.1577C17.86 89.2207 15.9974 87.3581 15.9974 85.0605C15.9974 82.7629 17.86 80.9003 20.1577 80.9003H66.0577C68.3553 80.9003 70.2179 82.7629 70.2179 85.0605C70.2179 87.3581 68.3553 89.2207 66.0577 89.2207Z" fill="url(#paint3_linear_656_523)"/>
<path fill-rule="evenodd" clip-rule="evenodd" d="M40.2577 93.0172C40.2579 93.0204 40.258 93.0237 40.2583 93.0269C38.5446 93.2521 37.1875 94.6173 36.965 96.3404H17.3236C17.0475 96.3404 16.8236 96.5643 16.8236 96.8404C16.8236 97.1166 17.0475 97.3404 17.3236 97.3404H36.965C37.2088 99.2284 38.8146 100.687 40.7591 100.687C42.7036 100.687 44.3093 99.2284 44.5531 97.3404H63.7149C63.9911 97.3404 64.2149 97.1166 64.2149 96.8404C64.2149 96.5643 63.9911 96.3404 63.7149 96.3404H44.5531C44.3304 94.616 42.9716 93.2502 41.2562 93.0264C41.2569 93.0158 41.2572 93.0051 41.2572 92.9943L41.2572 54.5327C41.2572 54.2565 41.0333 54.0327 40.7572 54.0327C40.4811 54.0327 40.2572 54.2565 40.2572 54.5327L40.2572 92.9943C40.2572 93.0019 40.2574 93.0096 40.2577 93.0172ZM40.7591 99.6866C42.3149 99.6866 43.5852 98.4172 43.5852 96.8404C43.5852 95.2636 42.3149 93.9943 40.7591 93.9943C39.2032 93.9943 37.933 95.2636 37.933 96.8404C37.933 98.4172 39.2032 99.6866 40.7591 99.6866Z" fill="white"/>
<path d="M63.0967 23.7397L63.1486 24.1813H63.5933C71.8332 24.1813 78.5182 30.8967 78.5182 39.1862C78.5182 47.4757 71.8341 54.1911 63.5942 54.1911H16.0073C7.76745 54.1911 1.08337 47.4757 1.08337 39.1862C1.08337 30.8967 7.76831 24.1813 16.0082 24.1813H16.4529L16.5048 23.7397C17.8809 12.0305 27.7878 2.95129 39.8007 2.95129C51.8135 2.95129 61.7204 12.0305 63.0967 23.7397Z" fill="white" fill-opacity="0.6" stroke="white"/>
<path d="M68.2829 65.1097H40.7613C38.6373 65.1097 36.9154 63.3878 36.9154 61.2638C36.9154 59.1397 38.6373 57.4178 40.7613 57.4178H68.2829C70.407 57.4178 72.1288 59.1397 72.1288 61.2638C72.1288 63.3878 70.407 65.1097 68.2829 65.1097Z" fill="#FFFAFA" fill-opacity="0.6" stroke="white" stroke-width="0.5" stroke-linecap="round"/>
<path d="M68.2829 76.6478H40.7613C38.6373 76.6478 36.9154 74.9259 36.9154 72.8019C36.9154 70.6778 38.6373 68.9559 40.7613 68.9559H68.2829C70.407 68.9559 72.1288 70.6778 72.1288 72.8019C72.1288 74.9259 70.407 76.6478 68.2829 76.6478Z" fill="#FFFAFA" fill-opacity="0.6" stroke="white" stroke-width="0.5" stroke-linecap="round"/>
<path d="M68.2829 87.0667H40.7613C38.6373 87.0667 36.9154 85.3448 36.9154 83.2208C36.9154 81.0967 38.6373 79.3748 40.7613 79.3748H68.2829C70.407 79.3748 72.1288 81.0967 72.1288 83.2208C72.1288 85.3448 70.407 87.0667 68.2829 87.0667Z" fill="#FFFAFA" fill-opacity="0.6" stroke="white" stroke-width="0.5" stroke-linecap="round"/>
<path d="M20.6693 61.1909C22.3262 61.1909 23.6693 62.534 23.6693 64.1909C23.6693 65.8477 22.3262 67.1909 20.6693 67.1909C19.0125 67.1909 17.6693 65.8477 17.6693 64.1909C17.6693 62.534 19.0125 61.1909 20.6693 61.1909Z" fill="white" stroke="white" stroke-width="0.5" stroke-linecap="round"/>
<path d="M20.6693 72.2059C22.3262 72.2059 23.6693 73.549 23.6693 75.2059C23.6693 76.8627 22.3262 78.2059 20.6693 78.2059C19.0125 78.2059 17.6693 76.8627 17.6693 75.2059C17.6693 73.549 19.0125 72.2059 20.6693 72.2059Z" fill="white" stroke="white" stroke-width="0.5" stroke-linecap="round"/>
<path d="M20.6693 82.0605C22.3262 82.0605 23.6693 83.4037 23.6693 85.0605C23.6693 86.7174 22.3262 88.0605 20.6693 88.0605C19.0125 88.0605 17.6693 86.7174 17.6693 85.0605C17.6693 83.4037 19.0125 82.0605 20.6693 82.0605Z" fill="white" stroke="white" stroke-width="0.5" stroke-linecap="round"/>
<defs>
<linearGradient id="paint0_linear_656_523" x1="14.284" y1="0.606688" x2="97.52" y2="93.2955" gradientUnits="userSpaceOnUse">
<stop stop-color="#6A26FF"/>
<stop offset="1" stop-color="#D272FF"/>
</linearGradient>
<linearGradient id="paint1_linear_656_523" x1="18.6069" y1="60.2099" x2="23.8982" y2="85.7833" gradientUnits="userSpaceOnUse">
<stop stop-color="#6A26FF"/>
<stop offset="1" stop-color="#D272FF"/>
</linearGradient>
<linearGradient id="paint2_linear_656_523" x1="18.6069" y1="71.1011" x2="23.8982" y2="96.6745" gradientUnits="userSpaceOnUse">
<stop stop-color="#6A26FF"/>
<stop offset="1" stop-color="#D272FF"/>
</linearGradient>
<linearGradient id="paint3_linear_656_523" x1="18.6069" y1="80.9557" x2="23.8982" y2="106.529" gradientUnits="userSpaceOnUse">
<stop stop-color="#6A26FF"/>
<stop offset="1" stop-color="#D272FF"/>
</linearGradient>
</defs>
</svg>
