<svg width="112" height="131" viewBox="0 0 112 131" fill="none" xmlns="http://www.w3.org/2000/svg">
<path d="M68.8029 44.442C81.0342 44.442 90.9496 34.5266 90.9496 22.2953C90.9496 10.064 81.0342 0.14856 68.8029 0.14856C56.5716 0.14856 46.6561 10.064 46.6561 22.2953C46.6561 34.5266 56.5716 44.442 68.8029 44.442Z" fill="#FF42B3"/>
<path d="M68.803 55.5154C46.6337 55.5154 28.662 73.4871 28.662 95.6563H108.944C108.944 73.4871 90.9722 55.5154 68.803 55.5154Z" fill="#FF42B3"/>
<path d="M62.5297 22.2952C62.5297 34.2503 52.8381 43.9419 40.8829 43.9419C28.9278 43.9419 19.2362 34.2503 19.2362 22.2952C19.2362 10.34 28.9278 0.648438 40.8829 0.648438C52.8381 0.648438 62.5297 10.34 62.5297 22.2952Z" fill="white" fill-opacity="0.6" stroke="white"/>
<path d="M80.5209 95.1563H1.24515C1.51292 73.4937 19.1568 56.0154 40.883 56.0154C62.6092 56.0154 80.2531 73.4937 80.5209 95.1563Z" fill="white" fill-opacity="0.6" stroke="white"/>
<rect x="1.74207" y="107.683" width="108.31" height="21.951" rx="10.9755" fill="white" fill-opacity="0.4" stroke="white" stroke-width="2"/>
<path d="M95.4493 112.856C98.6542 112.856 101.252 115.454 101.252 118.659C101.252 121.864 98.6542 124.462 95.4493 124.462C92.2443 124.462 89.6462 121.864 89.6462 118.659C89.6462 115.454 92.2443 112.856 95.4493 112.856Z" fill="white" stroke="white" stroke-width="0.5" stroke-linecap="round"/>
</svg>
