<svg width="142" height="109" viewBox="0 0 142 109" fill="none" xmlns="http://www.w3.org/2000/svg">
<path d="M41.7913 70.8131V3.68365C41.7913 2.0268 43.1344 0.683655 44.7913 0.683655H138.791C140.448 0.683655 141.791 2.0268 141.791 3.68366V70.8131C141.791 72.47 140.448 73.8131 138.791 73.8131H44.7913C43.1344 73.8131 41.7913 72.47 41.7913 70.8131Z" fill="url(#paint0_linear_656_554)"/>
<path d="M46.1782 107.501H108.415C109.2 107.501 109.836 106.864 109.836 106.079C109.836 105.285 109.187 104.645 108.393 104.657L88.4138 104.96C88.2519 104.963 88.1194 104.832 88.1194 104.67C88.1194 104.652 88.1205 104.634 88.1268 104.617C88.174 104.493 88.4134 104.251 89.0837 104.107C89.8037 103.953 90.0241 103.243 90.0443 102.907V95.4289C90.0443 94.9473 90.4347 94.5569 90.9163 94.5569H121.224C124.538 94.5569 127.224 91.8706 127.224 88.5569V24.8295C127.224 21.5158 124.538 18.8295 121.224 18.8295H33.0217C29.708 18.8295 27.0217 21.5158 27.0217 24.8295V88.5569C27.0217 91.8706 29.708 94.5569 33.0217 94.5569H62.0848C62.2547 94.5569 61.8469 94.6202 61.8469 101.955C61.8469 103.66 62.7091 104.03 63.3955 104.007C63.6402 103.999 63.8806 104.174 63.8806 104.419C63.8806 104.62 63.718 104.782 63.5175 104.782H46.1782C45.4274 104.782 44.8188 105.391 44.8188 106.141C44.8188 106.892 45.4274 107.501 46.1782 107.501Z" fill="white" fill-opacity="0.6" stroke="white" stroke-width="2"/>
<path d="M67.3127 10.1754H127.24" stroke="white" stroke-width="2" stroke-linecap="round"/>
<path d="M58.8401 10.1754H59.8401" stroke="white" stroke-width="2" stroke-linecap="round"/>
<path d="M33.388 21.5183L31.3752 20.3585C31.4295 19.856 31.4581 19.346 31.4581 18.8295C31.4581 18.313 31.4295 17.8029 31.3752 17.3004L33.388 16.1406C33.818 15.8928 34.1257 15.4925 34.2543 15.0135C34.3828 14.5346 34.3168 14.0343 34.0684 13.605L30.1964 6.91111C29.8651 6.33827 29.2472 5.98256 28.5839 5.98256C28.2592 5.98256 27.9385 6.06876 27.6559 6.23152L25.6374 7.39471C24.8169 6.79415 23.9301 6.27944 22.9897 5.86372V3.54287C22.9897 2.51931 22.1553 1.68658 21.1299 1.68658H13.3854C12.3599 1.68658 11.5256 2.51931 11.5256 3.54287V5.86372C10.5851 6.27944 9.69818 6.79427 8.87785 7.39483L6.85937 6.23176C6.57687 6.06888 6.25601 5.98268 5.93138 5.98268C5.26801 5.98268 4.65017 6.33839 4.31883 6.91123L0.446725 13.605C0.198342 14.0342 0.132334 14.5346 0.26082 15.0135C0.389541 15.4925 0.697107 15.8927 1.12716 16.1406L3.13987 17.3004C3.08563 17.8029 3.05704 18.3129 3.05704 18.8295C3.05704 19.3461 3.08563 19.8561 3.13987 20.3585L1.12716 21.5183C0.697107 21.7661 0.389541 22.1663 0.26082 22.6454C0.132334 23.1243 0.198342 23.6247 0.446725 24.0539L4.31872 30.7478C4.65005 31.3206 5.26789 31.6763 5.93126 31.6763C6.25589 31.6763 6.57663 31.5903 6.85926 31.4274L8.87773 30.2642C9.69818 30.8648 10.585 31.3795 11.5255 31.7952V34.1162C11.5255 34.612 11.7189 35.0779 12.0703 35.4286C12.4216 35.7791 12.8887 35.9723 13.3853 35.9723H21.1298C22.1552 35.9723 22.9897 35.1397 22.9897 34.1162V31.7952C23.93 31.3794 24.8169 30.8648 25.6373 30.2642L27.6559 31.4273C27.9384 31.5901 28.2592 31.6762 28.5839 31.6762C29.2472 31.6762 29.8651 31.3205 30.1964 30.7477L34.0684 24.0538C34.3168 23.6246 34.3828 23.1242 34.2543 22.6453C34.1257 22.1663 33.8181 21.7661 33.388 21.5183ZM17.2577 25.3693C13.6389 25.3693 10.7052 22.4412 10.7052 18.8295C10.7052 15.2178 13.639 12.2897 17.2577 12.2897C20.8763 12.2897 23.8101 15.2178 23.8101 18.8295C23.8101 22.4412 20.8763 25.3693 17.2577 25.3693Z" fill="url(#paint1_linear_656_554)"/>
<defs>
<linearGradient id="paint0_linear_656_554" x1="46.6039" y1="1.17059" x2="163.788" y2="120.016" gradientUnits="userSpaceOnUse">
<stop stop-color="#6A26FF"/>
<stop offset="1" stop-color="#D272FF"/>
</linearGradient>
<linearGradient id="paint1_linear_656_554" x1="1.83888" y1="1.91488" x2="54.345" y2="40.6706" gradientUnits="userSpaceOnUse">
<stop stop-color="#6A26FF"/>
<stop offset="1" stop-color="#D272FF"/>
</linearGradient>
</defs>
</svg>
