<svg width="125" height="101" viewBox="0 0 125 101" fill="none" xmlns="http://www.w3.org/2000/svg">
<path d="M120.727 39.9378C119.642 38.4992 118.616 37.1402 118.198 35.8533C117.75 34.4733 117.774 32.7112 117.8 30.8458C117.84 27.9359 117.881 24.927 116.145 22.5414C114.391 20.1318 111.501 19.2418 108.707 18.381C106.937 17.8363 105.267 17.3217 104.117 16.4851C102.99 15.6654 101.999 14.2487 100.949 12.749C99.339 10.4494 97.5144 7.84283 94.6404 6.90969C93.9165 6.67458 93.1298 6.55542 92.3021 6.55542C90.2931 6.55542 88.2797 7.24027 86.3328 7.90268C84.5388 8.51308 82.844 9.08946 81.3461 9.08946C79.848 9.08946 78.1536 8.51308 76.3594 7.90268C74.4124 7.24027 72.3994 6.55542 70.3901 6.55542C69.5626 6.55542 68.7758 6.67458 68.0518 6.90969C65.1777 7.84283 63.3531 10.4494 61.7433 12.749C60.6933 14.2487 59.7018 15.6654 58.5756 16.485C57.4257 17.3217 55.7548 17.8363 53.9857 18.3812C51.1909 19.2418 48.3008 20.1317 46.5471 22.5416C44.811 24.9269 44.8524 27.9359 44.8923 30.8458C44.9179 32.7115 44.942 34.4735 44.494 35.8535C44.0761 37.1405 43.0506 38.4994 41.965 39.9382C40.2627 42.1937 38.3334 44.7503 38.3334 47.8274C38.3334 50.9045 40.2627 53.4612 41.9651 55.717C43.0509 57.1556 44.0763 58.5145 44.4942 59.8017C44.9423 61.1816 44.9181 62.9438 44.8924 64.8092C44.8525 67.7191 44.8112 70.728 46.5473 73.1135C48.301 75.5232 51.1909 76.413 53.9859 77.2737C55.7549 77.8185 57.4257 78.3329 58.5757 79.1699C59.702 79.9896 60.6937 81.4061 61.7437 82.906C63.3535 85.2055 65.1781 87.812 68.0522 88.7451C68.776 88.9803 69.5627 89.0994 70.3904 89.0994C72.3996 89.0994 74.4126 88.4146 76.3598 87.7523C78.1539 87.1419 79.8485 86.5656 81.3464 86.5656C82.8444 86.5656 84.5392 87.1419 86.3331 87.7523C88.2801 88.4148 90.2931 89.0994 92.3025 89.0994C93.1302 89.0994 93.9171 88.9803 94.6409 88.7451C97.515 87.812 99.3394 85.2055 100.949 82.9058C101.999 81.4061 102.991 79.9894 104.117 79.1699C105.267 78.3331 106.938 77.8185 108.707 77.2737C111.502 76.413 114.392 75.5232 116.145 73.1135C117.881 70.728 117.84 67.7189 117.8 64.809C117.775 62.9433 117.751 61.1814 118.199 59.8015C118.617 58.5145 119.642 57.1556 120.728 55.7168C122.43 53.4612 124.359 50.9045 124.359 47.8274C124.359 44.7503 122.43 42.1935 120.727 39.9378Z" fill="url(#paint0_linear_656_540)"/>
<path d="M51.434 1.68658C54.2672 1.68658 56.9154 3.21576 59.6985 5.21948C60.3295 5.67383 60.9565 6.14386 61.5903 6.61906L61.761 6.747C62.4498 7.26321 63.1467 7.78356 63.8471 8.27923C65.2437 9.26758 66.694 10.187 68.2056 10.8178C69.7223 11.4507 71.4208 11.8264 73.1339 12.1103C74.0766 12.2665 75.0928 12.4043 76.0944 12.5401C76.8584 12.6437 77.6139 12.7461 78.3217 12.8547C81.7761 13.3846 84.7324 14.1474 86.6169 16.1086C88.5275 18.097 89.2951 20.977 89.862 24.3001C89.9748 24.9612 90.0795 25.6423 90.1859 26.3336C90.5959 28.9999 91.0292 31.8166 92.0356 34.2188C93.0484 36.6366 94.8251 38.9125 96.4992 41.057C96.9286 41.607 97.3512 42.1484 97.7524 42.6813C99.7929 45.3912 101.331 47.9245 101.331 50.6866C101.331 53.452 99.7838 56.0442 97.7418 58.7813C97.2792 59.4014 96.8007 60.0174 96.3167 60.6404L96.1871 60.8073C95.6616 61.4839 95.1318 62.1687 94.6271 62.8569C93.621 64.2289 92.6836 65.6555 92.04 67.1438C91.3938 68.6381 91.0107 70.3107 90.7214 71.9952C90.5624 72.921 90.4218 73.9216 90.2834 74.9068C90.1779 75.6575 90.0737 76.3992 89.9635 77.0921C89.4247 80.4816 88.6507 83.3764 86.658 85.2242C84.6285 87.1061 81.6859 87.8721 78.3014 88.4345C77.6045 88.5503 76.8865 88.6574 76.1584 88.766C73.467 89.1673 70.6372 89.5894 68.2215 90.5489C65.7457 91.5323 63.4174 93.2884 61.2219 94.9443C60.6753 95.3566 60.1368 95.7627 59.6064 96.1492C56.8496 98.1575 54.2624 99.6866 51.434 99.6866C48.6008 99.6866 45.9526 98.1574 43.1695 96.1537C42.5384 95.6993 41.9113 95.2291 41.2774 94.7539L41.107 94.6262C40.4182 94.11 39.7213 93.5896 39.0209 93.0939C37.6242 92.1056 36.174 91.1862 34.6624 90.5554C33.1457 89.9224 31.4472 89.5468 29.7341 89.2629C28.7914 89.1066 27.7752 88.9689 26.7737 88.8331C26.0097 88.7295 25.2542 88.627 24.5463 88.5185C21.0919 87.9885 18.1356 87.2257 16.2511 85.2646C14.3394 83.275 13.5617 80.393 12.9898 77.0716C12.8723 76.3888 12.7635 75.6847 12.6531 74.9702C12.2444 72.3256 11.8137 69.5384 10.8349 67.1601C9.83203 64.7237 8.04154 62.4328 6.35573 60.2759C5.93633 59.7393 5.52342 59.211 5.13072 58.6908C3.0838 55.9794 1.5365 53.4471 1.5365 50.6866C1.5365 47.9211 3.08415 45.329 5.12617 42.5918C5.58866 41.9719 6.06714 41.356 6.55098 40.7332C6.59426 40.6775 6.63757 40.6217 6.68093 40.5659C7.20639 39.8893 7.73621 39.2045 8.24091 38.5162C9.247 37.1442 10.1844 35.7176 10.828 34.2293C11.4742 32.735 11.8573 31.0624 12.1466 29.378C12.3056 28.4521 12.4462 27.4515 12.5846 26.4663C12.6901 25.7157 12.7943 24.974 12.9045 24.2811C13.4433 20.8915 14.2173 17.9968 16.21 16.149C18.2395 14.2671 21.1821 13.5011 24.5666 12.9387C25.2635 12.8229 25.9815 12.7158 26.7096 12.6072C29.401 12.2058 32.2308 11.7838 34.6465 10.8243C37.1223 9.84089 39.4506 8.08478 41.6461 6.42884C42.1927 6.01653 42.7311 5.61042 43.2616 5.22401C46.0184 3.21562 48.6056 1.68658 51.434 1.68658Z" fill="white" fill-opacity="0.6" stroke="white" stroke-width="2"/>
<path d="M42.9094 53.5268C42.9094 58.7216 42.0396 62.5668 40.2999 65.0625C38.5741 67.5581 35.9093 68.806 32.3058 68.806C28.8126 68.806 26.1755 67.5174 24.3944 64.9404C22.6272 62.3634 21.7435 58.5588 21.7435 53.5268C21.7435 48.2778 22.6065 44.4122 24.3323 41.9301C26.0582 39.4345 28.716 38.1866 32.3058 38.1866C35.7989 38.1866 38.436 39.4887 40.2171 42.0929C42.012 44.6971 42.9094 48.5084 42.9094 53.5268ZM28.1016 53.5268C28.1016 57.1754 28.4191 59.7931 29.0542 61.38C29.7032 62.9534 30.787 63.74 32.3058 63.74C33.7969 63.74 34.8738 62.9398 35.5366 61.3393C36.1993 59.7388 36.5306 57.1347 36.5306 53.5268C36.5306 49.8783 36.1924 47.2605 35.5158 45.6736C34.8531 44.0731 33.7831 43.2729 32.3058 43.2729C30.8008 43.2729 29.7239 44.0731 29.075 45.6736C28.426 47.2605 28.1016 49.8783 28.1016 53.5268Z" fill="url(#paint1_linear_656_540)"/>
<path d="M50.9657 47.5657C50.9657 49.2883 51.1176 50.5768 51.4213 51.4313C51.7389 52.2722 52.2428 52.6927 52.9332 52.6927C54.2586 52.6927 54.9213 50.9837 54.9213 47.5657C54.9213 44.1749 54.2586 42.4795 52.9332 42.4795C52.2428 42.4795 51.7389 42.8999 51.4213 43.7408C51.1176 44.5682 50.9657 45.8432 50.9657 47.5657ZM60.1403 47.525C60.1403 50.6446 59.5259 52.9911 58.2971 54.5644C57.0683 56.1242 55.2665 56.9041 52.8917 56.9041C50.6136 56.9041 48.8532 56.1039 47.6106 54.5034C46.368 52.8893 45.7467 50.5632 45.7467 47.525C45.7467 41.3266 48.1284 38.2273 52.8917 38.2273C55.2251 38.2273 57.0131 39.0344 58.2557 40.6484C59.5121 42.2489 60.1403 44.5411 60.1403 47.525ZM74.389 38.6546L57.593 68.3991H52.6225L69.4185 38.6546H74.389ZM72.173 59.4472C72.173 61.1698 72.3249 62.4583 72.6286 63.3128C72.9462 64.1537 73.4501 64.5742 74.1405 64.5742C75.4659 64.5742 76.1286 62.8652 76.1286 59.4472C76.1286 56.0564 75.4659 54.361 74.1405 54.361C73.4501 54.361 72.9462 54.7814 72.6286 55.6224C72.3249 56.4497 72.173 57.7247 72.173 59.4472ZM81.3476 59.4065C81.3476 62.5125 80.7332 64.8522 79.5044 66.4256C78.2756 67.9854 76.4738 68.7653 74.099 68.7653C71.8209 68.7653 70.0605 67.965 68.8179 66.3645C67.5753 64.7505 66.954 62.4312 66.954 59.4065C66.954 53.2081 69.3357 50.1088 74.099 50.1088C76.4324 50.1088 78.2204 50.9159 79.463 52.5299C80.7194 54.1304 81.3476 56.4226 81.3476 59.4065Z" fill="url(#paint2_linear_656_540)"/>
<defs>
<linearGradient id="paint0_linear_656_540" x1="42.4735" y1="7.10504" x2="170.487" y2="106.054" gradientUnits="userSpaceOnUse">
<stop stop-color="#6A26FF"/>
<stop offset="1" stop-color="#D272FF"/>
</linearGradient>
<linearGradient id="paint1_linear_656_540" x1="24.6121" y1="38.3905" x2="70.5492" y2="104.712" gradientUnits="userSpaceOnUse">
<stop stop-color="#6A26FF"/>
<stop offset="1" stop-color="#D272FF"/>
</linearGradient>
<linearGradient id="paint2_linear_656_540" x1="24.6121" y1="38.3905" x2="70.5492" y2="104.712" gradientUnits="userSpaceOnUse">
<stop stop-color="#6A26FF"/>
<stop offset="1" stop-color="#D272FF"/>
</linearGradient>
</defs>
</svg>
