<svg width="109" height="99" viewBox="0 0 109 99" fill="none" xmlns="http://www.w3.org/2000/svg">
<path d="M89.2611 69.5301V17.5391C89.2611 15.4947 90.9185 13.8373 92.963 13.8373C95.0075 13.8373 96.6648 15.4947 96.6648 17.5391V69.5301C96.6648 71.5746 95.0075 73.232 92.963 73.232C90.9185 73.232 89.2611 71.5746 89.2611 69.5301Z" fill="url(#paint0_linear_656_544)"/>
<path d="M74.8568 69.5301V40.3833C74.8568 38.3388 76.5142 36.6814 78.5587 36.6814C80.6032 36.6814 82.2605 38.3388 82.2605 40.3833V69.5301C82.2605 71.5746 80.6032 73.232 78.5587 73.232C76.5142 73.232 74.8568 71.5746 74.8568 69.5301Z" fill="url(#paint1_linear_656_544)"/>
<path d="M60.4525 69.5301V38.0201C60.4525 35.9756 62.1099 34.3182 64.1544 34.3182C66.1989 34.3182 67.8562 35.9756 67.8562 38.0201V69.5301C67.8562 71.5746 66.1989 73.232 64.1544 73.232C62.1099 73.232 60.4525 71.5746 60.4525 69.5301Z" fill="url(#paint2_linear_656_544)"/>
<path d="M46.0482 69.5301V27.4645C46.0482 25.42 47.7056 23.7626 49.7501 23.7626C51.7946 23.7626 53.4519 25.42 53.4519 27.4645V69.5301C53.4519 71.5746 51.7946 73.2319 49.7501 73.2319C47.7056 73.2319 46.0482 71.5746 46.0482 69.5301Z" fill="url(#paint3_linear_656_544)"/>
<path d="M31.6439 69.5301V58.1768C31.6439 56.1323 33.3013 54.4749 35.3458 54.4749C37.3903 54.4749 39.0477 56.1323 39.0477 58.1768V69.5301C39.0477 71.5746 37.3903 73.232 35.3458 73.232C33.3013 73.232 31.6439 71.5746 31.6439 69.5301Z" fill="url(#paint4_linear_656_544)"/>
<path d="M2.37244 63.2635L35.6822 36.3404H52.8129L86.1227 2.68658M86.1227 2.68658V19.0327M86.1227 2.68658L70.8954 4.60966" stroke="white" stroke-width="4" stroke-linecap="round"/>
<path d="M86.122 54.4749C97.8793 54.4749 107.411 64.0061 107.411 75.7635C107.411 87.5209 97.8793 97.0521 86.122 97.0521C74.3646 97.0521 64.8334 87.5209 64.8334 75.7635C64.8334 64.0061 74.3646 54.4749 86.122 54.4749Z" fill="white" fill-opacity="0.6" stroke="white" stroke-width="2" stroke-linecap="round"/>
<path d="M84.2181 62.0585V77.404" stroke="white" stroke-width="2" stroke-linecap="round"/>
<path d="M84.2181 78.3993L95.2181 78.3993" stroke="white" stroke-width="2" stroke-linecap="round"/>
<defs>
<linearGradient id="paint0_linear_656_544" x1="89.6174" y1="14.2328" x2="107.068" y2="15.8461" gradientUnits="userSpaceOnUse">
<stop stop-color="#6A26FF"/>
<stop offset="1" stop-color="#D272FF"/>
</linearGradient>
<linearGradient id="paint1_linear_656_544" x1="75.2131" y1="36.9248" x2="92.4245" y2="39.5105" gradientUnits="userSpaceOnUse">
<stop stop-color="#6A26FF"/>
<stop offset="1" stop-color="#D272FF"/>
</linearGradient>
<linearGradient id="paint2_linear_656_544" x1="60.8088" y1="34.5773" x2="78.065" y2="37.0124" gradientUnits="userSpaceOnUse">
<stop stop-color="#6A26FF"/>
<stop offset="1" stop-color="#D272FF"/>
</linearGradient>
<linearGradient id="paint3_linear_656_544" x1="46.4045" y1="24.092" x2="63.7901" y2="26.0218" gradientUnits="userSpaceOnUse">
<stop stop-color="#6A26FF"/>
<stop offset="1" stop-color="#D272FF"/>
</linearGradient>
<linearGradient id="paint4_linear_656_544" x1="32.0002" y1="54.5998" x2="48.2107" y2="59.3454" gradientUnits="userSpaceOnUse">
<stop stop-color="#6A26FF"/>
<stop offset="1" stop-color="#D272FF"/>
</linearGradient>
</defs>
</svg>
