<svg width="189" height="99" viewBox="0 0 189 99" fill="none" xmlns="http://www.w3.org/2000/svg">
<path d="M63.2234 30.0106C64.354 30.1462 65.3956 30.6838 66.1527 31.5225C66.9098 32.3612 67.3305 33.4434 67.3358 34.5661V84.6615C67.3495 85.2661 67.232 85.8665 66.9914 86.4227C66.7507 86.979 66.3924 87.4781 65.9403 87.8869C65.2192 88.6271 64.2592 89.0967 63.2251 89.2154V97.805C63.2251 97.9655 63.1606 98.1195 63.0458 98.2333C62.9309 98.3471 62.775 98.4115 62.6122 98.4124C62.4485 98.4124 62.2914 98.3485 62.1753 98.2347C62.0592 98.1208 61.9936 97.9664 61.9927 97.805V89.2154C60.9595 89.0952 60.0006 88.6257 59.2791 87.8869C58.8275 87.478 58.4696 86.9787 58.2295 86.4225C57.9894 85.8662 57.8726 85.2659 57.8869 84.6615V34.5661C57.8888 33.4435 58.3075 32.3604 59.0638 31.5212C59.8202 30.682 60.862 30.1447 61.9927 30.0106V14.4441C61.9936 14.2829 62.0593 14.1285 62.1754 14.015C62.2915 13.9014 62.4486 13.8379 62.6122 13.8383C62.7749 13.8388 62.9308 13.9028 63.0457 14.0163C63.1606 14.1299 63.2251 14.2837 63.2251 14.4441L63.2234 30.0106V30.0106Z" fill="url(#paint0_linear_720_141)"/>
<path d="M46.3742 17.14C47.5029 17.2791 48.5419 17.8178 49.2976 18.6559C50.0532 19.494 50.4741 20.5743 50.4817 21.6955V71.7909C50.4955 72.395 50.3781 72.995 50.1374 73.5508C49.8967 74.1065 49.5383 74.605 49.0862 75.013C48.3672 75.7548 47.408 76.2259 46.3742 76.3448V88.7525C46.3721 88.8714 46.3348 88.9871 46.2669 89.0854C46.199 89.1837 46.1035 89.2604 45.992 89.3059C45.8806 89.3514 45.758 89.3639 45.6395 89.3418C45.521 89.3196 45.4115 89.2638 45.3247 89.1813C45.2093 89.0682 45.1441 88.9145 45.1435 88.7541V76.3448C44.1095 76.2249 43.1501 75.7541 42.4299 75.013C41.9788 74.6047 41.6213 74.1063 41.3812 73.5509C41.1411 72.9955 41.024 72.3961 41.0377 71.7926V21.6971C41.0413 20.5751 41.4602 19.493 42.2159 18.6539C42.9716 17.8148 44.012 17.2765 45.1418 17.14V1.57514C45.1418 1.41405 45.2068 1.25955 45.3223 1.14564C45.4379 1.03174 45.5946 0.967743 45.758 0.967743C45.9211 0.969017 46.077 1.03342 46.1923 1.14705C46.3076 1.26069 46.3729 1.41444 46.3742 1.57514V17.14Z" fill="url(#paint1_linear_720_141)"/>
<path d="M17.0503 39.3311C15.605 39.3311 14.2573 39.6046 13.0073 40.1514C11.7573 40.6983 10.6733 41.4405 9.75537 42.378C8.8374 43.296 8.10498 44.3799 7.55811 45.6299C7.03076 46.8799 6.76709 48.2081 6.76709 49.6143C6.76709 51.0206 7.03076 52.3487 7.55811 53.5987C8.10498 54.8487 8.8374 55.9424 9.75537 56.8799C10.6733 57.7979 11.7573 58.5303 13.0073 59.0772C14.2573 59.6241 15.605 59.8975 17.0503 59.8975C18.4761 59.8975 19.814 59.6241 21.064 59.0772C22.314 58.5303 23.3979 57.7881 24.3159 56.8506C25.2534 55.9131 25.9858 54.8292 26.5132 53.5987C27.0601 52.3487 27.3335 51.0206 27.3335 49.6143C27.3335 48.2081 27.0601 46.8897 26.5132 45.6592C25.9858 44.4092 25.2534 43.3155 24.3159 42.378C23.3979 41.4405 22.314 40.6983 21.064 40.1514C19.814 39.6046 18.4761 39.3311 17.0503 39.3311ZM27.3335 62.9737V62.3878C25.8687 63.5596 24.2769 64.4581 22.5581 65.0831C20.8394 65.7081 19.0034 66.0206 17.0503 66.0206C12.519 66.0206 8.65186 64.419 5.44873 61.2159C2.24561 58.0128 0.644043 54.1456 0.644043 49.6143C0.644043 45.0831 2.24561 41.2159 5.44873 38.0128C8.65186 34.8096 12.519 33.2081 17.0503 33.2081C21.5425 33.2081 25.4097 34.8096 28.6519 38.0128C31.855 41.2159 33.4565 45.0831 33.4565 49.6143V62.9737C33.4565 63.8135 33.1538 64.5362 32.5483 65.1417C31.9624 65.7276 31.2495 66.0206 30.4097 66.0206C29.5503 66.0206 28.8179 65.7276 28.2124 65.1417C27.6265 64.5362 27.3335 63.8135 27.3335 62.9737Z" fill="#312A7F"/>
<path d="M79.4233 49.6143C79.4233 51.0206 79.687 52.3487 80.2144 53.5987C80.7612 54.8487 81.4937 55.9424 82.4116 56.8799C83.3296 57.7979 84.4136 58.5303 85.6636 59.0772C86.9136 59.6241 88.2612 59.8975 89.7065 59.8975C91.1323 59.8975 92.4702 59.6241 93.7202 59.0772C94.9702 58.5303 96.0542 57.7881 96.9722 56.8506C97.9097 55.9131 98.6421 54.8292 99.1694 53.5987C99.7163 52.3487 99.9897 51.0206 99.9897 49.6143C99.9897 48.2081 99.7163 46.8897 99.1694 45.6592C98.6421 44.4092 97.9097 43.3155 96.9722 42.378C96.0542 41.4405 94.9702 40.6983 93.7202 40.1514C92.4702 39.6046 91.1323 39.3311 89.7065 39.3311C88.2612 39.3311 86.9136 39.6046 85.6636 40.1514C84.4136 40.6983 83.3296 41.4405 82.4116 42.378C81.4937 43.296 80.7612 44.3799 80.2144 45.6299C79.687 46.8799 79.4233 48.2081 79.4233 49.6143ZM89.7065 66.0206C85.7808 66.0206 82.353 64.8194 79.4233 62.4171V77.0362C79.4233 77.9151 79.1206 78.6378 78.5151 79.2042C77.9292 79.7901 77.2065 80.0831 76.3472 80.0831C75.4683 80.0831 74.7358 79.7901 74.1499 79.2042C73.5835 78.6378 73.3003 77.9151 73.3003 77.0362V49.6143C73.3003 45.0831 74.9019 41.2159 78.105 38.0128C81.3081 34.8096 85.1753 33.2081 89.7065 33.2081C94.1987 33.2081 98.0659 34.8096 101.308 38.0128C102.91 39.5948 104.111 41.3624 104.912 43.3155C105.712 45.2491 106.113 47.3487 106.113 49.6143C106.113 54.1846 104.511 58.0518 101.308 61.2159C99.6675 62.837 97.8804 64.0479 95.9468 64.8487C94.0327 65.6299 91.9526 66.0206 89.7065 66.0206Z" fill="#312A7F"/>
<path d="M119.091 27.378C119.091 28.3741 118.74 29.2237 118.037 29.9268C117.333 30.6299 116.484 30.9815 115.488 30.9815C114.492 30.9815 113.642 30.6299 112.939 29.9268C112.236 29.2237 111.884 28.3741 111.884 27.378C111.884 26.3819 112.236 25.5323 112.939 24.8292C113.642 24.126 114.492 23.7745 115.488 23.7745C116.484 23.7745 117.333 24.126 118.037 24.8292C118.74 25.5323 119.091 26.3819 119.091 27.378ZM112.441 62.9444V36.2842C112.441 35.4249 112.734 34.7022 113.32 34.1163C113.925 33.5108 114.648 33.2081 115.488 33.2081C116.328 33.2081 117.041 33.5108 117.626 34.1163C118.232 34.7022 118.544 35.4249 118.564 36.2842V62.9444C118.544 63.8038 118.232 64.5362 117.626 65.1417C117.041 65.7276 116.328 66.0206 115.488 66.0206C114.648 66.0206 113.925 65.7276 113.32 65.1417C112.734 64.5362 112.441 63.8038 112.441 62.9444Z" fill="#312A7F"/>
<path d="M130.986 49.6143C130.986 51.0206 131.25 52.3487 131.777 53.5987C132.324 54.8487 133.056 55.9424 133.974 56.8799C134.892 57.7979 135.976 58.5303 137.226 59.0772C138.476 59.6241 139.824 59.8975 141.269 59.8975C142.695 59.8975 144.033 59.6241 145.283 59.0772C146.533 58.5303 147.617 57.7881 148.535 56.8506C149.472 55.9131 150.205 54.8292 150.732 53.5987C151.279 52.3487 151.552 51.0206 151.552 49.6143C151.552 48.2081 151.279 46.8897 150.732 45.6592C150.205 44.4092 149.472 43.3155 148.535 42.378C147.617 41.4405 146.533 40.6983 145.283 40.1514C144.033 39.6046 142.695 39.3311 141.269 39.3311C139.824 39.3311 138.476 39.6046 137.226 40.1514C135.976 40.6983 134.892 41.4405 133.974 42.378C133.056 43.296 132.324 44.3799 131.777 45.6299C131.25 46.8799 130.986 48.2081 130.986 49.6143ZM141.269 66.0206C137.343 66.0206 133.916 64.8194 130.986 62.4171V77.0362C130.986 77.9151 130.683 78.6378 130.078 79.2042C129.492 79.7901 128.769 80.0831 127.91 80.0831C127.031 80.0831 126.298 79.7901 125.712 79.2042C125.146 78.6378 124.863 77.9151 124.863 77.0362V49.6143C124.863 45.0831 126.464 41.2159 129.667 38.0128C132.871 34.8096 136.738 33.2081 141.269 33.2081C145.761 33.2081 149.628 34.8096 152.871 38.0128C154.472 39.5948 155.673 41.3624 156.474 43.3155C157.275 45.2491 157.675 47.3487 157.675 49.6143C157.675 54.1846 156.074 58.0518 152.871 61.2159C151.23 62.837 149.443 64.0479 147.509 64.8487C145.595 65.6299 143.515 66.0206 141.269 66.0206Z" fill="#312A7F"/>
<path d="M168.339 50.4053C166.503 49.7022 165.214 48.9796 164.472 48.2374H164.501C163.017 46.7335 162.275 44.9659 162.275 42.9346C162.275 41.4503 162.666 40.1124 163.447 38.921C164.248 37.71 165.283 36.6846 166.552 35.8448C167.822 35.0049 169.248 34.3604 170.83 33.9112C172.431 33.4424 174.033 33.2081 175.634 33.2081C180.517 33.2081 184.707 35.171 188.203 39.0967C188.613 39.6046 188.818 40.2198 188.818 40.9424C188.818 41.8214 188.525 42.5538 187.939 43.1397C187.373 43.7061 186.65 43.9893 185.771 43.9893C185.146 43.9893 184.609 43.8135 184.16 43.462C183.73 43.1104 183.31 42.7296 182.9 42.3194C180.908 40.3272 178.486 39.3311 175.634 39.3311C172.822 39.3311 170.576 40.1905 168.896 41.9092C168.583 42.2217 168.427 42.6514 168.427 43.1983C168.427 43.7452 168.681 44.1163 169.189 44.3116L182.9 48.8233C184.814 49.5655 186.103 50.2881 186.767 50.9913H186.738C188.222 52.4952 188.964 54.2628 188.964 56.294C188.964 57.7979 188.564 59.1456 187.763 60.337C186.982 61.5284 185.957 62.5538 184.687 63.4131C183.417 64.253 181.992 64.8975 180.41 65.3467C178.828 65.796 177.236 66.0206 175.634 66.0206C170.712 66.0206 166.523 64.0772 163.066 60.1905C162.636 59.6241 162.421 58.9893 162.421 58.2862C162.421 57.4073 162.705 56.6846 163.271 56.1182C163.857 55.5323 164.589 55.2393 165.468 55.2393C166.113 55.2393 166.66 55.4346 167.109 55.8253C167.558 56.1964 167.968 56.5577 168.339 56.9092C170.332 58.9014 172.763 59.8975 175.634 59.8975C178.427 59.8975 180.673 59.0186 182.373 57.2608C182.666 56.9288 182.812 56.5284 182.812 56.0596C182.812 55.5128 182.548 55.1319 182.021 54.9171L168.339 50.4053Z" fill="#312A7F"/>
<defs>
<linearGradient id="paint0_linear_720_141" x1="57.8853" y1="81.6668" x2="57.8853" y2="14.4311" gradientUnits="userSpaceOnUse">
<stop stop-color="#F50057"/>
<stop offset="1" stop-color="#651FFF"/>
</linearGradient>
<linearGradient id="paint1_linear_720_141" x1="41.036" y1="1.40948" x2="41.036" y2="88.3855" gradientUnits="userSpaceOnUse">
<stop stop-color="#F50057"/>
<stop offset="1" stop-color="#651FFF"/>
</linearGradient>
</defs>
</svg>
