<svg width="314" height="130" viewBox="0 0 314 130" fill="none" xmlns="http://www.w3.org/2000/svg">
<g clip-path="url(#clip0_66_134)">
<path d="M100.367 38.9484C101.863 39.128 103.241 39.8397 104.243 40.95C105.245 42.0603 105.802 43.493 105.809 44.9792V111.298C105.827 112.098 105.672 112.893 105.353 113.63C105.035 114.366 104.561 115.027 103.962 115.568C103.008 116.548 101.737 117.17 100.369 117.327V128.698C100.369 128.911 100.283 129.114 100.131 129.265C99.9795 129.416 99.7732 129.501 99.5576 129.502C99.3409 129.502 99.133 129.418 98.9794 129.267C98.8258 129.116 98.7389 128.912 98.7377 128.698V117.327C97.3703 117.168 96.1012 116.546 95.1464 115.568C94.5486 115.027 94.075 114.366 93.7573 113.629C93.4395 112.893 93.2849 112.098 93.3038 111.298V44.9792C93.3063 43.4931 93.8604 42.0593 94.8614 40.9483C95.8625 39.8373 97.2413 39.1259 98.7377 38.9484V18.3407C98.7389 18.1272 98.8258 17.9229 98.9795 17.7726C99.1332 17.6223 99.3411 17.5382 99.5576 17.5387C99.773 17.5393 99.9793 17.6241 100.131 17.7744C100.283 17.9247 100.369 18.1284 100.369 18.3407L100.367 38.9484Z" fill="url(#paint0_linear_66_134)"/>
<path d="M78.0662 21.9097C79.56 22.0938 80.9351 22.807 81.9352 23.9165C82.9353 25.026 83.4922 26.4561 83.5023 27.9404V94.2593C83.5206 95.0591 83.3653 95.8534 83.0467 96.5891C82.7282 97.3248 82.2538 97.9848 81.6554 98.5249C80.7038 99.507 79.4344 100.131 78.0662 100.288V116.714C78.0634 116.871 78.014 117.025 77.9242 117.155C77.8343 117.285 77.7079 117.386 77.5603 117.447C77.4128 117.507 77.2507 117.523 77.0938 117.494C76.9369 117.465 76.7921 117.391 76.6772 117.282C76.5244 117.132 76.4382 116.928 76.4373 116.716V100.288C75.0689 100.129 73.7991 99.5059 72.8459 98.5249C72.2489 97.9844 71.7758 97.3245 71.458 96.5893C71.1403 95.8541 70.9853 95.0605 71.0034 94.2615V27.9426C71.0081 26.4572 71.5626 25.0247 72.5627 23.9138C73.5629 22.803 74.9398 22.0904 76.4351 21.9097V1.3041C76.4351 1.09084 76.5211 0.886313 76.674 0.735515C76.8269 0.584717 77.0344 0.5 77.2507 0.5C77.4664 0.501686 77.6729 0.586945 77.8254 0.737379C77.978 0.887813 78.0645 1.09136 78.0662 1.3041V21.9097Z" fill="url(#paint1_linear_66_134)"/>
<path d="M294.571 55.0928C293.87 55.0776 293.173 55.2038 292.523 55.4637C291.874 55.7236 291.285 56.1117 290.792 56.6042C290.303 57.0914 289.917 57.67 289.658 58.3062C289.398 58.9423 289.27 59.6231 289.281 60.3087C289.258 61.2658 289.525 62.208 290.049 63.0141C290.573 63.8202 291.329 64.4534 292.221 64.8323C295.007 65.8493 297.859 66.692 300.753 67.3542C304.074 68.1181 307.165 69.6445 309.774 71.809C312.594 74.4686 314.009 78.2225 314.009 83.1266C314.015 85.4297 313.559 87.7111 312.666 89.8395C311.774 91.9679 310.464 93.9012 308.81 95.5278C307.157 97.1562 305.193 98.4465 303.033 99.3246C300.872 100.203 298.557 100.651 296.22 100.645H282.899C282.09 100.65 281.289 100.494 280.544 100.185C279.799 99.8759 279.125 99.4209 278.564 98.8475C277.97 98.3038 277.499 97.6421 277.184 96.9061C276.868 96.1701 276.714 95.3765 276.732 94.5775V94.4765C276.747 92.8635 277.4 91.32 278.552 90.1744C279.703 89.0289 281.263 88.3716 282.899 88.3425H296.719C297.77 88.3548 298.8 88.0561 299.677 87.485C300.554 86.914 301.237 86.0968 301.638 85.139C301.904 84.5026 302.037 83.8211 302.033 83.1331C302.029 82.2288 301.75 81.3465 301.232 80.6005C300.714 79.8545 299.98 79.2792 299.126 78.9492C298.618 78.7277 295.76 77.8893 290.557 76.4466C287.205 75.657 284.101 74.0674 281.518 71.8176C278.699 69.1087 277.29 65.2752 277.29 60.3151C277.309 55.6721 279.189 51.2249 282.521 47.944C285.855 44.6606 290.369 42.8077 295.081 42.7883H304.484C306.131 42.7929 307.708 43.44 308.873 44.5882C310.037 45.7364 310.692 47.2923 310.696 48.9158V49.019C310.718 49.8177 310.567 50.6117 310.252 51.348C309.938 52.0843 309.468 52.746 308.873 53.2889C308.306 53.8708 307.624 54.332 306.869 54.644C306.114 54.9561 305.303 55.1125 304.484 55.1035L294.571 55.0928ZM217.493 121.291C215.866 121.272 214.311 120.627 213.16 119.494C212.009 118.36 211.352 116.828 211.331 115.224V71.622C211.352 65.9073 213.097 60.328 216.335 55.5894C218.761 52.0469 221.952 49.0774 225.679 46.8937C229.406 44.7101 233.577 43.3664 237.893 42.9589C242.209 42.5514 246.562 43.0903 250.642 44.5368C254.721 45.9834 258.426 48.3018 261.49 51.326C264.552 54.3497 266.895 58.0055 268.351 62.0299C269.807 66.0543 270.34 70.3471 269.91 74.5989C269.481 78.8507 268.1 82.9556 265.868 86.6178C263.635 90.28 260.607 93.4083 257 95.7772C252.174 98.9511 246.504 100.646 240.703 100.647C233.304 100.647 227.659 98.9721 223.83 95.6289V115.224C223.8 116.829 223.139 118.36 221.985 119.492C220.831 120.624 219.276 121.27 217.648 121.291H217.493ZM240.703 88.2372C242.933 88.258 245.145 87.8436 247.212 87.0178C249.279 86.192 251.16 84.9711 252.746 83.4255C255.134 81.0974 256.762 78.1191 257.422 74.8726C258.081 71.6261 257.742 68.2592 256.448 65.2039C255.154 62.1485 252.964 59.5439 250.159 57.7241C247.353 55.9042 244.061 54.952 240.703 54.9896C237.369 54.9956 234.112 55.9729 231.341 57.7987C228.569 59.6246 226.406 62.2175 225.125 65.2515C223.845 68.2839 223.504 71.6216 224.144 74.8447C224.784 78.0678 226.376 81.0323 228.721 83.3653C230.272 84.944 232.137 86.1911 234.198 87.0292C236.259 87.8674 238.473 88.2785 240.703 88.2372ZM192.977 36.2523C191.805 36.2585 190.65 35.9799 189.614 35.441C188.577 34.9021 187.692 34.1196 187.035 33.1628C186.38 32.2055 185.975 31.1031 185.856 29.9541C185.738 28.805 185.91 27.6449 186.356 26.5772C186.803 25.5095 187.511 24.5674 188.416 23.8347C189.322 23.1021 190.397 22.6018 191.547 22.3784C192.696 22.1536 193.884 22.2121 195.006 22.5485C196.127 22.8849 197.147 23.4889 197.975 24.307C198.65 24.9468 199.188 25.7146 199.555 26.5644C199.922 27.4141 200.112 28.3283 200.112 29.252C200.112 30.1756 199.922 31.0898 199.555 31.9395C199.188 32.7893 198.65 33.5571 197.975 34.1969C197.327 34.8569 196.55 35.3796 195.691 35.733C194.832 36.0865 193.908 36.2632 192.977 36.2523ZM193.031 42.784C193.842 42.7669 194.647 42.9185 195.394 43.2289C196.141 43.5394 196.813 44.0017 197.366 44.5857C197.952 45.1457 198.417 45.8175 198.731 46.5601C199.045 47.3027 199.202 48.1005 199.194 48.9051V94.5797C199.172 96.1834 198.516 97.7153 197.365 98.8488C196.215 99.9822 194.66 100.628 193.034 100.647H192.925C192.108 100.658 191.297 100.505 190.543 100.196C189.788 99.8874 189.106 99.4299 188.537 98.8517C187.944 98.3071 187.473 97.6456 187.155 96.91C186.837 96.1744 186.68 95.3813 186.693 94.5818V48.9029C186.689 48.0976 186.851 47.2999 187.168 46.5577C187.485 45.8155 187.951 45.144 188.537 44.5836C189.105 44.0037 189.788 43.5446 190.543 43.2348C191.298 42.9249 192.109 42.7708 192.927 42.7819H193.031V42.784ZM123.544 121.293C121.917 121.272 120.362 120.627 119.21 119.494C118.058 118.361 117.399 116.83 117.373 115.226V71.622C117.395 65.9073 119.139 60.328 122.377 55.5851C124.803 52.0411 127.995 49.0702 131.723 46.8855C135.45 44.7007 139.622 43.3562 143.939 42.9483C148.256 42.5404 152.611 43.0792 156.692 44.5261C160.773 45.973 164.478 48.2922 167.543 51.3174C171.637 55.3636 174.422 60.5155 175.548 66.1222C176.673 71.7288 176.087 77.5385 173.864 82.817C171.638 88.0977 167.874 92.6092 163.049 95.7815C158.222 98.9537 152.552 100.647 146.751 100.647C139.357 100.647 133.712 98.97 129.878 95.6267V115.224C129.852 116.829 129.192 118.361 128.039 119.494C126.885 120.627 125.329 121.272 123.701 121.291H123.546L123.544 121.293ZM146.749 88.2393C148.979 88.2602 151.191 87.8458 153.257 87.02C155.324 86.1942 157.204 84.9733 158.79 83.4276C160.374 81.8822 161.631 80.0426 162.489 78.0151C163.347 75.9876 163.789 73.8125 163.789 71.6155C163.789 69.4186 163.347 67.2435 162.489 65.216C161.631 63.1885 160.374 61.3489 158.79 59.8034C157.205 58.2572 155.324 57.0359 153.258 56.2101C151.191 55.3842 148.979 54.9701 146.749 54.9917C143.417 55.0017 140.161 55.9809 137.391 57.8067C134.62 59.6325 132.457 62.2237 131.173 65.2558C129.894 68.2876 129.553 71.6249 130.193 74.8473C130.834 78.0698 132.426 81.0335 134.771 83.3653C136.323 84.9425 138.187 86.1887 140.248 87.0268C142.308 87.8648 144.521 88.2768 146.749 88.2372V88.2393ZM29.3721 55.0928C27.1435 55.0537 24.9306 55.4662 22.8703 56.3046C20.81 57.143 18.9462 58.3895 17.3943 59.9669C14.2605 63.1083 12.5043 67.3382 12.5043 71.7445C12.5043 76.1509 14.2605 80.3808 17.3943 83.5223C18.9558 85.0828 20.8223 86.3147 22.8807 87.1432C24.9392 87.9718 27.1468 88.3798 29.3699 88.3425C32.7142 88.3599 35.9879 87.3933 38.7722 85.5665C41.5564 83.7396 43.7248 81.1355 45.0001 78.0871C45.844 76.0639 46.2714 73.8945 46.2583 71.7058C46.2949 69.5195 45.8749 67.3491 45.0245 65.3296C44.1741 63.3101 42.9114 61.4847 41.315 59.9669C39.7688 58.3909 37.9107 57.145 35.8558 56.3066C33.801 55.4681 31.5934 55.055 29.3699 55.0928H29.3721ZM29.3721 42.7819C33.2388 42.7256 37.0764 43.4499 40.6486 44.9104C44.2209 46.3709 47.4523 48.5367 50.144 51.2744C52.9182 53.9201 55.1138 57.0977 56.5958 60.6114C58.0778 64.1251 58.8149 67.9007 58.7616 71.7058V94.5818C58.7787 95.381 58.6243 96.1746 58.3087 96.9108C57.993 97.647 57.5232 98.3092 56.9299 98.8539C56.3676 99.426 55.6936 99.8801 54.9486 100.189C54.2036 100.497 53.403 100.654 52.595 100.649H52.4401C51.632 100.657 50.8308 100.501 50.0857 100.193C49.3407 99.884 48.6674 99.4284 48.1074 98.8539C47.5091 98.3122 47.0347 97.651 46.7159 96.9144C46.397 96.1777 46.241 95.3826 46.2583 94.5818C42.3922 98.6281 36.7641 100.649 29.3699 100.649C25.5066 100.705 21.6726 99.9808 18.1035 98.5218C14.5343 97.0629 11.3055 94.8997 8.61534 92.1652C5.88436 89.4839 3.71713 86.2972 2.23795 82.7882C0.758777 79.2791 -0.00324091 75.5167 -0.00439419 71.7166C-0.00498261 67.9166 0.756249 64.1539 2.23553 60.645C3.71482 57.1361 5.88297 53.95 8.61534 51.2701C11.3042 48.5338 14.5328 46.3693 18.1021 44.9099C21.6715 43.4504 25.5062 42.727 29.3699 42.784V42.7819H29.3721Z" fill="#312A7F"/>
</g>
<defs>
<linearGradient id="paint0_linear_66_134" x1="93.3016" y1="107.334" x2="93.3016" y2="18.3235" gradientUnits="userSpaceOnUse">
<stop stop-color="#F50057"/>
<stop offset="1" stop-color="#651FFF"/>
</linearGradient>
<linearGradient id="paint1_linear_66_134" x1="71.0012" y1="1.0848" x2="71.0012" y2="116.228" gradientUnits="userSpaceOnUse">
<stop stop-color="#F50057"/>
<stop offset="1" stop-color="#651FFF"/>
</linearGradient>
<clipPath id="clip0_66_134">
<rect width="314" height="129" fill="white" transform="translate(0 0.5)"/>
</clipPath>
</defs>
</svg>
