<svg width="0" height="0" class="hidden">
  <symbol fill="none" xmlns="http://www.w3.org/2000/svg" viewBox="0 0 132 131" id="icon-chip">
    <path d="M91.4408 39.6636H40.0214V91.122H91.4408V39.6636Z" fill="#59E0D8"></path>
    <path d="M91.438 95.0035H40.0194C37.8765 95.0035 36.1385 93.2645 36.1385 91.1198V39.6621C36.1385 37.5176 37.8762 35.7783 40.0194 35.7783H91.438C93.5809 35.7783 95.3189 37.5173 95.3189 39.6621V91.1198C95.3189 93.2648 93.5814 95.0035 91.438 95.0035ZM43.9002 87.236H87.5575V43.5459H43.9002V87.236Z" fill="#46FFF4"></path>
    <path d="M108.418 104.228H26.9223V26.5543H45.5498C46.2079 26.5543 46.8269 26.3889 47.3697 26.1C49.0676 25.6856 50.3291 24.1575 50.3291 22.331V4.27488C50.3291 2.13039 48.5914 0.391113 46.4483 0.391113C44.3054 0.391113 42.5674 2.13013 42.5674 4.27488V18.787H23.0417C20.8989 18.787 19.1609 20.5261 19.1609 22.6708V41.3124H4.66C2.51687 41.3122 0.779175 43.0515 0.779175 45.196C0.779175 47.3405 2.51687 49.0797 4.66 49.0797H19.1612V61.5075H12.4262C10.2834 61.5075 8.54542 63.2465 8.54542 65.3912C8.54542 67.536 10.2831 69.275 12.4262 69.275H19.1609V81.7028H4.66C2.51687 81.7023 0.779175 83.4415 0.779175 85.586C0.779175 87.7305 2.51687 89.4698 4.66 89.4698H19.1612V108.111C19.1612 110.256 20.8989 111.995 23.042 111.995H41.6695V126.507C41.6695 128.652 43.4072 130.391 45.5503 130.391C47.6932 130.391 49.4311 128.652 49.4311 126.507V111.995H61.8494V118.735C61.8494 120.879 63.5871 122.619 65.7303 122.619C67.8731 122.619 69.6111 120.88 69.6111 118.735V111.995H82.0294V126.507C82.0294 128.652 83.7671 130.391 85.9102 130.391C88.0534 130.391 89.7911 128.652 89.7911 126.507V111.995H108.419C110.561 111.995 112.299 110.256 112.299 108.111C112.299 105.967 110.561 104.228 108.418 104.228Z" fill="#46FFF4"></path>
    <path d="M112.197 81.7022V82.7022H113.197H127.699C127.905 82.7022 128.396 82.8944 128.89 83.4829C129.352 84.0336 129.681 84.7831 129.681 85.5863C129.681 87.1794 128.39 88.47 126.8 88.47H108.758C107.167 88.47 105.877 87.1792 105.877 85.5863C105.877 85.0631 106.018 84.5869 106.279 84.1775L106.436 83.9317V83.6402V26.5546V25.5546H105.436H66.6288C65.0393 25.5546 63.7489 24.2648 63.7479 22.6726C63.748 22.6713 63.7482 22.665 63.7492 22.6499L63.7505 22.6311L63.7521 22.6067C63.7532 22.589 63.7545 22.5664 63.7555 22.5413L63.7572 22.5007L63.7555 22.4601C63.7545 22.4351 63.7532 22.4125 63.752 22.3949L63.7504 22.3706L63.7492 22.3519C63.7482 22.3366 63.748 22.3303 63.7479 22.3291V12.0473C63.7479 10.4541 65.0386 9.16351 66.6288 9.16351C68.2188 9.16351 69.5096 10.4543 69.5096 12.0473V18.787V19.787H70.5096H82.9279H83.9279V18.787V4.27488C83.9279 2.68174 85.2183 1.39111 86.8082 1.39111C88.3983 1.39111 89.689 2.68191 89.689 4.27488V18.787V19.787H90.689H109.317C110.907 19.787 112.197 21.0778 112.197 22.6708V41.3122V42.3122H113.197H127.699C129.289 42.3122 130.579 43.603 130.579 45.196C130.579 46.7891 129.288 48.0797 127.699 48.0797H113.197H112.197V49.0797V61.507V62.507H113.197H119.932C121.522 62.507 122.813 63.7976 122.813 65.3907C122.813 66.9839 121.522 68.2745 119.932 68.2745H113.197H112.197V69.2745V81.7022Z" fill="white" fill-opacity="0.7" stroke="white" stroke-width="2"></path>
    <rect x="57.5604" y="33.666" width="42.2411" height="42.2747" rx="1" fill="white" fill-opacity="0.6" stroke="white" stroke-width="2"></rect>
  </symbol>
  <symbol fill="none" xmlns="http://www.w3.org/2000/svg" viewBox="0 0 96 108" id="icon-cloud">
    <path d="M78.5432 23.3403C77.0435 10.5809 66.2479 0.683655 53.1518 0.683655C40.0558 0.683655 29.2602 10.5809 27.7606 23.3403C18.6698 23.3403 11.2993 30.7484 11.2993 39.887C11.2993 49.0256 18.6688 56.4337 27.7597 56.4337H78.5442C87.6351 56.4337 95.0045 49.0256 95.0045 39.887C95.0045 30.7484 87.6341 23.3403 78.5432 23.3403Z" fill="#6E29FF"></path>
    <path d="M70.5805 73.4836H21.5961C19.1441 73.4836 17.1564 71.4958 17.1564 69.0438C17.1564 66.5918 19.1441 64.604 21.5961 64.604H70.5805C73.0325 64.604 75.0202 66.5918 75.0202 69.0438C75.0202 71.4958 73.0325 73.4836 70.5805 73.4836Z" fill="#6E29FF"></path>
    <path d="M70.5805 85.1065H21.5961C19.1441 85.1065 17.1564 83.1188 17.1564 80.6668C17.1564 78.2147 19.1441 76.227 21.5961 76.227H70.5805C73.0325 76.227 75.0202 78.2147 75.0202 80.6668C75.0202 83.1188 73.0325 85.1065 70.5805 85.1065Z" fill="#6E29FF"></path>
    <path d="M70.5805 95.6233H21.5961C19.1441 95.6233 17.1564 93.6356 17.1564 91.1835C17.1564 88.7315 19.1441 86.7438 21.5961 86.7438H70.5805C73.0325 86.7438 75.0202 88.7315 75.0202 91.1835C75.0202 93.6356 73.0325 95.6233 70.5805 95.6233Z" fill="#6E29FF"></path>
    <path fill-rule="evenodd" clip-rule="evenodd" d="M43.08 99.659C43.0801 99.6664 43.0804 99.6738 43.0808 99.6811C41.2251 99.9093 39.7541 101.389 39.5287 103.255H18.5717C18.2955 103.255 18.0717 103.479 18.0717 103.755C18.0717 104.031 18.2955 104.255 18.5717 104.255H39.5287C39.7741 106.286 41.4952 107.86 43.5819 107.86C45.6686 107.86 47.3897 106.286 47.6351 104.255H68.0802C68.3564 104.255 68.5802 104.031 68.5802 103.755C68.5802 103.479 68.3564 103.255 68.0802 103.255H47.6351C47.4095 101.388 45.9366 99.9072 44.079 99.6806C44.0796 99.6706 44.0799 99.6606 44.0799 99.6505L44.0799 58.6044C44.0799 58.3283 43.856 58.1044 43.5799 58.1044C43.3038 58.1044 43.0799 58.3283 43.0799 58.6044L43.0799 99.6505C43.0799 99.6533 43.0799 99.6562 43.08 99.659ZM46.6636 103.657C46.612 101.983 45.2473 100.65 43.5819 100.65C41.9142 100.65 40.5481 101.987 40.5 103.664C40.5055 103.693 40.5084 103.724 40.5084 103.755C40.5084 103.786 40.5055 103.817 40.5 103.847C40.5481 105.523 41.9142 106.86 43.5819 106.86C45.2473 106.86 46.612 105.527 46.6636 103.853C46.6572 103.822 46.6539 103.789 46.6539 103.755C46.6539 103.722 46.6572 103.689 46.6636 103.657Z" fill="white"></path>
    <path d="M67.4539 25.7384L67.5058 26.18H67.9504C76.7628 26.18 83.9118 33.3619 83.9118 42.2268C83.9118 51.0917 76.7637 58.2735 67.9514 58.2735H17.1669C8.35463 58.2735 1.20654 51.0917 1.20654 42.2268C1.20654 33.3619 8.35555 26.18 17.1679 26.18H17.6125L17.6645 25.7384C19.135 13.2258 29.7216 3.52344 42.5591 3.52344C55.3965 3.52344 65.9831 13.2258 67.4539 25.7384Z" fill="white" fill-opacity="0.6" stroke="white"></path>
    <path d="M72.9551 69.8922H43.5842C41.3174 69.8922 39.4799 68.0546 39.4799 65.7878C39.4799 63.5211 41.3175 61.6835 43.5842 61.6835H72.9551C75.2219 61.6835 77.0595 63.5211 77.0595 65.7878C77.0595 68.0546 75.2219 69.8922 72.9551 69.8922Z" fill="#FFFAFA" fill-opacity="0.6" stroke="white" stroke-width="0.5" stroke-linecap="round"></path>
    <path d="M72.9551 82.2056H43.5842C41.3174 82.2056 39.4799 80.368 39.4799 78.1012C39.4799 75.8344 41.3175 73.9968 43.5842 73.9968H72.9551C75.2219 73.9968 77.0595 75.8344 77.0595 78.1012C77.0595 80.368 75.2219 82.2056 72.9551 82.2056Z" fill="#FFFAFA" fill-opacity="0.6" stroke="white" stroke-width="0.5" stroke-linecap="round"></path>
    <path d="M72.9551 93.3246H43.5842C41.3174 93.3246 39.4799 91.487 39.4799 89.2202C39.4799 86.9534 41.3175 85.1158 43.5842 85.1158H72.9551C75.2219 85.1158 77.0595 86.9534 77.0595 89.2202C77.0595 91.487 75.2219 93.3246 72.9551 93.3246Z" fill="#FFFAFA" fill-opacity="0.6" stroke="white" stroke-width="0.5" stroke-linecap="round"></path>
    <path d="M22.1421 65.71C23.9103 65.71 25.3437 67.1434 25.3437 68.9116C25.3437 70.6798 23.9103 72.1132 22.1421 72.1132C20.374 72.1132 18.9406 70.6798 18.9406 68.9116C18.9406 67.1434 20.374 65.71 22.1421 65.71Z" fill="white" stroke="white" stroke-width="0.5" stroke-linecap="round"></path>
    <path d="M22.1421 77.4652C23.9103 77.4652 25.3437 78.8986 25.3437 80.6668C25.3437 82.435 23.9103 83.8684 22.1421 83.8684C20.374 83.8684 18.9406 82.435 18.9406 80.6668C18.9406 78.8986 20.374 77.4652 22.1421 77.4652Z" fill="white" stroke="white" stroke-width="0.5" stroke-linecap="round"></path>
    <path d="M22.1421 87.9821C23.9103 87.9821 25.3437 89.4155 25.3437 91.1836C25.3437 92.9518 23.9103 94.3852 22.1421 94.3852C20.374 94.3852 18.9406 92.9518 18.9406 91.1836C18.9406 89.4155 20.374 87.9821 22.1421 87.9821Z" fill="white" stroke="white" stroke-width="0.5" stroke-linecap="round"></path>
  </symbol>
  <symbol fill="none" xmlns="http://www.w3.org/2000/svg" viewBox="0 0 142 109" id="icon-computer">
    <path d="M41.7913 70.8131V3.68365C41.7913 2.0268 43.1344 0.683655 44.7913 0.683655H138.791C140.448 0.683655 141.791 2.0268 141.791 3.68366V70.8131C141.791 72.47 140.448 73.8131 138.791 73.8131H44.7913C43.1344 73.8131 41.7913 72.47 41.7913 70.8131Z" fill="#6E29FF"></path>
    <path d="M46.1782 107.501H108.415C109.2 107.501 109.836 106.864 109.836 106.079C109.836 105.285 109.187 104.645 108.393 104.657L88.4138 104.96C88.2519 104.963 88.1194 104.832 88.1194 104.67C88.1194 104.652 88.1205 104.634 88.1268 104.617C88.174 104.493 88.4134 104.251 89.0837 104.107C89.8037 103.953 90.0241 103.243 90.0443 102.907V95.4289C90.0443 94.9473 90.4347 94.5569 90.9163 94.5569H121.224C124.538 94.5569 127.224 91.8706 127.224 88.5569V24.8295C127.224 21.5158 124.538 18.8295 121.224 18.8295H33.0217C29.708 18.8295 27.0217 21.5158 27.0217 24.8295V88.5569C27.0217 91.8706 29.708 94.5569 33.0217 94.5569H62.0848C62.2547 94.5569 61.8469 94.6202 61.8469 101.955C61.8469 103.66 62.7091 104.03 63.3955 104.007C63.6402 103.999 63.8806 104.174 63.8806 104.419C63.8806 104.62 63.718 104.782 63.5175 104.782H46.1782C45.4274 104.782 44.8188 105.391 44.8188 106.141C44.8188 106.892 45.4274 107.501 46.1782 107.501Z" fill="white" fill-opacity="0.6" stroke="white" stroke-width="2"></path>
    <path d="M67.3127 10.1754H127.24" stroke="white" stroke-width="2" stroke-linecap="round"></path>
    <path d="M58.8401 10.1754H59.8401" stroke="white" stroke-width="2" stroke-linecap="round"></path>
    <path d="M33.388 21.5183L31.3752 20.3585C31.4295 19.856 31.4581 19.346 31.4581 18.8295C31.4581 18.313 31.4295 17.8029 31.3752 17.3004L33.388 16.1406C33.818 15.8928 34.1257 15.4925 34.2543 15.0135C34.3828 14.5346 34.3168 14.0343 34.0684 13.605L30.1964 6.91111C29.8651 6.33827 29.2472 5.98256 28.5839 5.98256C28.2592 5.98256 27.9385 6.06876 27.6559 6.23152L25.6374 7.39471C24.8169 6.79415 23.9301 6.27944 22.9897 5.86372V3.54287C22.9897 2.51931 22.1553 1.68658 21.1299 1.68658H13.3854C12.3599 1.68658 11.5256 2.51931 11.5256 3.54287V5.86372C10.5851 6.27944 9.69818 6.79427 8.87785 7.39483L6.85937 6.23176C6.57687 6.06888 6.25601 5.98268 5.93138 5.98268C5.26801 5.98268 4.65017 6.33839 4.31883 6.91123L0.446725 13.605C0.198342 14.0342 0.132334 14.5346 0.26082 15.0135C0.389541 15.4925 0.697107 15.8927 1.12716 16.1406L3.13987 17.3004C3.08563 17.8029 3.05704 18.3129 3.05704 18.8295C3.05704 19.3461 3.08563 19.8561 3.13987 20.3585L1.12716 21.5183C0.697107 21.7661 0.389541 22.1663 0.26082 22.6454C0.132334 23.1243 0.198342 23.6247 0.446725 24.0539L4.31872 30.7478C4.65005 31.3206 5.26789 31.6763 5.93126 31.6763C6.25589 31.6763 6.57663 31.5903 6.85926 31.4274L8.87773 30.2642C9.69818 30.8648 10.585 31.3795 11.5255 31.7952V34.1162C11.5255 34.612 11.7189 35.0779 12.0703 35.4286C12.4216 35.7791 12.8887 35.9723 13.3853 35.9723H21.1298C22.1552 35.9723 22.9897 35.1397 22.9897 34.1162V31.7952C23.93 31.3794 24.8169 30.8648 25.6373 30.2642L27.6559 31.4273C27.9384 31.5901 28.2592 31.6762 28.5839 31.6762C29.2472 31.6762 29.8651 31.3205 30.1964 30.7477L34.0684 24.0538C34.3168 23.6246 34.3828 23.1242 34.2543 22.6453C34.1257 22.1663 33.8181 21.7661 33.388 21.5183ZM17.2577 25.3693C13.6389 25.3693 10.7052 22.4412 10.7052 18.8295C10.7052 15.2178 13.639 12.2897 17.2577 12.2897C20.8763 12.2897 23.8101 15.2178 23.8101 18.8295C23.8101 22.4412 20.8763 25.3693 17.2577 25.3693Z" fill="#6E29FF"></path>
  </symbol>
  <symbol fill="none" xmlns="http://www.w3.org/2000/svg" viewBox="0 0 133 108" id="icon-discount">
    <path d="M128.935 42.7941C127.779 41.2617 126.686 39.8142 126.241 38.4434C125.764 36.9735 125.79 35.0966 125.817 33.1097C125.86 30.0102 125.904 26.8053 124.054 24.2642C122.186 21.6976 119.108 20.7496 116.131 19.8327C114.247 19.2525 112.467 18.7044 111.242 17.8133C110.043 16.9402 108.986 15.4312 107.868 13.8338C106.153 11.3843 104.21 8.60793 101.149 7.61399C100.378 7.36356 99.5397 7.23663 98.658 7.23663C96.5182 7.23663 94.3736 7.96611 92.2998 8.67167C90.3889 9.32184 88.5837 9.93577 86.9882 9.93577C85.3925 9.93577 83.5877 9.32184 81.6766 8.67167C79.6028 7.96611 77.4586 7.23663 75.3183 7.23663C74.4369 7.23663 73.5989 7.36356 72.8277 7.61399C69.7664 8.60793 67.8229 11.3843 66.1082 13.8338C64.9898 15.4312 63.9336 16.9402 62.734 17.8131C61.5092 18.7044 59.7295 19.2525 57.8452 19.8329C54.8683 20.7496 51.7899 21.6974 49.9219 24.2644C48.0727 26.8051 48.1167 30.0102 48.1592 33.1097C48.1865 35.097 48.2121 36.9737 47.735 38.4436C47.2899 39.8145 46.1975 41.2619 45.0412 42.7945C43.228 45.1969 41.173 47.9201 41.173 51.1977C41.173 54.4753 43.228 57.1985 45.0414 59.6013C46.1979 61.1337 47.2901 62.5811 47.7352 63.9522C48.2125 65.4219 48.1867 67.299 48.1594 69.286C48.1169 72.3854 48.0729 75.5903 49.9221 78.1313C51.7901 80.698 54.8683 81.6458 57.8453 82.5625C59.7296 83.1429 61.5092 83.6908 62.7342 84.5823C63.9338 85.4554 64.9902 86.9642 66.1086 88.5619C67.8233 91.0111 69.7668 93.7875 72.8281 94.7814C73.5991 95.0319 74.4371 95.1588 75.3187 95.1588C77.4588 95.1588 79.603 94.4293 81.677 93.7239C83.588 93.0738 85.393 92.4598 86.9886 92.4598C88.5841 92.4598 90.3893 93.0738 92.3001 93.7239C94.374 94.4295 96.5182 95.1588 98.6584 95.1588C99.54 95.1588 100.378 95.0319 101.149 94.7814C104.211 93.7875 106.154 91.0111 107.869 88.5617C108.987 86.9642 110.043 85.4552 111.243 84.5823C112.468 83.691 114.247 83.1429 116.132 82.5625C119.108 81.6458 122.187 80.698 124.055 78.1313C125.904 75.5903 125.86 72.3852 125.818 69.2858C125.79 67.2985 125.765 65.4218 126.242 63.952C126.687 62.5811 127.779 61.1337 128.936 59.6011C130.749 57.1985 132.804 54.4753 132.804 51.1977C132.804 47.9201 130.749 45.1967 128.935 42.7941Z" fill="#6E29FF"></path>
    <path d="M55.1272 1.98535C58.1677 1.98535 61.0034 3.62617 63.9682 5.76072C64.6408 6.24497 65.309 6.74592 65.9839 7.25192L66.1661 7.3885C66.8998 7.93836 67.6415 8.49213 68.3867 9.01951C69.873 10.0713 71.4132 11.0474 73.0166 11.7165C74.6252 12.3878 76.4286 12.787 78.2516 13.0891C79.2561 13.2556 80.3356 13.4019 81.4007 13.5463C82.2144 13.6566 83.0196 13.7658 83.7766 13.8819C87.4556 14.4462 90.6254 15.2606 92.6494 17.3671C94.6995 19.5007 95.5193 22.5866 96.1232 26.1264C96.2438 26.8332 96.3556 27.5604 96.4691 28.2978C96.9058 31.1371 97.3657 34.1267 98.4342 36.6772C99.5094 39.2436 101.394 41.6585 103.177 43.9422C103.635 44.5291 104.086 45.1072 104.516 45.6771C106.689 48.5636 108.341 51.2774 108.341 54.2431C108.341 57.2122 106.68 59.9886 104.504 62.9042C104.011 63.565 103.501 64.2215 102.986 64.8847L102.848 65.0632C102.288 65.7839 101.724 66.5127 101.187 67.245C100.116 68.705 99.1213 70.2199 98.4387 71.7985C97.7535 73.383 97.3464 75.1586 97.0386 76.9511C96.8692 77.9376 96.7199 79.0004 96.5727 80.0481C96.4604 80.8475 96.3493 81.6381 96.2315 82.3793C95.6576 85.9894 94.831 89.0939 92.6905 91.0788C90.5131 93.0978 87.3609 93.9157 83.7558 94.5147C83.0109 94.6385 82.2443 94.7529 81.4676 94.8687C78.6018 95.2962 75.5979 95.7442 73.0326 96.7632C70.4045 97.8071 67.9338 99.6705 65.5958 101.434C65.0125 101.874 64.4376 102.307 63.8705 102.72C60.9338 104.86 58.1628 106.501 55.1272 106.501C52.0867 106.501 49.251 104.86 46.2862 102.725C45.6135 102.241 44.9452 101.74 44.2701 101.234L44.0883 101.098C43.3546 100.548 42.6129 99.9941 41.8676 99.4667C40.3814 98.4149 38.8412 97.4388 37.2378 96.7697C35.6292 96.0984 33.8258 95.6992 32.0028 95.3971C30.9983 95.2306 29.9188 95.0843 28.8536 94.9399C28.04 94.8296 27.2348 94.7204 26.4778 94.6043C22.7988 94.04 19.629 93.2256 17.605 91.1192C15.5537 88.9843 14.7232 85.8963 14.114 82.3583C13.9883 81.6283 13.8721 80.8765 13.7543 80.1143C13.3191 77.2983 12.8619 74.34 11.8225 71.8148C10.7582 69.2287 8.85843 66.798 7.06328 64.5011C6.61584 63.9286 6.1749 63.3644 5.75501 62.8081C3.57475 59.92 1.91345 57.2072 1.91345 54.2431C1.91345 51.274 3.57476 48.4976 5.74994 45.582C6.24292 44.9212 6.75291 44.2647 7.26816 43.6015C7.31432 43.5421 7.36052 43.4826 7.40676 43.423C7.96649 42.7023 8.53031 41.9735 9.06731 41.2412C10.138 39.7812 11.133 38.2663 11.8157 36.6877C12.5009 35.1032 12.908 33.3276 13.2158 31.5351C13.3852 30.5486 13.5345 29.4858 13.6817 28.4381C13.794 27.6387 13.9051 26.8481 14.0229 26.1069C14.5968 22.4968 15.4233 19.3923 17.5639 17.4075C19.7412 15.3884 22.8935 14.5705 26.4985 13.9715C27.2435 13.8477 28.01 13.7333 28.7868 13.6175C31.6526 13.19 34.6565 12.742 37.2218 11.723C39.8499 10.6791 42.3206 8.81574 44.6586 7.0524C45.2418 6.61253 45.8168 6.17889 46.3839 5.76575C49.3205 3.62637 52.0916 1.98535 55.1272 1.98535Z" fill="white" fill-opacity="0.6" stroke="white" stroke-width="2"></path>
    <path d="M46.0471 57.2684C46.0471 62.8016 45.1206 66.8974 43.2676 69.5556C41.4293 72.2139 38.591 73.543 34.7526 73.543C31.0319 73.543 28.223 72.1705 26.3258 69.4256C24.4434 66.6806 23.5022 62.6282 23.5022 57.2684C23.5022 51.6773 24.4213 47.5599 26.2597 44.9161C28.098 42.2578 30.9289 40.9287 34.7526 40.9287C38.4733 40.9287 41.2823 42.3156 43.1794 45.0895C45.0912 47.8633 46.0471 51.9229 46.0471 57.2684ZM30.2745 57.2684C30.2745 61.1546 30.6127 63.9429 31.2892 65.6332C31.9804 67.3091 33.1349 68.147 34.7526 68.147C36.3409 68.147 37.488 67.2947 38.1939 65.5899C38.8998 63.8851 39.2528 61.1113 39.2528 57.2684C39.2528 53.3821 38.8925 50.5938 38.1718 48.9035C37.4659 47.1987 36.3262 46.3464 34.7526 46.3464C33.1496 46.3464 32.0025 47.1987 31.3113 48.9035C30.6201 50.5938 30.2745 53.3821 30.2745 57.2684Z" fill="#6E29FF"></path>
    <path d="M54.6283 50.9189C54.6283 52.7537 54.7901 54.1261 55.1136 55.0363C55.4519 55.932 55.9887 56.3799 56.724 56.3799C58.1358 56.3799 58.8417 54.5595 58.8417 50.9189C58.8417 47.3071 58.1358 45.5012 56.724 45.5012C55.9887 45.5012 55.4519 45.9491 55.1136 46.8448C54.7901 47.7261 54.6283 49.0841 54.6283 50.9189ZM64.4007 50.8755C64.4007 54.1984 63.7463 56.6977 62.4374 58.3736C61.1286 60.035 59.2094 60.8657 56.6799 60.8657C54.2533 60.8657 52.3782 60.0133 51.0547 58.3086C49.7311 56.5894 49.0693 54.1117 49.0693 50.8755C49.0693 44.2732 51.6062 40.9721 56.6799 40.9721C59.1653 40.9721 61.0697 41.8317 62.3933 43.5509C63.7316 45.2556 64.4007 47.6972 64.4007 50.8755ZM79.5778 41.4271L61.6874 73.1096H56.3931L74.2834 41.4271H79.5778ZM77.2174 63.5745C77.2174 65.4093 77.3792 66.7818 77.7027 67.6919C78.0409 68.5877 78.5777 69.0355 79.313 69.0355C80.7249 69.0355 81.4308 67.2152 81.4308 63.5745C81.4308 59.9628 80.7249 58.1569 79.313 58.1569C78.5777 58.1569 78.0409 58.6047 77.7027 59.5004C77.3792 60.3817 77.2174 61.7397 77.2174 63.5745ZM86.9898 63.5312C86.9898 66.8396 86.3354 69.3317 85.0265 71.0076C83.7176 72.669 81.7984 73.4997 79.2689 73.4997C76.8424 73.4997 74.9673 72.6473 73.6437 70.9425C72.3201 69.2233 71.6584 66.7529 71.6584 63.5312C71.6584 56.9289 74.1952 53.6277 79.2689 53.6277C81.7543 53.6277 83.6588 54.4873 84.9824 56.2065C86.3207 57.9113 86.9898 60.3528 86.9898 63.5312Z" fill="#6E29FF"></path>
  </symbol>
  <symbol fill="none" xmlns="http://www.w3.org/2000/svg" viewBox="0 0 136 131" id="icon-shield">
    <path d="M129.819 20.0373L129.824 20.0365C132.401 19.6455 134.619 21.5988 134.554 23.9817C133.195 70.2264 116.399 96.5596 100.046 111.337C91.8568 118.738 83.7547 123.262 77.707 125.934C74.6834 127.27 72.1751 128.142 70.4288 128.679C69.5557 128.948 68.8734 129.132 68.4128 129.249C68.2059 129.301 68.0438 129.34 67.9292 129.367C67.8146 129.34 67.6525 129.301 67.4456 129.249C66.985 129.132 66.3027 128.947 65.4296 128.678C63.6833 128.14 61.1749 127.267 58.1513 125.93C52.1035 123.256 44.0013 118.73 35.812 111.327C19.459 96.5463 2.66291 70.2127 1.304 23.9806C1.24 21.5982 3.45777 19.6456 6.03355 20.0365L6.03883 20.0373C17.904 21.7733 45.1096 23.0238 64.9196 2.66028L64.9236 2.65603C66.5451 0.969473 69.3405 0.969473 70.962 2.65604L70.9656 2.65976C90.7482 23.024 117.954 21.7732 129.819 20.0373Z" fill="white" fill-opacity="0.6" stroke="white" stroke-width="2"></path>
    <ellipse cx="66.6218" cy="118.096" rx="4.26841" ry="4.0838" fill="#522C97"></ellipse>
    <ellipse cx="93.6023" cy="101.262" rx="4.26841" ry="4.0838" fill="#522C97"></ellipse>
    <ellipse rx="4.26841" ry="4.0838" transform="matrix(-1 0 0 1 41.2623 101.262)" fill="#522C97"></ellipse>
    <ellipse cx="109.745" cy="76.3577" rx="4.26841" ry="4.0838" fill="#522C97"></ellipse>
    <ellipse rx="4.26841" ry="4.0838" transform="matrix(-1 0 0 1 25.1197 76.3577)" fill="#522C97"></ellipse>
    <ellipse cx="118.282" cy="42.6906" rx="4.26841" ry="4.0838" fill="#522C97"></ellipse>
    <ellipse rx="4.26841" ry="4.0838" transform="matrix(-1 0 0 1 16.5826 42.6906)" fill="#522C97"></ellipse>
    <path d="M82.8822 61.4633C82.5968 60.5563 82.2504 59.7669 81.8437 59.0966C81.4372 58.4256 80.8549 57.7711 80.0958 57.1309C79.3377 56.491 78.6556 55.9756 78.0509 55.5839C77.4465 55.1918 76.6162 54.7534 75.5606 54.2682C74.5059 53.7832 73.6702 53.4222 73.055 53.1848C72.4391 52.9477 71.548 52.6227 70.3826 52.2101C69.3492 51.8389 68.5798 51.5551 68.0736 51.3592C67.568 51.1631 66.903 50.8848 66.0784 50.5235C65.2542 50.1627 64.6385 49.8427 64.2316 49.5643C63.8249 49.286 63.3907 48.9456 62.9289 48.5433C62.467 48.1411 62.1427 47.7129 61.9557 47.259C61.7692 46.805 61.6756 46.3098 61.6756 45.7733C61.6756 44.3706 62.335 43.2251 63.6542 42.3382C64.9736 41.4513 66.6779 41.0076 68.7669 41.0076C69.6899 41.0076 70.6309 41.1261 71.5867 41.3636C72.5426 41.6011 73.3617 41.8686 74.0434 42.168C74.7257 42.4674 75.3686 42.7976 75.9734 43.1585C76.5782 43.5196 77.0068 43.7928 77.2599 43.9785C77.5128 44.1643 77.673 44.288 77.7383 44.35C78.0245 44.5563 78.3206 44.6284 78.6285 44.5667C78.9582 44.5461 79.2113 44.3808 79.3876 44.0716L82.0596 39.5531C82.3233 39.1406 82.2688 38.7485 81.8947 38.3769C81.7626 38.2532 81.5983 38.1089 81.399 37.9437C81.2017 37.7785 80.7728 37.4794 80.1126 37.0459C79.4531 36.6127 78.755 36.2259 78.0189 35.8854C77.282 35.5452 76.3252 35.1994 75.1487 34.8489C73.973 34.4978 72.7578 34.2607 71.5042 34.137V28.6898C71.5042 28.4011 71.4054 28.1637 71.2081 27.9779C71.0103 27.7926 70.7573 27.6995 70.449 27.6995H65.9961C65.7103 27.6995 65.463 27.7973 65.2541 27.9934C65.0452 28.1895 64.9408 28.4215 64.9408 28.6898V34.2606C61.4885 34.8793 58.6851 36.2617 56.5302 38.4075C54.3757 40.5534 53.298 43.0495 53.298 45.8971C53.298 46.7429 53.3918 47.5476 53.5787 48.3106C53.7654 49.0743 53.9964 49.7603 54.2713 50.3689C54.5461 50.9779 54.9365 51.576 55.4422 52.1642C55.9478 52.7522 56.4262 53.2577 56.8768 53.6805C57.3277 54.1032 57.9159 54.5417 58.6413 54.9955C59.3671 55.4497 59.9883 55.8162 60.5051 56.0946C61.0221 56.3721 61.7091 56.6929 62.5664 57.0531C63.4239 57.4144 64.1003 57.6875 64.595 57.8736C65.0898 58.0591 65.7658 58.3173 66.6237 58.6467C67.8109 59.08 68.6906 59.4154 69.2622 59.6528C69.8343 59.8902 70.5596 60.2203 71.4397 60.6432C72.3189 61.0658 72.9618 61.4528 73.3689 61.8037C73.7757 62.1545 74.1438 62.5878 74.4739 63.1035C74.8039 63.6191 74.9692 64.1659 74.9692 64.7439C74.9692 66.3739 74.2931 67.6322 72.9404 68.5187C71.5884 69.4062 70.0212 69.8497 68.2404 69.8497C67.4276 69.8497 66.6134 69.7677 65.8002 69.6027C62.9417 69.0656 60.2703 67.776 57.7856 65.7336L57.7197 65.6717C57.5217 65.4453 57.2577 65.3523 56.9282 65.3939C56.5763 65.435 56.3234 65.5589 56.1696 65.7657L52.7723 69.9434C52.4424 70.356 52.4647 70.7788 52.8384 71.2121C52.9485 71.336 53.1408 71.5221 53.4156 71.7693C53.691 72.0174 54.2023 72.4036 54.9495 72.9308C55.6969 73.4572 56.5105 73.9517 57.3902 74.4165C58.2698 74.8806 59.3855 75.3394 60.738 75.7935C62.0905 76.2468 63.4919 76.5665 64.9432 76.7521V82.1681C64.9432 82.4367 65.0478 82.6686 65.2565 82.8648C65.4655 83.0611 65.7127 83.1586 65.9985 83.1586H70.4514C70.7597 83.1586 71.0127 83.0659 71.2104 82.8805C71.408 82.695 71.5065 82.4576 71.5065 82.1682V76.7522C75.0032 76.2158 77.8451 74.8076 80.0326 72.5276C82.2204 70.2477 83.3146 67.5293 83.3146 64.3728C83.3135 63.3414 83.1708 62.3717 82.8822 61.4633Z" fill="#FF7777"></path>
  </symbol>
  <symbol fill="none" xmlns="http://www.w3.org/2000/svg" viewBox="0 0 121 110" id="icon-up">
    <path d="M99.0774 77.4846V19.48C99.0774 17.1991 100.926 15.35 103.207 15.35C105.488 15.35 107.337 17.1991 107.337 19.48V77.4846C107.337 79.7656 105.488 81.6146 103.207 81.6146C100.926 81.6146 99.0774 79.7655 99.0774 77.4846Z" fill="#6E29FF"></path>
    <path d="M83.007 77.4846V44.9664C83.007 42.6855 84.856 40.8364 87.137 40.8364C89.418 40.8364 91.2671 42.6855 91.2671 44.9664V77.4846C91.2671 79.7655 89.418 81.6146 87.137 81.6146C84.856 81.6146 83.007 79.7655 83.007 77.4846Z" fill="#6E29FF"></path>
    <path d="M66.9365 77.4846V42.3299C66.9365 40.049 68.7856 38.1999 71.0666 38.1999C73.3475 38.1999 75.1966 40.049 75.1966 42.3299V77.4846C75.1966 79.7656 73.3475 81.6147 71.0666 81.6147C68.7856 81.6147 66.9365 79.7656 66.9365 77.4846Z" fill="#6E29FF"></path>
    <path d="M50.8662 77.4846V30.5534C50.8662 28.2724 52.7153 26.4233 54.9963 26.4233C57.2772 26.4233 59.1263 28.2724 59.1263 30.5534V77.4846C59.1263 79.7655 57.2772 81.6146 54.9963 81.6146C52.7153 81.6146 50.8662 79.7655 50.8662 77.4846Z" fill="#6E29FF"></path>
    <path d="M34.7958 77.4845V64.818C34.7958 62.5371 36.6449 60.688 38.9258 60.688C41.2068 60.688 43.0559 62.5371 43.0559 64.818V77.4845C43.0559 79.7655 41.2068 81.6146 38.9258 81.6146C36.6449 81.6146 34.7958 79.7655 34.7958 77.4845Z" fill="#6E29FF"></path>
    <path d="M2.13855 70.4931L39.3011 40.456H58.4133L95.5759 2.90948M95.5759 2.90948V21.1463M95.5759 2.90948L78.5873 5.055" stroke="white" stroke-width="4" stroke-linecap="round"></path>
    <path d="M95.5751 60.688C108.692 60.688 119.326 71.3217 119.326 84.439C119.326 97.5563 108.692 108.19 95.5751 108.19C82.4578 108.19 71.8241 97.5563 71.8241 84.439C71.8241 71.3217 82.4578 60.688 95.5751 60.688Z" fill="white" fill-opacity="0.6" stroke="white" stroke-width="2" stroke-linecap="round"></path>
    <path d="M93.451 69.1488V86.2693" stroke="white" stroke-width="2" stroke-linecap="round"></path>
    <path d="M93.451 87.3796L105.723 87.3796" stroke="white" stroke-width="2" stroke-linecap="round"></path>
  </symbol>
  <symbol fill="none" xmlns="http://www.w3.org/2000/svg" viewBox="0 0 112 131" id="icon-user">
    <path d="M68.8029 44.442C81.0342 44.442 90.9496 34.5266 90.9496 22.2953C90.9496 10.064 81.0342 0.14856 68.8029 0.14856C56.5716 0.14856 46.6561 10.064 46.6561 22.2953C46.6561 34.5266 56.5716 44.442 68.8029 44.442Z" fill="#FF42B3"></path>
    <path d="M68.803 55.5154C46.6337 55.5154 28.662 73.4871 28.662 95.6563H108.944C108.944 73.4871 90.9722 55.5154 68.803 55.5154Z" fill="#FF42B3"></path>
    <path d="M62.5297 22.2952C62.5297 34.2503 52.8381 43.9419 40.8829 43.9419C28.9278 43.9419 19.2362 34.2503 19.2362 22.2952C19.2362 10.34 28.9278 0.648438 40.8829 0.648438C52.8381 0.648438 62.5297 10.34 62.5297 22.2952Z" fill="white" fill-opacity="0.6" stroke="white"></path>
    <path d="M80.5209 95.1563H1.24515C1.51292 73.4937 19.1568 56.0154 40.883 56.0154C62.6092 56.0154 80.2531 73.4937 80.5209 95.1563Z" fill="white" fill-opacity="0.6" stroke="white"></path>
    <rect x="1.74207" y="107.683" width="108.31" height="21.951" rx="10.9755" fill="white" fill-opacity="0.4" stroke="white" stroke-width="2"></rect>
    <path d="M95.4493 112.856C98.6542 112.856 101.252 115.454 101.252 118.659C101.252 121.864 98.6542 124.462 95.4493 124.462C92.2443 124.462 89.6462 121.864 89.6462 118.659C89.6462 115.454 92.2443 112.856 95.4493 112.856Z" fill="white" stroke="white" stroke-width="0.5" stroke-linecap="round"></path>
  </symbol>
</svg>