<svg width="263" height="109" viewBox="0 0 263 109" fill="none" xmlns="http://www.w3.org/2000/svg">
<g clip-path="url(#clip0_107_4130)">
<path d="M84.7187 32.4821C85.9672 32.6325 87.1174 33.2283 87.9535 34.1579C88.7896 35.0874 89.2542 36.2868 89.26 37.5311V93.0539C89.2751 93.724 89.1454 94.3895 88.8796 95.006C88.6139 95.6224 88.2182 96.1757 87.7189 96.6287C86.9226 97.4491 85.8625 97.9697 84.7205 98.1011V107.621C84.7205 107.799 84.6493 107.97 84.5225 108.096C84.3957 108.222 84.2235 108.294 84.0437 108.295C83.8629 108.295 83.6894 108.224 83.5612 108.098C83.433 107.971 83.3605 107.8 83.3596 107.621V98.1011C82.2186 97.9679 81.1596 97.4476 80.3629 96.6287C79.8642 96.1755 79.469 95.6221 79.2039 95.0056C78.9387 94.3891 78.8097 93.7237 78.8255 93.0539V37.5311C78.8276 36.287 79.2899 35.0866 80.1252 34.1564C80.9605 33.2263 82.1109 32.6307 83.3596 32.4821V15.2291C83.3605 15.0504 83.4331 14.8794 83.5613 14.7535C83.6896 14.6277 83.863 14.5573 84.0437 14.5577C84.2233 14.5582 84.3955 14.6292 84.5224 14.755C84.6493 14.8809 84.7205 15.0514 84.7205 15.2291L84.7187 32.4821V32.4821Z" fill="url(#paint0_linear_107_4130)"/>
<path d="M66.1112 18.2172C67.3576 18.3713 68.5049 18.9684 69.3394 19.8973C70.1739 20.8262 70.6386 22.0235 70.647 23.2662V78.789C70.6623 79.4585 70.5327 80.1235 70.2669 80.7395C70.0011 81.3554 69.6053 81.908 69.106 82.3602C68.312 83.1823 67.2528 83.7044 66.1112 83.8362V97.5882C66.1088 97.72 66.0676 97.8482 65.9927 97.9572C65.9177 98.0661 65.8122 98.1511 65.6891 98.2015C65.566 98.252 65.4307 98.2658 65.2998 98.2413C65.1689 98.2167 65.0481 98.1549 64.9522 98.0634C64.8247 97.938 64.7528 97.7678 64.752 97.59V83.8362C63.6102 83.7033 62.5508 83.1815 61.7554 82.3602C61.2573 81.9076 60.8625 81.3552 60.5973 80.7396C60.3322 80.1241 60.2029 79.4597 60.218 78.7908V23.268C60.2219 22.0244 60.6846 20.8251 61.5191 19.8951C62.3536 18.9651 63.5026 18.3685 64.7502 18.2172V0.965986C64.7502 0.787442 64.8219 0.616211 64.9495 0.489961C65.0771 0.363712 65.2502 0.292786 65.4307 0.292786C65.6107 0.294197 65.783 0.365577 65.9103 0.491522C66.0376 0.617466 66.1097 0.787878 66.1112 0.965986V18.2172Z" fill="url(#paint1_linear_107_4130)"/>
<path d="M246.762 45.9984C246.177 45.9857 245.596 46.0913 245.053 46.3089C244.511 46.5265 244.02 46.8515 243.609 47.2638C243.201 47.6717 242.879 48.1561 242.662 48.6887C242.446 49.2212 242.339 49.7912 242.348 50.3652C242.328 51.1665 242.551 51.9553 242.989 52.6302C243.426 53.3051 244.057 53.8352 244.801 54.1524C247.126 55.0038 249.506 55.7094 251.92 56.2638C254.691 56.9033 257.27 58.1812 259.447 59.9934C261.8 62.22 262.981 65.3628 262.981 69.4686C262.986 71.3967 262.605 73.3068 261.861 75.0887C261.116 76.8706 260.023 78.4891 258.643 79.851C257.263 81.2143 255.625 82.2945 253.822 83.0297C252.019 83.7648 250.088 84.1405 248.138 84.135H237.023C236.348 84.1396 235.68 84.0086 235.058 83.7499C234.436 83.4912 233.874 83.1103 233.406 82.6302C232.91 82.175 232.518 81.6211 232.254 81.0049C231.991 80.3887 231.862 79.7243 231.877 79.0554V78.9708C231.89 77.6204 232.435 76.3282 233.396 75.3691C234.356 74.41 235.658 73.8597 237.023 73.8354H248.554C249.431 73.8456 250.291 73.5956 251.023 73.1175C251.754 72.6394 252.324 71.9552 252.659 71.1534C252.881 70.6206 252.992 70.05 252.988 69.474C252.985 68.717 252.752 67.9783 252.32 67.3537C251.888 66.7291 251.275 66.2475 250.563 65.9712C250.139 65.7858 247.754 65.0838 243.413 63.876C240.616 63.2149 238.026 61.8841 235.871 60.0006C233.518 57.7326 232.343 54.5232 232.343 50.3706C232.358 46.4834 233.928 42.7601 236.708 40.0134C239.49 37.2645 243.256 35.7132 247.188 35.697H255.033C256.407 35.7008 257.724 36.2426 258.695 37.2039C259.666 38.1651 260.214 39.4678 260.217 40.827V40.9134C260.235 41.582 260.109 42.2467 259.846 42.8632C259.584 43.4797 259.192 44.0337 258.696 44.4882C258.223 44.9753 257.653 45.3614 257.023 45.6227C256.394 45.884 255.716 46.0149 255.033 46.0074L246.762 45.9984V45.9984ZM182.448 101.42C181.091 101.405 179.794 100.865 178.833 99.9155C177.872 98.9665 177.325 97.6837 177.307 96.3408V59.8368C177.325 55.0524 178.78 50.3814 181.482 46.4142C183.507 43.4483 186.169 40.9622 189.279 39.1341C192.389 37.3059 195.869 36.181 199.47 35.8398C203.071 35.4987 206.704 35.9498 210.108 37.1609C213.512 38.3719 216.603 40.3129 219.159 42.8448C221.714 45.3763 223.669 48.437 224.884 51.8062C226.099 55.1755 226.544 58.7695 226.185 62.3291C225.827 65.8887 224.675 69.3254 222.812 72.3914C220.949 75.4574 218.422 78.0765 215.413 80.0598C211.386 82.717 206.655 84.1356 201.815 84.1368C195.641 84.1368 190.931 82.7346 187.736 79.9356V96.3408C187.711 97.6845 187.159 98.966 186.196 99.9141C185.234 100.862 183.936 101.402 182.578 101.42H182.448V101.42ZM201.815 73.7472C203.675 73.7646 205.521 73.4177 207.246 72.7263C208.97 72.0349 210.54 71.0128 211.863 69.7188C213.856 67.7697 215.214 65.2763 215.765 62.5582C216.315 59.8402 216.032 57.0215 214.953 54.4635C213.873 51.9055 212.045 49.7249 209.705 48.2013C207.364 46.6777 204.616 45.8805 201.815 45.912C199.033 45.917 196.315 46.7352 194.003 48.2638C191.69 49.7925 189.886 51.9633 188.816 54.5034C187.749 57.0421 187.464 59.8364 187.998 62.5349C188.532 65.2333 189.861 67.7152 191.817 69.6684C193.111 70.9901 194.667 72.0342 196.387 72.7359C198.107 73.4376 199.954 73.7818 201.815 73.7472V73.7472ZM161.992 30.225C161.015 30.2302 160.051 29.9969 159.186 29.5457C158.321 29.0946 157.582 28.4395 157.034 27.6384C156.488 26.8369 156.15 25.914 156.051 24.952C155.952 23.99 156.096 23.0188 156.468 22.1249C156.841 21.231 157.431 20.4422 158.187 19.8289C158.943 19.2155 159.84 18.7966 160.799 18.6096C161.758 18.4214 162.75 18.4703 163.685 18.752C164.621 19.0336 165.472 19.5393 166.163 20.2242C166.726 20.7599 167.175 21.4027 167.481 22.1141C167.788 22.8256 167.946 23.5909 167.946 24.3642C167.946 25.1375 167.788 25.9028 167.481 26.6143C167.175 27.3257 166.726 27.9685 166.163 28.5042C165.622 29.0567 164.974 29.4943 164.257 29.7902C163.54 30.0861 162.769 30.2341 161.992 30.225V30.225ZM162.038 35.6934C162.714 35.679 163.386 35.8059 164.009 36.0659C164.632 36.3258 165.193 36.7129 165.655 37.2018C166.144 37.6706 166.531 38.233 166.793 38.8547C167.055 39.4764 167.187 40.1444 167.18 40.818V79.0572C167.162 80.3998 166.614 81.6824 165.654 82.6313C164.694 83.5803 163.397 84.1205 162.04 84.1368H161.949C161.267 84.1463 160.591 84.0178 159.961 83.7593C159.332 83.5009 158.762 83.1179 158.288 82.6338C157.793 82.1778 157.4 81.624 157.135 81.0082C156.869 80.3923 156.738 79.7283 156.749 79.059V40.8162C156.746 40.142 156.881 39.4741 157.145 38.8527C157.41 38.2313 157.799 37.6692 158.288 37.2C158.762 36.7145 159.332 36.3302 159.961 36.0707C160.591 35.8113 161.268 35.6823 161.951 35.6916H162.038V35.6934ZM104.058 101.422C102.7 101.405 101.403 100.864 100.442 99.9158C99.4802 98.9674 98.9303 97.6856 98.9086 96.3426V59.8368C98.9268 55.0524 100.382 50.3814 103.084 46.4106C105.109 43.4435 107.772 40.9563 110.882 39.1272C113.993 37.2981 117.474 36.1724 121.076 35.8309C124.677 35.4894 128.311 35.9405 131.716 37.1519C135.121 38.3633 138.213 40.3049 140.77 42.8376C144.186 46.2251 146.511 50.5384 147.449 55.2323C148.388 59.9263 147.899 64.7902 146.045 69.2094C144.187 73.6304 141.047 77.4075 137.021 80.0634C132.993 82.7191 128.262 84.1365 123.422 84.1368C117.252 84.1368 112.542 82.7328 109.343 79.9338V96.3408C109.321 97.6847 108.771 98.9673 107.808 99.9158C106.846 100.864 105.547 101.404 104.189 101.42H104.059L104.058 101.422ZM123.42 73.749C125.281 73.7665 127.126 73.4196 128.851 72.7282C130.575 72.0368 132.144 71.0146 133.467 69.7206C134.788 68.4268 135.837 66.8866 136.553 65.1891C137.269 63.4917 137.638 61.6707 137.638 59.8314C137.638 57.9921 137.269 56.1711 136.553 54.4737C135.837 52.7762 134.788 51.2361 133.467 49.9422C132.144 48.6477 130.575 47.6252 128.851 46.9338C127.127 46.2424 125.281 45.8957 123.42 45.9138C120.64 45.9221 117.923 46.7419 115.611 48.2705C113.3 49.7991 111.495 51.9685 110.424 54.507C109.356 57.0452 109.072 59.8392 109.606 62.5371C110.14 65.235 111.469 67.7162 113.426 69.6684C114.721 70.9889 116.276 72.0322 117.995 72.7338C119.714 73.4354 121.561 73.7803 123.42 73.7472V73.749ZM25.4813 45.9984C23.6218 45.9657 21.7754 46.311 20.0563 47.0129C18.3371 47.7148 16.782 48.7584 15.4871 50.079C12.8723 52.7091 11.4069 56.2504 11.4069 59.9394C11.4069 63.6285 12.8723 67.1698 15.4871 69.7998C16.79 71.1063 18.3474 72.1377 20.065 72.8313C21.7825 73.525 23.6246 73.8666 25.4795 73.8354C28.27 73.8499 31.0015 73.0407 33.3247 71.5112C35.6479 69.9818 37.4572 67.8016 38.5212 65.2494C39.2254 63.5556 39.582 61.7394 39.5711 59.907C39.6016 58.0766 39.2512 56.2595 38.5416 54.5687C37.832 52.878 36.7784 51.3497 35.4464 50.079C34.1563 48.7596 32.6059 47.7165 30.8913 47.0146C29.1768 46.3126 27.3347 45.9667 25.4795 45.9984H25.4813ZM25.4813 35.6916C28.7077 35.6445 31.9097 36.2509 34.8904 37.4736C37.8711 38.6964 40.5673 40.5096 42.8133 42.8016C45.128 45.0166 46.9601 47.6769 48.1967 50.6186C49.4332 53.5604 50.0482 56.7213 50.0038 59.907V79.059C50.018 79.728 49.8893 80.3925 49.6259 81.0089C49.3625 81.6252 48.9704 82.1796 48.4754 82.6356C48.0062 83.1146 47.4439 83.4947 46.8223 83.753C46.2006 84.0113 45.5326 84.1425 44.8584 84.1386H44.7292C44.0549 84.145 43.3864 84.0149 42.7647 83.7565C42.143 83.498 41.5813 83.1166 41.114 82.6356C40.6147 82.1821 40.2189 81.6285 39.9529 81.0118C39.6868 80.3951 39.5567 79.7294 39.5711 79.059C36.3452 82.4466 31.6492 84.1386 25.4795 84.1386C22.256 84.1851 19.0569 83.5791 16.0788 82.3576C13.1008 81.1361 10.4066 79.3251 8.16199 77.0358C5.88327 74.7909 4.07495 72.1231 2.84073 69.1852C1.60651 66.2474 0.970689 63.0975 0.969727 59.916C0.969236 56.7346 1.6044 53.5845 2.83871 50.6468C4.07302 47.709 5.88212 45.0417 8.16199 42.798C10.4056 40.5072 13.0995 38.695 16.0777 37.4732C19.056 36.2513 22.2556 35.6456 25.4795 35.6934V35.6916H25.4813Z" fill="#54279D"/>
</g>
<defs>
<linearGradient id="paint0_linear_107_4130" x1="78.8237" y1="89.7347" x2="78.8237" y2="15.2147" gradientUnits="userSpaceOnUse">
<stop stop-color="#F50057"/>
<stop offset="1" stop-color="#651FFF"/>
</linearGradient>
<linearGradient id="paint1_linear_107_4130" x1="60.2162" y1="0.782386" x2="60.2162" y2="97.1814" gradientUnits="userSpaceOnUse">
<stop stop-color="#F50057"/>
<stop offset="1" stop-color="#651FFF"/>
</linearGradient>
<clipPath id="clip0_107_4130">
<rect width="262" height="108" fill="white" transform="translate(0.973633 0.292786)"/>
</clipPath>
</defs>
</svg>
