<svg width="130" height="100" class="hidden">
  <symbol
    fill="none"
    xmlns="http://www.w3.org/2000/svg"
    viewBox="0 0 90 101"
    id="icon-cloud"
  >
    <path
      d="M75.0931 20.1855C73.7615 8.91872 64.1756 0.179321 52.5472 0.179321C40.9187 0.179321 31.3329 8.91872 30.0014 20.1855C21.9293 20.1855 15.3848 26.727 15.3848 34.7965C15.3848 42.866 21.9284 49.4076 30.0005 49.4076H75.094C83.1661 49.4076 89.7098 42.866 89.7098 34.7965C89.7098 26.727 83.1653 20.1855 75.0931 20.1855Z"
      fill="url(#paint0_linear_441_165)"
    />
    <path
      fill-rule="evenodd"
      clip-rule="evenodd"
      d="M40.947 92.844C40.947 92.8548 40.9473 92.8655 40.948 92.8761C39.2155 93.1002 37.8431 94.4726 37.6191 96.2051H17.7998C17.5237 96.2051 17.2998 96.429 17.2998 96.7051C17.2998 96.9812 17.5237 97.2051 17.7998 97.2051H37.6191C37.8643 99.1013 39.4852 100.566 41.4481 100.566C43.411 100.566 45.0319 99.1013 45.2771 97.2051H64.6149C64.891 97.2051 65.1149 96.9812 65.1149 96.7051C65.1149 96.429 64.891 96.2051 64.6149 96.2051H45.2771C45.053 94.4719 43.6795 93.099 41.946 92.8758C41.9467 92.8653 41.947 92.8547 41.947 92.844L41.947 54.2336C41.947 53.9575 41.7231 53.7336 41.447 53.7336C41.1708 53.7336 40.947 53.9575 40.947 54.2336L40.947 92.844ZM41.4481 99.5661C43.0282 99.5661 44.3091 98.2852 44.3091 96.7051C44.3091 95.125 43.0282 93.844 41.4481 93.844C39.868 93.844 38.5871 95.125 38.5871 96.7051C38.5871 98.2852 39.868 99.5661 41.4481 99.5661Z"
      fill="white"
    />
    <g filter="url(#filter0_b_441_165)">
      <path
        d="M64.4918 23.2631C63.0736 11.2608 52.8654 1.95093 40.4818 1.95093C28.0982 1.95093 17.89 11.2608 16.472 23.2631C7.8757 23.2631 0.90625 30.2316 0.90625 38.8279C0.90625 47.4242 7.8748 54.3928 16.4711 54.3928H64.4927C73.089 54.3928 80.0575 47.4242 80.0575 38.8279C80.0575 30.2316 73.0881 23.2631 64.4918 23.2631Z"
        fill="url(#paint1_linear_441_165)"
      />
      <path
        d="M63.9952 23.3218L64.0474 23.7631H64.4918C72.812 23.7631 79.5575 30.5078 79.5575 38.8279C79.5575 47.1481 72.8128 53.8928 64.4927 53.8928H16.4711C8.15094 53.8928 1.40625 47.1481 1.40625 38.8279C1.40625 30.5078 8.15181 23.7631 16.472 23.7631H16.9164L16.9686 23.3218C18.3571 11.5682 28.3547 2.45093 40.4818 2.45093C52.6089 2.45093 62.6065 11.5682 63.9952 23.3218Z"
        stroke="white"
      />
    </g>
    <rect
      x="16.3506"
      y="60.0254"
      width="48.263"
      height="8.68734"
      rx="4.34367"
      fill="url(#paint2_linear_441_165)"
    />
    <rect
      x="16.3506"
      y="70.6432"
      width="48.263"
      height="8.68734"
      rx="4.34367"
      fill="url(#paint3_linear_441_165)"
    />
    <rect
      x="16.3506"
      y="81.2612"
      width="48.263"
      height="8.68734"
      rx="4.34367"
      fill="url(#paint4_linear_441_165)"
    />
    <circle cx="21.1766" cy="64.8518" r="1.93052" fill="white" />
    <circle cx="22.1424" cy="75.4695" r="1.93052" fill="white" />
    <circle cx="22.1424" cy="86.0874" r="1.93052" fill="white" />
    <circle cx="26.9676" cy="64.8518" r="1.93052" fill="white" />
    <circle cx="26.9676" cy="75.4696" r="1.93052" fill="white" />
    <circle cx="26.9676" cy="86.0874" r="1.93052" fill="white" />
    <circle cx="31.7948" cy="64.8518" r="1.93052" fill="white" />
    <circle cx="31.7948" cy="75.4695" r="1.93052" fill="white" />
    <circle cx="31.7948" cy="86.0874" r="1.93052" fill="white" />
    <g filter="url(#filter1_b_441_165)">
      <rect
        x="42.4121"
        y="58.095"
        width="26.062"
        height="6.75682"
        rx="3.37841"
        fill="url(#paint5_linear_441_165)"
      />
      <rect
        x="42.5121"
        y="58.195"
        width="25.862"
        height="6.55682"
        rx="3.27841"
        stroke="white"
        stroke-width="0.2"
      />
    </g>
    <g filter="url(#filter2_b_441_165)">
      <rect
        x="42.4121"
        y="68.7128"
        width="26.062"
        height="6.75682"
        rx="3.37841"
        fill="url(#paint6_linear_441_165)"
      />
      <rect
        x="42.5121"
        y="68.8128"
        width="25.862"
        height="6.55682"
        rx="3.27841"
        stroke="white"
        stroke-width="0.2"
      />
    </g>
    <g filter="url(#filter3_b_441_165)">
      <rect
        x="42.4121"
        y="78.3654"
        width="26.062"
        height="6.75682"
        rx="3.37841"
        fill="url(#paint7_linear_441_165)"
      />
      <rect
        x="42.5121"
        y="78.4654"
        width="25.862"
        height="6.55682"
        rx="3.27841"
        stroke="white"
        stroke-width="0.2"
      />
    </g>
    <defs>
      <filter
        id="filter0_b_441_165"
        x="-3.09375"
        y="-2.04907"
        width="87.1514"
        height="60.4419"
        filterUnits="userSpaceOnUse"
        color-interpolation-filters="sRGB"
      >
        <feFlood flood-opacity="0" result="BackgroundImageFix" />
        <feGaussianBlur in="BackgroundImage" stdDeviation="2" />
        <feComposite
          in2="SourceAlpha"
          operator="in"
          result="effect1_backgroundBlur_441_165"
        />
        <feBlend
          mode="normal"
          in="SourceGraphic"
          in2="effect1_backgroundBlur_441_165"
          result="shape"
        />
      </filter>
      <filter
        id="filter1_b_441_165"
        x="38.4121"
        y="54.095"
        width="34.0615"
        height="14.7568"
        filterUnits="userSpaceOnUse"
        color-interpolation-filters="sRGB"
      >
        <feFlood flood-opacity="0" result="BackgroundImageFix" />
        <feGaussianBlur in="BackgroundImage" stdDeviation="2" />
        <feComposite
          in2="SourceAlpha"
          operator="in"
          result="effect1_backgroundBlur_441_165"
        />
        <feBlend
          mode="normal"
          in="SourceGraphic"
          in2="effect1_backgroundBlur_441_165"
          result="shape"
        />
      </filter>
      <filter
        id="filter2_b_441_165"
        x="38.4121"
        y="64.7128"
        width="34.0615"
        height="14.7568"
        filterUnits="userSpaceOnUse"
        color-interpolation-filters="sRGB"
      >
        <feFlood flood-opacity="0" result="BackgroundImageFix" />
        <feGaussianBlur in="BackgroundImage" stdDeviation="2" />
        <feComposite
          in2="SourceAlpha"
          operator="in"
          result="effect1_backgroundBlur_441_165"
        />
        <feBlend
          mode="normal"
          in="SourceGraphic"
          in2="effect1_backgroundBlur_441_165"
          result="shape"
        />
      </filter>
      <filter
        id="filter3_b_441_165"
        x="38.4121"
        y="74.3654"
        width="34.0615"
        height="14.7568"
        filterUnits="userSpaceOnUse"
        color-interpolation-filters="sRGB"
      >
        <feFlood flood-opacity="0" result="BackgroundImageFix" />
        <feGaussianBlur in="BackgroundImage" stdDeviation="2" />
        <feComposite
          in2="SourceAlpha"
          operator="in"
          result="effect1_backgroundBlur_441_165"
        />
        <feBlend
          mode="normal"
          in="SourceGraphic"
          in2="effect1_backgroundBlur_441_165"
          result="shape"
        />
      </filter>
      <linearGradient
        id="paint0_linear_441_165"
        x1="42.2801"
        y1="-6.38006"
        x2="98.7916"
        y2="61.7366"
        gradientUnits="userSpaceOnUse"
      >
        <stop stop-color="#1DE5E2" />
        <stop offset="1" stop-color="#B588F7" />
      </linearGradient>
      <linearGradient
        id="paint1_linear_441_165"
        x1="40.4819"
        y1="-18.1606"
        x2="40.4819"
        y2="84.1569"
        gradientUnits="userSpaceOnUse"
      >
        <stop stop-color="white" />
        <stop offset="1" stop-color="white" stop-opacity="0" />
      </linearGradient>
      <linearGradient
        id="paint2_linear_441_165"
        x1="33.8151"
        y1="58.8679"
        x2="38.1693"
        y2="78.1803"
        gradientUnits="userSpaceOnUse"
      >
        <stop stop-color="#1DE5E2" />
        <stop offset="1" stop-color="#B588F7" />
      </linearGradient>
      <linearGradient
        id="paint3_linear_441_165"
        x1="33.8151"
        y1="69.4857"
        x2="38.1693"
        y2="88.7981"
        gradientUnits="userSpaceOnUse"
      >
        <stop stop-color="#1DE5E2" />
        <stop offset="1" stop-color="#B588F7" />
      </linearGradient>
      <linearGradient
        id="paint4_linear_441_165"
        x1="33.8151"
        y1="80.1037"
        x2="38.1693"
        y2="99.4161"
        gradientUnits="userSpaceOnUse"
      >
        <stop stop-color="#1DE5E2" />
        <stop offset="1" stop-color="#B588F7" />
      </linearGradient>
      <linearGradient
        id="paint5_linear_441_165"
        x1="55.4431"
        y1="58.095"
        x2="55.4431"
        y2="64.8518"
        gradientUnits="userSpaceOnUse"
      >
        <stop stop-color="white" />
        <stop offset="1" stop-color="white" stop-opacity="0" />
      </linearGradient>
      <linearGradient
        id="paint6_linear_441_165"
        x1="55.4431"
        y1="68.7128"
        x2="55.4431"
        y2="75.4696"
        gradientUnits="userSpaceOnUse"
      >
        <stop stop-color="white" />
        <stop offset="1" stop-color="white" stop-opacity="0" />
      </linearGradient>
      <linearGradient
        id="paint7_linear_441_165"
        x1="55.4431"
        y1="78.3654"
        x2="55.4431"
        y2="85.1222"
        gradientUnits="userSpaceOnUse"
      >
        <stop stop-color="white" />
        <stop offset="1" stop-color="white" stop-opacity="0" />
      </linearGradient>
    </defs>
  </symbol>
  <symbol
    fill="none"
    xmlns="http://www.w3.org/2000/svg"
    viewBox="0 0 111 101"
    id="icon-computer"
  >
    <rect
      x="34.5918"
      y="3.27551"
      width="76.2857"
      height="77.1429"
      rx="1"
      fill="url(#paint0_linear_441_134)"
    />
    <g filter="url(#filter0_b_441_134)">
      <mask id="path-2-inside-1_441_134" fill="white">
        <path
          fill-rule="evenodd"
          clip-rule="evenodd"
          d="M45.4922 83.2755C44.3876 83.2755 43.4922 84.1709 43.4922 85.2755V95.5612C43.4922 96.6589 44.3765 97.5501 45.4716 97.5611H29.6629C28.874 97.5611 28.2344 98.2007 28.2344 98.9897C28.2344 99.7787 28.874 100.418 29.6629 100.418H85.2915C86.0805 100.418 86.7201 99.7787 86.7201 98.9897C86.7201 98.2007 86.0805 97.5611 85.2915 97.5611H66.9414C68.0364 97.5501 68.9208 96.6589 68.9208 95.5612V85.2755C68.9208 84.1709 68.0253 83.2755 66.9208 83.2755H45.4922Z"
        />
      </mask>
      <path
        fill-rule="evenodd"
        clip-rule="evenodd"
        d="M45.4922 83.2755C44.3876 83.2755 43.4922 84.1709 43.4922 85.2755V95.5612C43.4922 96.6589 44.3765 97.5501 45.4716 97.5611H29.6629C28.874 97.5611 28.2344 98.2007 28.2344 98.9897C28.2344 99.7787 28.874 100.418 29.6629 100.418H85.2915C86.0805 100.418 86.7201 99.7787 86.7201 98.9897C86.7201 98.2007 86.0805 97.5611 85.2915 97.5611H66.9414C68.0364 97.5501 68.9208 96.6589 68.9208 95.5612V85.2755C68.9208 84.1709 68.0253 83.2755 66.9208 83.2755H45.4922Z"
        fill="url(#paint1_linear_441_134)"
      />
      <path
        d="M45.4716 97.5611V98.0611L45.4766 97.0612L45.4716 97.5611ZM66.9414 97.5611L66.9363 97.0612L66.9414 98.0611V97.5611ZM43.9922 85.2755C43.9922 84.4471 44.6638 83.7755 45.4922 83.7755V82.7755C44.1115 82.7755 42.9922 83.8948 42.9922 85.2755H43.9922ZM43.9922 95.5612V85.2755H42.9922V95.5612H43.9922ZM45.4766 97.0612C44.6554 97.0529 43.9922 96.3845 43.9922 95.5612H42.9922C42.9922 96.9334 44.0976 98.0473 45.4665 98.0611L45.4766 97.0612ZM29.6629 98.0611H45.4716V97.0611H29.6629V98.0611ZM28.7344 98.9897C28.7344 98.4769 29.1501 98.0611 29.6629 98.0611V97.0611C28.5978 97.0611 27.7344 97.9246 27.7344 98.9897H28.7344ZM29.6629 99.9183C29.1501 99.9183 28.7344 99.5025 28.7344 98.9897H27.7344C27.7344 100.055 28.5978 100.918 29.6629 100.918V99.9183ZM85.2915 99.9183H29.6629V100.918H85.2915V99.9183ZM86.2201 98.9897C86.2201 99.5025 85.8044 99.9183 85.2915 99.9183V100.918C86.3566 100.918 87.2201 100.055 87.2201 98.9897H86.2201ZM85.2915 98.0611C85.8044 98.0611 86.2201 98.4769 86.2201 98.9897H87.2201C87.2201 97.9246 86.3566 97.0611 85.2915 97.0611V98.0611ZM66.9414 98.0611H85.2915V97.0611H66.9414V98.0611ZM68.4208 95.5612C68.4208 96.3845 67.7575 97.0529 66.9363 97.0612L66.9464 98.0611C68.3154 98.0473 69.4208 96.9334 69.4208 95.5612H68.4208ZM68.4208 85.2755V95.5612H69.4208V85.2755H68.4208ZM66.9208 83.7755C67.7492 83.7755 68.4208 84.4471 68.4208 85.2755H69.4208C69.4208 83.8948 68.3015 82.7755 66.9208 82.7755V83.7755ZM45.4922 83.7755H66.9208V82.7755H45.4922V83.7755Z"
        fill="white"
        mask="url(#path-2-inside-1_441_134)"
      />
    </g>
    <g filter="url(#filter1_b_441_134)">
      <path
        fill-rule="evenodd"
        clip-rule="evenodd"
        d="M12.9775 13.8469C12.9775 12.7424 13.873 11.8469 14.9775 11.8469H99.9775C101.082 11.8469 101.978 12.7424 101.978 13.8469V85.5613C101.978 86.6658 101.082 87.5613 99.9775 87.5613H14.9775C13.873 87.5613 12.9775 86.6658 12.9775 85.5613V13.8469Z"
        fill="url(#paint2_linear_441_134)"
      />
    </g>
    <ellipse cx="39.7637" cy="7.72177" rx="1.5" ry="1.68539" fill="white" />
    <rect
      x="45.2637"
      y="7.15991"
      width="52"
      height="1.1236"
      rx="0.561798"
      fill="white"
    />
    <path
      d="M29.9459 20.25L28.6582 19.4203C28.3436 19.2176 28.1712 18.8563 28.193 18.4827C28.2109 18.178 28.22 17.8708 28.22 17.5613C28.22 17.2517 28.2108 16.9444 28.193 16.6397C28.1712 16.2661 28.3436 15.9048 28.6582 15.7021L29.9459 14.8724C30.3305 14.6246 30.6056 14.2243 30.7206 13.7452C30.8355 13.2663 30.7765 12.7661 30.5544 12.3367L27.0917 5.64287C26.7954 5.07002 26.2429 4.71431 25.6497 4.71431C25.3594 4.71431 25.0725 4.80051 24.8198 4.96327L23.6265 5.7322C23.2618 5.96721 22.7895 5.93692 22.4387 5.6816C22.0395 5.39103 21.6249 5.12485 21.1965 4.88495C20.8645 4.69909 20.6469 4.35469 20.6469 3.97427V2.27462C20.6469 1.25106 19.9008 0.418335 18.9838 0.418335H12.0581C11.141 0.418335 10.3948 1.25106 10.3948 2.27462V3.97427C10.3948 4.35469 10.1772 4.69909 9.84528 4.88496C9.41683 5.12487 9.00217 5.39108 8.60298 5.68167C8.25221 5.93702 7.77988 5.96733 7.41516 5.73233L6.22194 4.96351C5.96931 4.80063 5.68237 4.71443 5.39206 4.71443C4.79882 4.71443 4.2463 5.07014 3.94999 5.64298L0.487249 12.3367C0.265126 12.766 0.206096 13.2663 0.320998 13.7452C0.436111 14.2243 0.711161 14.6245 1.09575 14.8724L2.38339 15.7021C2.698 15.9048 2.87041 16.2661 2.84858 16.6397C2.83078 16.9444 2.82159 17.2517 2.82159 17.5613C2.82159 17.8708 2.83078 18.1781 2.84858 18.4827C2.87041 18.8563 2.69799 19.2176 2.38337 19.4204L1.09575 20.25C0.711161 20.4978 0.436111 20.898 0.320998 21.3772C0.206096 21.8561 0.265126 22.3565 0.487249 22.7857L3.94989 29.4795C4.24619 30.0524 4.79871 30.4081 5.39195 30.4081C5.68226 30.4081 5.96909 30.322 6.22184 30.1591L7.41509 29.3902C7.77979 29.1552 8.25211 29.1855 8.60289 29.4408C9.00209 29.7314 9.41673 29.9976 9.84517 30.2375C10.1771 30.4233 10.3947 30.7677 10.3947 31.1481V32.8479C10.3947 33.3437 10.5677 33.8097 10.882 34.1604C11.1961 34.5109 11.6138 34.7041 12.058 34.7041H18.9837C19.9007 34.7041 20.6469 33.8715 20.6469 32.8479V31.148C20.6469 30.7677 20.8645 30.4233 21.1963 30.2375C21.6248 29.9975 22.0394 29.7314 22.4386 29.4408C22.7894 29.1855 23.2617 29.1552 23.6265 29.3902L24.8198 30.159C25.0724 30.3219 25.3594 30.408 25.6497 30.408C26.2429 30.408 26.7954 30.0523 27.0917 29.4794L30.5544 22.7856C30.7765 22.3563 30.8355 21.856 30.7206 21.3771C30.6056 20.898 30.3306 20.4978 29.9459 20.25ZM15.5209 24.1011C12.2847 24.1011 9.66122 21.173 9.66122 17.5613C9.66122 13.9496 12.2848 11.0215 15.5209 11.0215C18.757 11.0215 21.3806 13.9496 21.3806 17.5613C21.3806 21.173 18.757 24.1011 15.5209 24.1011Z"
      fill="url(#paint3_linear_441_134)"
    />
    <defs>
      <filter
        id="filter0_b_441_134"
        x="21.2344"
        y="76.2755"
        width="72.4854"
        height="31.1428"
        filterUnits="userSpaceOnUse"
        color-interpolation-filters="sRGB"
      >
        <feFlood flood-opacity="0" result="BackgroundImageFix" />
        <feGaussianBlur in="BackgroundImage" stdDeviation="3.5" />
        <feComposite
          in2="SourceAlpha"
          operator="in"
          result="effect1_backgroundBlur_441_134"
        />
        <feBlend
          mode="normal"
          in="SourceGraphic"
          in2="effect1_backgroundBlur_441_134"
          result="shape"
        />
      </filter>
      <filter
        id="filter1_b_441_134"
        x="4.97754"
        y="3.84692"
        width="105"
        height="91.7144"
        filterUnits="userSpaceOnUse"
        color-interpolation-filters="sRGB"
      >
        <feFlood flood-opacity="0" result="BackgroundImageFix" />
        <feGaussianBlur in="BackgroundImage" stdDeviation="4" />
        <feComposite
          in2="SourceAlpha"
          operator="in"
          result="effect1_backgroundBlur_441_134"
        />
        <feBlend
          mode="normal"
          in="SourceGraphic"
          in2="effect1_backgroundBlur_441_134"
          result="shape"
        />
      </filter>
      <linearGradient
        id="paint0_linear_441_134"
        x1="62.1966"
        y1="-7.00333"
        x2="149.842"
        y2="62.1911"
        gradientUnits="userSpaceOnUse"
      >
        <stop stop-color="#1DE5E2" />
        <stop offset="1" stop-color="#B588F7" />
      </linearGradient>
      <linearGradient
        id="paint1_linear_441_134"
        x1="59.566"
        y1="79.2663"
        x2="61.1679"
        y2="112.368"
        gradientUnits="userSpaceOnUse"
      >
        <stop stop-color="white" />
        <stop offset="1" stop-color="white" stop-opacity="0" />
      </linearGradient>
      <linearGradient
        id="paint2_linear_441_134"
        x1="246.972"
        y1="-44.3466"
        x2="246.972"
        y2="151.092"
        gradientUnits="userSpaceOnUse"
      >
        <stop stop-color="white" />
        <stop offset="1" stop-color="white" stop-opacity="0" />
      </linearGradient>
      <linearGradient
        id="paint3_linear_441_134"
        x1="11.3056"
        y1="-4.15004"
        x2="49.1226"
        y2="22.7202"
        gradientUnits="userSpaceOnUse"
      >
        <stop stop-color="#1DE5E2" />
        <stop offset="1" stop-color="#B588F7" />
      </linearGradient>
    </defs>
  </symbol>
  <symbol
    fill="none"
    xmlns="http://www.w3.org/2000/svg"
    viewBox="0 0 116 101"
    id="icon-descrount"
  >
    <path
      d="M71.4698 0.415283C77.0263 0.415283 81.5271 6.55547 86.4539 8.66441C91.3807 10.7734 99.0858 9.61624 102.827 13.6102C106.569 17.6041 105.624 24.9387 107.735 30.1084C109.847 35.2781 115.922 39.608 115.922 45.207C115.922 50.8059 109.828 55.3411 107.735 60.3055C105.642 65.2699 106.791 73.0338 102.827 76.8037C98.8635 80.5737 91.5844 79.6592 86.4539 81.7495C81.3234 83.8398 77.0263 89.9986 71.4698 89.9986C65.9133 89.9986 61.4125 83.8584 56.4857 81.7495C51.5589 79.6406 43.8539 80.7977 40.1125 76.8037C36.3711 72.8098 37.2786 65.4752 35.2042 60.3055C33.1298 55.1358 27.0176 50.8059 27.0176 45.207C27.0176 39.608 33.1112 35.0728 35.2042 30.1084C37.2972 25.144 36.1488 17.3801 40.1125 13.6102C44.0761 9.8402 51.3552 10.7547 56.4857 8.66441C61.6162 6.57413 65.9133 0.415283 71.4698 0.415283Z"
      fill="url(#paint0_linear_441_188)"
    />
    <g filter="url(#filter0_b_441_188)">
      <path
        d="M49.7598 0.415283C55.9624 0.415283 60.9865 7.26945 66.4862 9.62361C71.9859 11.9778 80.5869 10.6861 84.7633 15.1444C88.9398 19.6028 87.8853 27.7903 90.2423 33.5611C92.5993 39.3319 99.3809 44.1653 99.3809 50.4153C99.3809 56.6653 92.5786 61.7278 90.2423 67.2694C87.906 72.8111 89.1879 81.4778 84.7633 85.6861C80.3388 89.8944 72.2133 88.8736 66.4862 91.207C60.7591 93.5403 55.9624 100.415 49.7598 100.415C43.5571 100.415 38.533 93.5611 33.0333 91.207C27.5337 88.8528 18.9327 90.1444 14.7562 85.6861C10.5798 81.2278 11.5929 73.0403 9.27722 67.2694C6.96157 61.4986 0.138672 56.6653 0.138672 50.4153C0.138672 44.1653 6.94089 39.1028 9.27722 33.5611C11.6135 28.0194 10.3317 19.3528 14.7562 15.1444C19.1808 10.9361 27.3062 11.9569 33.0333 9.62361C38.7604 7.29028 43.5571 0.415283 49.7598 0.415283Z"
        fill="url(#paint1_linear_441_188)"
      />
      <path
        d="M49.7598 0.665283C52.772 0.665283 55.5201 2.33056 58.2381 4.33774C58.8594 4.79655 59.4762 5.27088 60.0931 5.74531C60.1488 5.78811 60.2044 5.83091 60.2601 5.8737C60.9319 6.39017 61.6041 6.90488 62.2779 7.39397C63.6244 8.37133 64.9873 9.25394 66.3878 9.85344C67.7898 10.4536 69.3813 10.8182 71.033 11.0989C71.9557 11.2558 72.9148 11.3889 73.8727 11.5218C74.6157 11.625 75.358 11.728 76.0821 11.8419C79.4432 12.3708 82.5568 13.1547 84.5809 15.3154C86.6127 17.4843 87.3854 20.5761 87.9385 23.9016C88.0534 24.5927 88.1589 25.2944 88.2647 25.9986C88.6637 28.6546 89.0683 31.3479 90.0109 33.6556C90.9564 35.9706 92.6065 38.1403 94.2315 40.2771C94.6585 40.8385 95.0837 41.3976 95.4939 41.9564C97.4833 44.6665 99.1309 47.3789 99.1309 50.4153C99.1309 53.4525 97.4773 56.2225 95.4855 58.9609C95.0303 59.5869 94.5596 60.2083 94.0888 60.8299L93.9612 60.9984C93.4486 61.6754 92.9378 62.3527 92.4525 63.0316C91.4825 64.3883 90.6068 65.7615 90.0119 67.1723C89.4166 68.5845 89.0548 70.1878 88.7762 71.8519C88.6206 72.7816 88.4885 73.7478 88.3566 74.7128C88.2542 75.4615 88.152 76.2096 88.0388 76.9395C87.5139 80.3267 86.7357 83.4651 84.591 85.505C82.4387 87.5522 79.3708 88.3408 76.0712 88.9032C75.3625 89.024 74.6425 89.1343 73.92 89.245C71.3073 89.6453 68.6614 90.0508 66.3919 90.9754C64.0784 91.918 61.9114 93.5932 59.7775 95.243C59.234 95.6631 58.6927 96.0816 58.1517 96.4859C55.4614 98.4962 52.7708 100.165 49.7598 100.165C46.7475 100.165 43.9994 98.5 41.2814 96.4928C40.66 96.0339 40.0431 95.5595 39.426 95.0849L39.2594 94.9569C38.5876 94.4404 37.9154 93.9257 37.2416 93.4366C35.8952 92.4592 34.5322 91.5766 33.1317 90.9771C31.7297 90.377 30.1382 90.0124 28.4866 89.7316C27.5638 89.5748 26.6048 89.4417 25.6469 89.3087C24.9038 89.2056 24.1615 89.1026 23.4374 88.9886C20.0763 88.4598 16.9627 87.6758 14.9387 85.5152C12.9066 83.3459 12.1236 80.2537 11.5655 76.9286C11.4456 76.2142 11.3361 75.4886 11.2262 74.7605C10.8289 72.128 10.4267 69.4627 9.50924 67.1763C8.57399 64.8456 6.91173 62.6625 5.27454 60.5123C4.85757 59.9646 4.44222 59.4191 4.04092 58.8739C2.04609 56.1634 0.388672 53.4513 0.388672 50.4153C0.388672 47.3781 2.04228 44.608 4.034 41.8696C4.48937 41.2436 4.96014 40.622 5.431 40.0003C5.47345 39.9442 5.5159 39.8882 5.55834 39.8321C6.07089 39.1552 6.5817 38.4779 7.06706 37.799C8.03701 36.4422 8.91278 35.0691 9.50758 33.6582C10.103 32.246 10.4647 30.6428 10.7433 28.9787C10.899 28.0489 11.0311 27.0827 11.163 26.1177C11.2653 25.369 11.3676 24.6209 11.4807 23.8911C12.0056 20.5039 12.7839 17.3655 14.9285 15.3256C17.0809 13.2784 20.1488 12.4897 23.4483 11.9274C24.1571 11.8066 24.877 11.6962 25.5995 11.5855C28.2122 11.1852 30.8581 10.7798 33.1277 9.85513C35.4412 8.91256 37.6082 7.2373 39.7421 5.58759C40.2855 5.16746 40.8268 4.749 41.3679 4.34471C44.0582 2.33438 46.7487 0.665283 49.7598 0.665283Z"
        stroke="white"
        stroke-width="0.5"
      />
    </g>
    <path
      d="M41.4486 53.2555C41.4486 58.4502 40.6005 62.2954 38.9045 64.7911C37.2219 67.2868 34.624 68.5346 31.1108 68.5346C27.7053 68.5346 25.1343 67.2461 23.3979 64.669C21.675 62.092 20.8135 58.2875 20.8135 53.2555C20.8135 48.0064 21.6548 44.1409 23.3373 41.6588C25.0199 39.1631 27.6111 37.9153 31.1108 37.9153C34.5164 37.9153 37.0873 39.2174 38.8237 41.8215C40.5736 44.4257 41.4486 48.237 41.4486 53.2555ZM27.0121 53.2555C27.0121 56.904 27.3217 59.5217 27.9409 61.1086C28.5735 62.682 29.6302 63.4687 31.1108 63.4687C32.5646 63.4687 33.6145 62.6684 34.2606 61.068C34.9067 59.4675 35.2298 56.8633 35.2298 53.2555C35.2298 49.6069 34.9 46.9892 34.2404 45.4023C33.5943 43.8018 32.5511 43.0015 31.1108 43.0015C29.6436 43.0015 28.5937 43.8018 27.961 45.4023C27.3284 46.9892 27.0121 49.6069 27.0121 53.2555Z"
      fill="url(#paint2_linear_441_188)"
    />
    <path
      d="M49.3028 47.2944C49.3028 49.0169 49.4509 50.3054 49.747 51.1599C50.0566 52.0008 50.5479 52.4213 51.2209 52.4213C52.5132 52.4213 53.1593 50.7123 53.1593 47.2944C53.1593 43.9035 52.5132 42.2081 51.2209 42.2081C50.5479 42.2081 50.0566 42.6286 49.747 43.4695C49.4509 44.2968 49.3028 45.5718 49.3028 47.2944ZM58.2474 47.2537C58.2474 50.3732 57.6484 52.7197 56.4504 54.293C55.2524 55.8528 53.4958 56.6327 51.1806 56.6327C48.9596 56.6327 47.2433 55.8325 46.0319 54.232C44.8204 52.618 44.2147 50.2919 44.2147 47.2537C44.2147 41.0552 46.5367 37.956 51.1806 37.956C53.4554 37.956 55.1985 38.763 56.41 40.377C57.6349 41.9775 58.2474 44.2697 58.2474 47.2537ZM72.1387 38.3832L55.7639 68.1277H50.9181L67.2929 38.3832H72.1387ZM69.9783 59.1759C69.9783 60.8984 70.1263 62.1869 70.4225 63.0414C70.7321 63.8824 71.2234 64.3028 71.8964 64.3028C73.1886 64.3028 73.8347 62.5938 73.8347 59.1759C73.8347 55.785 73.1886 54.0896 71.8964 54.0896C71.2234 54.0896 70.7321 54.5101 70.4225 55.351C70.1263 56.1784 69.9783 57.4533 69.9783 59.1759ZM78.9228 59.1352C78.9228 62.2412 78.3238 64.5809 77.1258 66.1542C75.9278 67.714 74.1712 68.4939 71.856 68.4939C69.635 68.4939 67.9188 67.6937 66.7073 66.0932C65.4959 64.4791 64.8902 62.1598 64.8902 59.1352C64.8902 52.9367 67.2121 49.8375 71.856 49.8375C74.1308 49.8375 75.874 50.6445 77.0854 52.2585C78.3104 53.859 78.9228 56.1512 78.9228 59.1352Z"
      fill="url(#paint3_linear_441_188)"
    />
    <defs>
      <filter
        id="filter0_b_441_188"
        x="-3.86133"
        y="-3.58472"
        width="107.242"
        height="108"
        filterUnits="userSpaceOnUse"
        color-interpolation-filters="sRGB"
      >
        <feFlood flood-opacity="0" result="BackgroundImageFix" />
        <feGaussianBlur in="BackgroundImage" stdDeviation="2" />
        <feComposite
          in2="SourceAlpha"
          operator="in"
          result="effect1_backgroundBlur_441_188"
        />
        <feBlend
          mode="normal"
          in="SourceGraphic"
          in2="effect1_backgroundBlur_441_188"
          result="shape"
        />
      </filter>
      <linearGradient
        id="paint0_linear_441_188"
        x1="59.1886"
        y1="-11.5212"
        x2="161.052"
        y2="69.1853"
        gradientUnits="userSpaceOnUse"
      >
        <stop stop-color="#1DE5E2" />
        <stop offset="1" stop-color="#B588F7" />
      </linearGradient>
      <linearGradient
        id="paint1_linear_441_188"
        x1="49.7597"
        y1="-51.668"
        x2="49.7597"
        y2="125.415"
        gradientUnits="userSpaceOnUse"
      >
        <stop stop-color="white" />
        <stop offset="1" stop-color="white" stop-opacity="0" />
      </linearGradient>
      <linearGradient
        id="paint2_linear_441_188"
        x1="41.841"
        y1="33.8354"
        x2="74.7257"
        y2="83.6596"
        gradientUnits="userSpaceOnUse"
      >
        <stop stop-color="#1DE5E2" />
        <stop offset="1" stop-color="#B588F7" />
      </linearGradient>
      <linearGradient
        id="paint3_linear_441_188"
        x1="41.841"
        y1="33.8354"
        x2="74.7257"
        y2="83.6596"
        gradientUnits="userSpaceOnUse"
      >
        <stop stop-color="#1DE5E2" />
        <stop offset="1" stop-color="#B588F7" />
      </linearGradient>
    </defs>
  </symbol>
  <symbol
    fill="none"
    xmlns="http://www.w3.org/2000/svg"
    viewBox="0 0 133 134"
    id="icon-shield"
  >
    <path
      d="M127.005 19.8721L127.007 19.8717C129.77 19.4335 132.249 21.6248 132.176 24.4331C130.843 71.8205 114.369 98.8615 98.2815 114.056C90.2321 121.659 82.2677 126.308 76.32 129.054C73.3462 130.428 70.8773 131.325 69.155 131.879C68.2939 132.156 67.6196 132.346 67.1623 132.467C66.9337 132.528 66.7593 132.571 66.643 132.599C66.6232 132.604 66.605 132.608 66.5886 132.612C66.5848 132.613 66.5811 132.614 66.5775 132.615C66.5582 132.61 66.5364 132.605 66.5119 132.599C66.3956 132.571 66.2213 132.528 65.9927 132.467C65.5354 132.346 64.8611 132.155 63.9999 131.878C62.2777 131.324 59.8087 130.425 56.8349 129.051C50.8872 126.302 42.9228 121.651 34.8733 114.046C18.786 98.8479 2.31121 71.8067 0.979099 24.4326C0.906485 21.6246 3.38475 19.4335 6.14744 19.8717L6.15019 19.8721C17.7146 21.6406 44.1058 22.8883 63.3013 2.26448L63.3032 2.26232C65.0746 0.336553 68.1071 0.336553 69.8785 2.26232L69.8803 2.26421C89.0488 22.8884 115.44 21.6406 127.005 19.8721Z"
      fill="url(#paint0_linear_442_192)"
      stroke="white"
    />
    <g filter="url(#filter0_di_442_192)">
      <circle cx="15.0324" cy="42.2003" r="4.17206" fill="#673AB7" />
    </g>
    <g filter="url(#filter1_di_442_192)">
      <circle
        r="4.17206"
        transform="matrix(-1 0 0 1 120.136 42.2005)"
        fill="#673AB7"
      />
    </g>
    <g filter="url(#filter2_di_442_192)">
      <circle cx="23.3752" cy="70.8948" r="4.17206" fill="#673AB7" />
    </g>
    <g filter="url(#filter3_di_442_192)">
      <circle
        r="4.17206"
        transform="matrix(-1 0 0 1 111.792 70.8948)"
        fill="#673AB7"
      />
    </g>
    <g filter="url(#filter4_di_442_192)">
      <circle cx="38.8732" cy="98.3135" r="4.17206" fill="#673AB7" />
    </g>
    <g filter="url(#filter5_di_442_192)">
      <circle
        r="4.17206"
        transform="matrix(-1 0 0 1 96.2938 98.3133)"
        fill="#673AB7"
      />
    </g>
    <g filter="url(#filter6_di_442_192)">
      <circle cx="65.299" cy="120.566" r="4.17206" fill="#673AB7" />
    </g>
    <g filter="url(#filter7_d_442_192)">
      <path
        d="M81.1949 62.71C80.9159 61.7834 80.5774 60.977 80.1798 60.2922C79.7825 59.6067 79.2134 58.938 78.4714 58.284C77.7304 57.6303 77.0637 57.1038 76.4726 56.7036C75.8819 56.303 75.0704 55.8552 74.0385 55.3595C73.0076 54.8639 72.1908 54.4952 71.5896 54.2526C70.9875 54.0104 70.1166 53.6784 68.9774 53.2568C67.9674 52.8777 67.2154 52.5877 66.7206 52.3876C66.2264 52.1873 65.5764 51.9029 64.7705 51.5338C63.9648 51.1652 63.363 50.8383 62.9653 50.554C62.5677 50.2696 62.1434 49.9218 61.692 49.5109C61.2406 49.0999 60.9236 48.6625 60.7408 48.1988C60.5584 47.735 60.467 47.229 60.467 46.681C60.467 45.248 61.1115 44.0777 62.401 43.1716C63.6906 42.2656 65.3564 41.8123 67.3982 41.8123C68.3004 41.8123 69.2202 41.9333 70.1544 42.176C71.0887 42.4186 71.8893 42.6919 72.5557 42.9978C73.2225 43.3036 73.8509 43.641 74.4421 44.0096C75.0332 44.3786 75.4521 44.6577 75.6995 44.8474C75.9467 45.0372 76.1033 45.1636 76.1671 45.2269C76.4469 45.4377 76.7363 45.5113 77.0372 45.4483C77.3595 45.4272 77.6069 45.2584 77.7792 44.9425L80.3909 40.3263C80.6486 39.905 80.5953 39.5044 80.2297 39.1248C80.1006 38.9983 79.94 38.8509 79.7452 38.6821C79.5524 38.5134 79.1331 38.2078 78.4878 37.765C77.8432 37.3225 77.1608 36.9272 76.4414 36.5794C75.7211 36.2319 74.7859 35.8786 73.636 35.5205C72.4868 35.1618 71.299 34.9196 70.0737 34.7932V29.2283C70.0737 28.9334 69.9772 28.6909 69.7843 28.501C69.591 28.3117 69.3437 28.2166 69.0423 28.2166H64.69C64.4106 28.2166 64.1689 28.3166 63.9647 28.5169C63.7606 28.7172 63.6585 28.9542 63.6585 29.2283V34.9195C60.2842 35.5516 57.544 36.9639 55.4378 39.156C53.3318 41.3483 52.2785 43.8983 52.2785 46.8074C52.2785 47.6715 52.3702 48.4936 52.5529 49.2731C52.7353 50.0533 52.9612 50.7542 53.2299 51.3759C53.4984 51.998 53.88 52.6091 54.3743 53.21C54.8685 53.8107 55.3361 54.3272 55.7765 54.7591C56.2172 55.1908 56.7922 55.6389 57.5012 56.1025C58.2106 56.5665 58.8178 56.9409 59.3229 57.2253C59.8282 57.5088 60.4997 57.8366 61.3377 58.2046C62.1758 58.5737 62.8369 58.8526 63.3205 59.0428C63.8042 59.2323 64.4649 59.4961 65.3034 59.8326C66.4638 60.2752 67.3237 60.6179 67.8824 60.8604C68.4415 61.1029 69.1505 61.4401 70.0107 61.8723C70.8701 62.3039 71.4984 62.6993 71.8963 63.0578C72.2939 63.4162 72.6538 63.8589 72.9764 64.3857C73.299 64.9125 73.4605 65.4711 73.4605 66.0615C73.4605 67.7268 72.7997 69.0123 71.4776 69.9179C70.156 70.8246 68.6242 71.2777 66.8837 71.2777C66.0892 71.2777 65.2934 71.1939 64.4985 71.0253C61.7045 70.4766 59.0934 69.1592 56.6648 67.0726L56.6004 67.0094C56.4068 66.7782 56.1488 66.6831 55.8268 66.7255C55.4829 66.7676 55.2356 66.8942 55.0853 67.1054L51.7647 71.3734C51.4422 71.7949 51.464 72.2269 51.8293 72.6695C51.9369 72.7961 52.1249 72.9863 52.3934 73.2387C52.6626 73.4922 53.1624 73.8868 53.8927 74.4254C54.6232 74.9631 55.4185 75.4683 56.2783 75.9432C57.1381 76.4173 58.2286 76.886 59.5506 77.3499C60.8726 77.8131 62.2423 78.1397 63.6609 78.3292V83.8623C63.6609 84.1367 63.7631 84.3736 63.9671 84.574C64.1714 84.7746 64.413 84.8742 64.6923 84.8742H69.0447C69.3461 84.8742 69.5934 84.7795 69.7866 84.5901C69.9798 84.4006 70.076 84.1581 70.076 83.8624V78.3294C73.4937 77.7814 76.2715 76.3427 78.4097 74.0135C80.548 71.6843 81.6176 68.9072 81.6176 65.6825C81.6164 64.6288 81.477 63.6381 81.1949 62.71Z"
        fill="#FF7777"
      />
    </g>
    <defs>
      <filter
        id="filter0_di_442_192"
        x="6.86035"
        y="38.0282"
        width="16.3438"
        height="16.3441"
        filterUnits="userSpaceOnUse"
        color-interpolation-filters="sRGB"
      >
        <feFlood flood-opacity="0" result="BackgroundImageFix" />
        <feColorMatrix
          in="SourceAlpha"
          type="matrix"
          values="0 0 0 0 0 0 0 0 0 0 0 0 0 0 0 0 0 0 127 0"
          result="hardAlpha"
        />
        <feOffset dy="4" />
        <feGaussianBlur stdDeviation="2" />
        <feComposite in2="hardAlpha" operator="out" />
        <feColorMatrix
          type="matrix"
          values="0 0 0 0 0 0 0 0 0 0 0 0 0 0 0 0 0 0 0.25 0"
        />
        <feBlend
          mode="normal"
          in2="BackgroundImageFix"
          result="effect1_dropShadow_442_192"
        />
        <feBlend
          mode="normal"
          in="SourceGraphic"
          in2="effect1_dropShadow_442_192"
          result="shape"
        />
        <feColorMatrix
          in="SourceAlpha"
          type="matrix"
          values="0 0 0 0 0 0 0 0 0 0 0 0 0 0 0 0 0 0 127 0"
          result="hardAlpha"
        />
        <feOffset dy="4" />
        <feGaussianBlur stdDeviation="2" />
        <feComposite in2="hardAlpha" operator="arithmetic" k2="-1" k3="1" />
        <feColorMatrix
          type="matrix"
          values="0 0 0 0 1 0 0 0 0 0.466667 0 0 0 0 0.466667 0 0 0 0.5 0"
        />
        <feBlend
          mode="normal"
          in2="shape"
          result="effect2_innerShadow_442_192"
        />
      </filter>
      <filter
        id="filter1_di_442_192"
        x="111.964"
        y="38.0284"
        width="16.3438"
        height="16.3441"
        filterUnits="userSpaceOnUse"
        color-interpolation-filters="sRGB"
      >
        <feFlood flood-opacity="0" result="BackgroundImageFix" />
        <feColorMatrix
          in="SourceAlpha"
          type="matrix"
          values="0 0 0 0 0 0 0 0 0 0 0 0 0 0 0 0 0 0 127 0"
          result="hardAlpha"
        />
        <feOffset dy="4" />
        <feGaussianBlur stdDeviation="2" />
        <feComposite in2="hardAlpha" operator="out" />
        <feColorMatrix
          type="matrix"
          values="0 0 0 0 0 0 0 0 0 0 0 0 0 0 0 0 0 0 0.25 0"
        />
        <feBlend
          mode="normal"
          in2="BackgroundImageFix"
          result="effect1_dropShadow_442_192"
        />
        <feBlend
          mode="normal"
          in="SourceGraphic"
          in2="effect1_dropShadow_442_192"
          result="shape"
        />
        <feColorMatrix
          in="SourceAlpha"
          type="matrix"
          values="0 0 0 0 0 0 0 0 0 0 0 0 0 0 0 0 0 0 127 0"
          result="hardAlpha"
        />
        <feOffset dy="4" />
        <feGaussianBlur stdDeviation="2" />
        <feComposite in2="hardAlpha" operator="arithmetic" k2="-1" k3="1" />
        <feColorMatrix
          type="matrix"
          values="0 0 0 0 1 0 0 0 0 0.466667 0 0 0 0 0.466667 0 0 0 0.5 0"
        />
        <feBlend
          mode="normal"
          in2="shape"
          result="effect2_innerShadow_442_192"
        />
      </filter>
      <filter
        id="filter2_di_442_192"
        x="15.2031"
        y="66.7228"
        width="16.3438"
        height="16.3441"
        filterUnits="userSpaceOnUse"
        color-interpolation-filters="sRGB"
      >
        <feFlood flood-opacity="0" result="BackgroundImageFix" />
        <feColorMatrix
          in="SourceAlpha"
          type="matrix"
          values="0 0 0 0 0 0 0 0 0 0 0 0 0 0 0 0 0 0 127 0"
          result="hardAlpha"
        />
        <feOffset dy="4" />
        <feGaussianBlur stdDeviation="2" />
        <feComposite in2="hardAlpha" operator="out" />
        <feColorMatrix
          type="matrix"
          values="0 0 0 0 0 0 0 0 0 0 0 0 0 0 0 0 0 0 0.25 0"
        />
        <feBlend
          mode="normal"
          in2="BackgroundImageFix"
          result="effect1_dropShadow_442_192"
        />
        <feBlend
          mode="normal"
          in="SourceGraphic"
          in2="effect1_dropShadow_442_192"
          result="shape"
        />
        <feColorMatrix
          in="SourceAlpha"
          type="matrix"
          values="0 0 0 0 0 0 0 0 0 0 0 0 0 0 0 0 0 0 127 0"
          result="hardAlpha"
        />
        <feOffset dy="4" />
        <feGaussianBlur stdDeviation="2" />
        <feComposite in2="hardAlpha" operator="arithmetic" k2="-1" k3="1" />
        <feColorMatrix
          type="matrix"
          values="0 0 0 0 1 0 0 0 0 0.466667 0 0 0 0 0.466667 0 0 0 0.5 0"
        />
        <feBlend
          mode="normal"
          in2="shape"
          result="effect2_innerShadow_442_192"
        />
      </filter>
      <filter
        id="filter3_di_442_192"
        x="103.62"
        y="66.7228"
        width="16.3438"
        height="16.3441"
        filterUnits="userSpaceOnUse"
        color-interpolation-filters="sRGB"
      >
        <feFlood flood-opacity="0" result="BackgroundImageFix" />
        <feColorMatrix
          in="SourceAlpha"
          type="matrix"
          values="0 0 0 0 0 0 0 0 0 0 0 0 0 0 0 0 0 0 127 0"
          result="hardAlpha"
        />
        <feOffset dy="4" />
        <feGaussianBlur stdDeviation="2" />
        <feComposite in2="hardAlpha" operator="out" />
        <feColorMatrix
          type="matrix"
          values="0 0 0 0 0 0 0 0 0 0 0 0 0 0 0 0 0 0 0.25 0"
        />
        <feBlend
          mode="normal"
          in2="BackgroundImageFix"
          result="effect1_dropShadow_442_192"
        />
        <feBlend
          mode="normal"
          in="SourceGraphic"
          in2="effect1_dropShadow_442_192"
          result="shape"
        />
        <feColorMatrix
          in="SourceAlpha"
          type="matrix"
          values="0 0 0 0 0 0 0 0 0 0 0 0 0 0 0 0 0 0 127 0"
          result="hardAlpha"
        />
        <feOffset dy="4" />
        <feGaussianBlur stdDeviation="2" />
        <feComposite in2="hardAlpha" operator="arithmetic" k2="-1" k3="1" />
        <feColorMatrix
          type="matrix"
          values="0 0 0 0 1 0 0 0 0 0.466667 0 0 0 0 0.466667 0 0 0 0.5 0"
        />
        <feBlend
          mode="normal"
          in2="shape"
          result="effect2_innerShadow_442_192"
        />
      </filter>
      <filter
        id="filter4_di_442_192"
        x="30.7012"
        y="94.1415"
        width="16.3438"
        height="16.3441"
        filterUnits="userSpaceOnUse"
        color-interpolation-filters="sRGB"
      >
        <feFlood flood-opacity="0" result="BackgroundImageFix" />
        <feColorMatrix
          in="SourceAlpha"
          type="matrix"
          values="0 0 0 0 0 0 0 0 0 0 0 0 0 0 0 0 0 0 127 0"
          result="hardAlpha"
        />
        <feOffset dy="4" />
        <feGaussianBlur stdDeviation="2" />
        <feComposite in2="hardAlpha" operator="out" />
        <feColorMatrix
          type="matrix"
          values="0 0 0 0 0 0 0 0 0 0 0 0 0 0 0 0 0 0 0.25 0"
        />
        <feBlend
          mode="normal"
          in2="BackgroundImageFix"
          result="effect1_dropShadow_442_192"
        />
        <feBlend
          mode="normal"
          in="SourceGraphic"
          in2="effect1_dropShadow_442_192"
          result="shape"
        />
        <feColorMatrix
          in="SourceAlpha"
          type="matrix"
          values="0 0 0 0 0 0 0 0 0 0 0 0 0 0 0 0 0 0 127 0"
          result="hardAlpha"
        />
        <feOffset dy="4" />
        <feGaussianBlur stdDeviation="2" />
        <feComposite in2="hardAlpha" operator="arithmetic" k2="-1" k3="1" />
        <feColorMatrix
          type="matrix"
          values="0 0 0 0 1 0 0 0 0 0.466667 0 0 0 0 0.466667 0 0 0 0.5 0"
        />
        <feBlend
          mode="normal"
          in2="shape"
          result="effect2_innerShadow_442_192"
        />
      </filter>
      <filter
        id="filter5_di_442_192"
        x="88.1221"
        y="94.1412"
        width="16.3438"
        height="16.3441"
        filterUnits="userSpaceOnUse"
        color-interpolation-filters="sRGB"
      >
        <feFlood flood-opacity="0" result="BackgroundImageFix" />
        <feColorMatrix
          in="SourceAlpha"
          type="matrix"
          values="0 0 0 0 0 0 0 0 0 0 0 0 0 0 0 0 0 0 127 0"
          result="hardAlpha"
        />
        <feOffset dy="4" />
        <feGaussianBlur stdDeviation="2" />
        <feComposite in2="hardAlpha" operator="out" />
        <feColorMatrix
          type="matrix"
          values="0 0 0 0 0 0 0 0 0 0 0 0 0 0 0 0 0 0 0.25 0"
        />
        <feBlend
          mode="normal"
          in2="BackgroundImageFix"
          result="effect1_dropShadow_442_192"
        />
        <feBlend
          mode="normal"
          in="SourceGraphic"
          in2="effect1_dropShadow_442_192"
          result="shape"
        />
        <feColorMatrix
          in="SourceAlpha"
          type="matrix"
          values="0 0 0 0 0 0 0 0 0 0 0 0 0 0 0 0 0 0 127 0"
          result="hardAlpha"
        />
        <feOffset dy="4" />
        <feGaussianBlur stdDeviation="2" />
        <feComposite in2="hardAlpha" operator="arithmetic" k2="-1" k3="1" />
        <feColorMatrix
          type="matrix"
          values="0 0 0 0 1 0 0 0 0 0.466667 0 0 0 0 0.466667 0 0 0 0.5 0"
        />
        <feBlend
          mode="normal"
          in2="shape"
          result="effect2_innerShadow_442_192"
        />
      </filter>
      <filter
        id="filter6_di_442_192"
        x="57.127"
        y="116.394"
        width="16.3438"
        height="16.3441"
        filterUnits="userSpaceOnUse"
        color-interpolation-filters="sRGB"
      >
        <feFlood flood-opacity="0" result="BackgroundImageFix" />
        <feColorMatrix
          in="SourceAlpha"
          type="matrix"
          values="0 0 0 0 0 0 0 0 0 0 0 0 0 0 0 0 0 0 127 0"
          result="hardAlpha"
        />
        <feOffset dy="4" />
        <feGaussianBlur stdDeviation="2" />
        <feComposite in2="hardAlpha" operator="out" />
        <feColorMatrix
          type="matrix"
          values="0 0 0 0 0 0 0 0 0 0 0 0 0 0 0 0 0 0 0.25 0"
        />
        <feBlend
          mode="normal"
          in2="BackgroundImageFix"
          result="effect1_dropShadow_442_192"
        />
        <feBlend
          mode="normal"
          in="SourceGraphic"
          in2="effect1_dropShadow_442_192"
          result="shape"
        />
        <feColorMatrix
          in="SourceAlpha"
          type="matrix"
          values="0 0 0 0 0 0 0 0 0 0 0 0 0 0 0 0 0 0 127 0"
          result="hardAlpha"
        />
        <feOffset dy="4" />
        <feGaussianBlur stdDeviation="2" />
        <feComposite in2="hardAlpha" operator="arithmetic" k2="-1" k3="1" />
        <feColorMatrix
          type="matrix"
          values="0 0 0 0 1 0 0 0 0 0.466667 0 0 0 0 0.466667 0 0 0 0.5 0"
        />
        <feBlend
          mode="normal"
          in2="shape"
          result="effect2_innerShadow_442_192"
        />
      </filter>
      <filter
        id="filter7_d_442_192"
        x="30.5381"
        y="18.2166"
        width="72.0791"
        height="98.6577"
        filterUnits="userSpaceOnUse"
        color-interpolation-filters="sRGB"
      >
        <feFlood flood-opacity="0" result="BackgroundImageFix" />
        <feColorMatrix
          in="SourceAlpha"
          type="matrix"
          values="0 0 0 0 0 0 0 0 0 0 0 0 0 0 0 0 0 0 127 0"
          result="hardAlpha"
        />
        <feOffset dy="11" />
        <feGaussianBlur stdDeviation="10.5" />
        <feComposite in2="hardAlpha" operator="out" />
        <feColorMatrix
          type="matrix"
          values="0 0 0 0 1 0 0 0 0 0.466667 0 0 0 0 0.466667 0 0 0 1 0"
        />
        <feBlend
          mode="normal"
          in2="BackgroundImageFix"
          result="effect1_dropShadow_442_192"
        />
        <feBlend
          mode="normal"
          in="SourceGraphic"
          in2="effect1_dropShadow_442_192"
          result="shape"
        />
      </filter>
      <linearGradient
        id="paint0_linear_442_192"
        x1="66.5774"
        y1="-62.1295"
        x2="66.5774"
        y2="177.44"
        gradientUnits="userSpaceOnUse"
      >
        <stop stop-color="white" />
        <stop offset="1" stop-color="white" stop-opacity="0" />
      </linearGradient>
    </defs>
  </symbol>
  <symbol
    fill="none"
    xmlns="http://www.w3.org/2000/svg"
    viewBox="0 0 107 103"
    id="icon-up"
  >
    <rect
      x="80.7383"
      y="17.8645"
      width="9.12281"
      height="57.6923"
      fill="url(#paint0_linear_441_153)"
    />
    <rect
      x="67.9668"
      y="33.2491"
      width="9.12281"
      height="42.3077"
      fill="url(#paint1_linear_441_153)"
    />
    <rect
      x="55.1953"
      y="23.6338"
      width="7.29825"
      height="51.9231"
      fill="url(#paint2_linear_441_153)"
    />
    <rect
      x="40.5986"
      y="46.7107"
      width="9.12281"
      height="28.8461"
      fill="url(#paint3_linear_441_153)"
    />
    <rect
      x="27.8262"
      y="60.1722"
      width="9.12281"
      height="15.3846"
      fill="url(#paint4_linear_441_153)"
    />
    <g filter="url(#filter0_b_441_153)">
      <ellipse
        cx="80.7382"
        cy="75.5567"
        rx="25.5439"
        ry="26.9231"
        fill="url(#paint5_linear_441_153)"
      />
      <path
        d="M106.182 75.5567C106.182 90.3757 94.7856 102.38 80.7382 102.38C66.6908 102.38 55.2943 90.3757 55.2943 75.5567C55.2943 60.7377 66.6908 48.7337 80.7382 48.7337C94.7856 48.7337 106.182 60.7377 106.182 75.5567Z"
        stroke="white"
        stroke-width="0.2"
      />
    </g>
    <g opacity="0.9" filter="url(#filter1_b_441_153)">
      <rect
        x="77.0898"
        y="58.249"
        width="3.64912"
        height="21.1538"
        rx="1.82456"
        fill="url(#paint6_linear_441_153)"
      />
      <rect
        x="77.1898"
        y="58.349"
        width="3.44912"
        height="20.9538"
        rx="1.72456"
        stroke="white"
        stroke-width="0.2"
      />
    </g>
    <g opacity="0.9" filter="url(#filter2_b_441_153)">
      <rect
        x="77.0898"
        y="83.2491"
        width="3.84615"
        height="12.7719"
        rx="1.92308"
        transform="rotate(-90 77.0898 83.2491)"
        fill="url(#paint7_linear_441_153)"
      />
      <rect
        x="77.1898"
        y="83.1491"
        width="3.64615"
        height="12.5719"
        rx="1.82308"
        transform="rotate(-90 77.1898 83.1491)"
        stroke="white"
        stroke-width="0.2"
      />
    </g>
    <g filter="url(#filter3_b_441_153)">
      <path
        d="M2.28223 63.0568L34.2121 36.1337H50.6331L82.5629 2.47986M82.5629 2.47986V18.826M82.5629 2.47986L67.9664 4.40293"
        stroke="url(#paint8_linear_441_153)"
        stroke-width="4"
        stroke-linecap="round"
      />
    </g>
    <defs>
      <filter
        id="filter0_b_441_153"
        x="50.1943"
        y="43.6337"
        width="61.0879"
        height="63.8462"
        filterUnits="userSpaceOnUse"
        color-interpolation-filters="sRGB"
      >
        <feFlood flood-opacity="0" result="BackgroundImageFix" />
        <feGaussianBlur in="BackgroundImage" stdDeviation="2.5" />
        <feComposite
          in2="SourceAlpha"
          operator="in"
          result="effect1_backgroundBlur_441_153"
        />
        <feBlend
          mode="normal"
          in="SourceGraphic"
          in2="effect1_backgroundBlur_441_153"
          result="shape"
        />
      </filter>
      <filter
        id="filter1_b_441_153"
        x="73.0898"
        y="54.249"
        width="11.6494"
        height="29.1538"
        filterUnits="userSpaceOnUse"
        color-interpolation-filters="sRGB"
      >
        <feFlood flood-opacity="0" result="BackgroundImageFix" />
        <feGaussianBlur in="BackgroundImage" stdDeviation="2" />
        <feComposite
          in2="SourceAlpha"
          operator="in"
          result="effect1_backgroundBlur_441_153"
        />
        <feBlend
          mode="normal"
          in="SourceGraphic"
          in2="effect1_backgroundBlur_441_153"
          result="shape"
        />
      </filter>
      <filter
        id="filter2_b_441_153"
        x="73.0898"
        y="75.403"
        width="20.7715"
        height="11.8462"
        filterUnits="userSpaceOnUse"
        color-interpolation-filters="sRGB"
      >
        <feFlood flood-opacity="0" result="BackgroundImageFix" />
        <feGaussianBlur in="BackgroundImage" stdDeviation="2" />
        <feComposite
          in2="SourceAlpha"
          operator="in"
          result="effect1_backgroundBlur_441_153"
        />
        <feBlend
          mode="normal"
          in="SourceGraphic"
          in2="effect1_backgroundBlur_441_153"
          result="shape"
        />
      </filter>
      <filter
        id="filter3_b_441_153"
        x="-4.71777"
        y="-4.8009"
        width="94.2803"
        height="74.8577"
        filterUnits="userSpaceOnUse"
        color-interpolation-filters="sRGB"
      >
        <feFlood flood-opacity="0" result="BackgroundImageFix" />
        <feGaussianBlur in="BackgroundImage" stdDeviation="2.5" />
        <feComposite
          in2="SourceAlpha"
          operator="in"
          result="effect1_backgroundBlur_441_153"
        />
        <feBlend
          mode="normal"
          in="SourceGraphic"
          in2="effect1_backgroundBlur_441_153"
          result="shape"
        />
      </filter>
      <linearGradient
        id="paint0_linear_441_153"
        x1="84.0395"
        y1="10.1773"
        x2="100.787"
        y2="12.2915"
        gradientUnits="userSpaceOnUse"
      >
        <stop stop-color="#1DE5E2" />
        <stop offset="1" stop-color="#B588F7" />
      </linearGradient>
      <linearGradient
        id="paint1_linear_441_153"
        x1="71.268"
        y1="27.6119"
        x2="87.7924"
        y2="30.4565"
        gradientUnits="userSpaceOnUse"
      >
        <stop stop-color="#1DE5E2" />
        <stop offset="1" stop-color="#B588F7" />
      </linearGradient>
      <linearGradient
        id="paint2_linear_441_153"
        x1="57.8363"
        y1="16.7153"
        x2="71.2783"
        y2="18.2237"
        gradientUnits="userSpaceOnUse"
      >
        <stop stop-color="#1DE5E2" />
        <stop offset="1" stop-color="#B588F7" />
      </linearGradient>
      <linearGradient
        id="paint3_linear_441_153"
        x1="43.8998"
        y1="42.8671"
        x2="59.8943"
        y2="46.9055"
        gradientUnits="userSpaceOnUse"
      >
        <stop stop-color="#1DE5E2" />
        <stop offset="1" stop-color="#B588F7" />
      </linearGradient>
      <linearGradient
        id="paint4_linear_441_153"
        x1="31.1274"
        y1="58.1223"
        x2="45.0264"
        y2="64.7023"
        gradientUnits="userSpaceOnUse"
      >
        <stop stop-color="#1DE5E2" />
        <stop offset="1" stop-color="#B588F7" />
      </linearGradient>
      <linearGradient
        id="paint5_linear_441_153"
        x1="80.7382"
        y1="34.2106"
        x2="80.7382"
        y2="153.441"
        gradientUnits="userSpaceOnUse"
      >
        <stop stop-color="white" />
        <stop offset="1" stop-color="white" stop-opacity="0" />
      </linearGradient>
      <linearGradient
        id="paint6_linear_441_153"
        x1="76.1776"
        y1="71.7106"
        x2="80.739"
        y2="71.7106"
        gradientUnits="userSpaceOnUse"
      >
        <stop stop-color="white" />
        <stop offset="1" stop-color="white" stop-opacity="0" />
      </linearGradient>
      <linearGradient
        id="paint7_linear_441_153"
        x1="80.936"
        y1="91.4597"
        x2="75.1668"
        y2="91.4597"
        gradientUnits="userSpaceOnUse"
      >
        <stop stop-color="white" />
        <stop offset="1" stop-color="white" stop-opacity="0" />
      </linearGradient>
      <linearGradient
        id="paint8_linear_441_153"
        x1="31.3327"
        y1="-5.59166"
        x2="101.976"
        y2="69.1513"
        gradientUnits="userSpaceOnUse"
      >
        <stop stop-color="#1DE5E2" />
        <stop offset="1" stop-color="#B588F7" />
      </linearGradient>
    </defs>
  </symbol>
  <symbol
    fill="none"
    xmlns="http://www.w3.org/2000/svg"
    viewBox="0 0 112 131"
    id="icon-user"
  >
    <path
      d="M68.9055 44.4802C81.1368 44.4802 91.0523 34.5648 91.0523 22.3335C91.0523 10.1022 81.1368 0.186768 68.9055 0.186768C56.6742 0.186768 46.7588 10.1022 46.7588 22.3335C46.7588 34.5648 56.6742 44.4802 68.9055 44.4802Z"
      fill="#FF42B3"
    />
    <path
      d="M68.9056 55.5536C46.7364 55.5536 28.7646 73.5253 28.7646 95.6946H109.047C109.047 73.5253 91.0749 55.5536 68.9056 55.5536Z"
      fill="#FF42B3"
    />
    <g filter="url(#filter0_b_442_211)">
      <path
        d="M62.6314 22.3333C62.6314 34.2884 52.9398 43.98 40.9846 43.98C29.0295 43.98 19.3379 34.2884 19.3379 22.3333C19.3379 10.3781 29.0295 0.686523 40.9846 0.686523C52.9398 0.686523 62.6314 10.3781 62.6314 22.3333Z"
        fill="url(#paint0_linear_442_211)"
        stroke="white"
      />
      <path
        d="M80.6226 95.1944H1.34684C1.6146 73.5317 19.2585 56.0535 40.9847 56.0535C62.7109 56.0535 80.3548 73.5317 80.6226 95.1944Z"
        fill="url(#paint1_linear_442_211)"
        stroke="white"
      />
    </g>
    <g filter="url(#filter1_b_442_211)">
      <rect
        x="1.84375"
        y="107.721"
        width="108.31"
        height="21.951"
        rx="10.9755"
        stroke="url(#paint2_linear_442_211)"
        stroke-width="2"
      />
    </g>
    <g filter="url(#filter2_b_442_211)">
      <circle
        cx="98.5783"
        cy="118.697"
        r="6.59782"
        fill="url(#paint3_linear_442_211)"
      />
    </g>
    <defs>
      <filter
        id="filter0_b_442_211"
        x="-29.1562"
        y="-29.8135"
        width="140.282"
        height="155.508"
        filterUnits="userSpaceOnUse"
        color-interpolation-filters="sRGB"
      >
        <feFlood flood-opacity="0" result="BackgroundImageFix" />
        <feGaussianBlur in="BackgroundImage" stdDeviation="15" />
        <feComposite
          in2="SourceAlpha"
          operator="in"
          result="effect1_backgroundBlur_442_211"
        />
        <feBlend
          mode="normal"
          in="SourceGraphic"
          in2="effect1_backgroundBlur_442_211"
          result="shape"
        />
      </filter>
      <filter
        id="filter1_b_442_211"
        x="-29.1562"
        y="76.7214"
        width="170.31"
        height="83.9509"
        filterUnits="userSpaceOnUse"
        color-interpolation-filters="sRGB"
      >
        <feFlood flood-opacity="0" result="BackgroundImageFix" />
        <feGaussianBlur in="BackgroundImage" stdDeviation="15" />
        <feComposite
          in2="SourceAlpha"
          operator="in"
          result="effect1_backgroundBlur_442_211"
        />
        <feBlend
          mode="normal"
          in="SourceGraphic"
          in2="effect1_backgroundBlur_442_211"
          result="shape"
        />
      </filter>
      <filter
        id="filter2_b_442_211"
        x="61.9805"
        y="82.0991"
        width="73.1953"
        height="73.1956"
        filterUnits="userSpaceOnUse"
        color-interpolation-filters="sRGB"
      >
        <feFlood flood-opacity="0" result="BackgroundImageFix" />
        <feGaussianBlur in="BackgroundImage" stdDeviation="15" />
        <feComposite
          in2="SourceAlpha"
          operator="in"
          result="effect1_backgroundBlur_442_211"
        />
        <feBlend
          mode="normal"
          in="SourceGraphic"
          in2="effect1_backgroundBlur_442_211"
          result="shape"
        />
      </filter>
      <linearGradient
        id="paint0_linear_442_211"
        x1="40.9846"
        y1="-15.9584"
        x2="40.9846"
        y2="70.6683"
        gradientUnits="userSpaceOnUse"
      >
        <stop stop-color="white" />
        <stop offset="1" stop-color="white" stop-opacity="0" />
      </linearGradient>
      <linearGradient
        id="paint1_linear_442_211"
        x1="40.9847"
        y1="40.9222"
        x2="40.9847"
        y2="119.428"
        gradientUnits="userSpaceOnUse"
      >
        <stop stop-color="white" />
        <stop offset="1" stop-color="white" stop-opacity="0" />
      </linearGradient>
      <linearGradient
        id="paint2_linear_442_211"
        x1="55.9986"
        y1="95.871"
        x2="55.9986"
        y2="153.894"
        gradientUnits="userSpaceOnUse"
      >
        <stop stop-color="white" />
        <stop offset="1" stop-color="white" stop-opacity="0" />
      </linearGradient>
      <linearGradient
        id="paint3_linear_442_211"
        x1="98.5783"
        y1="101.806"
        x2="98.5783"
        y2="145.792"
        gradientUnits="userSpaceOnUse"
      >
        <stop stop-color="white" />
        <stop offset="1" stop-color="white" stop-opacity="0" />
      </linearGradient>
    </defs>
  </symbol>
  <symbol
    fill="none"
    xmlns="http://www.w3.org/2000/svg"
    viewBox="0 0 216 201"
    id="Group 736"
  >
    <g filter="url(#filter0_d_442_220)">
      <path
        d="M110.47 20.0465C116.026 20.0465 120.527 26.1867 125.454 28.2956C130.381 30.4046 138.086 29.2475 141.827 33.2414C145.569 37.2353 144.624 44.5699 146.735 49.7397C148.847 54.9094 154.922 59.2392 154.922 64.8382C154.922 70.4371 148.828 74.9723 146.735 79.9367C144.642 84.9011 145.791 92.665 141.827 96.435C137.863 100.205 130.584 99.2904 125.454 101.381C120.323 103.471 116.026 109.63 110.47 109.63C104.913 109.63 100.412 103.49 95.4857 101.381C90.5589 99.2718 82.8539 100.429 79.1125 96.435C75.3711 92.441 76.2786 85.1064 74.2042 79.9367C72.1298 74.767 66.0176 70.4371 66.0176 64.8382C66.0176 59.2392 72.1112 54.7041 74.2042 49.7397C76.2972 44.7752 75.1488 37.0114 79.1125 33.2414C83.0761 29.4714 90.3552 30.3859 95.4857 28.2956C100.616 26.2054 104.913 20.0465 110.47 20.0465Z"
        fill="url(#paint0_linear_442_220)"
      />
      <g filter="url(#filter1_b_442_220)">
        <path
          d="M88.7598 20.0465C94.9624 20.0465 99.9865 26.9007 105.486 29.2548C110.986 31.609 119.587 30.3173 123.763 34.7757C127.94 39.234 126.885 47.4215 129.242 53.1923C131.599 58.9632 138.381 63.7965 138.381 70.0465C138.381 76.2965 131.579 81.359 129.242 86.9007C126.906 92.4423 128.188 101.109 123.763 105.317C119.339 109.526 111.213 108.505 105.486 110.838C99.7591 113.172 94.9624 120.047 88.7598 120.047C82.5571 120.047 77.533 113.192 72.0333 110.838C66.5337 108.484 57.9327 109.776 53.7562 105.317C49.5798 100.859 50.5929 92.6715 48.2772 86.9007C45.9616 81.1298 39.1387 76.2965 39.1387 70.0465C39.1387 63.7965 45.9409 58.734 48.2772 53.1923C50.6135 47.6507 49.3317 38.984 53.7562 34.7757C58.1808 30.5673 66.3062 31.5882 72.0333 29.2548C77.7604 26.9215 82.5571 20.0465 88.7598 20.0465Z"
          fill="url(#paint1_linear_442_220)"
        />
        <path
          d="M88.7598 20.2965C91.772 20.2965 94.5201 21.9618 97.2381 23.969C97.8594 24.4278 98.4762 24.9021 99.0931 25.3765C99.1488 25.4193 99.2044 25.4621 99.2601 25.5049C99.9319 26.0214 100.604 26.5361 101.278 27.0252C102.624 28.0026 103.987 28.8852 105.388 29.4847C106.79 30.0848 108.381 30.4494 110.033 30.7301C110.956 30.887 111.915 31.0201 112.873 31.1531C113.616 31.2562 114.358 31.3592 115.082 31.4732C118.443 32.002 121.557 32.7859 123.581 34.9466C125.613 37.1155 126.385 40.2073 126.938 43.5328C127.053 44.224 127.159 44.9256 127.265 45.6299C127.664 48.2858 128.068 50.9791 129.011 53.2869C129.956 55.6018 131.607 57.7716 133.232 59.9083C133.658 60.4697 134.084 61.0288 134.494 61.5877C136.483 64.2978 138.131 67.0101 138.131 70.0465C138.131 73.0837 136.477 75.8538 134.486 78.5922C134.03 79.2181 133.56 79.8396 133.089 80.4611L132.961 80.6296C132.449 81.3066 131.938 81.9839 131.452 82.6628C130.483 84.0196 129.607 85.3927 129.012 86.8035C128.417 88.2158 128.055 89.819 127.776 91.4831C127.621 92.4128 127.488 93.379 127.357 94.344C127.254 95.0928 127.152 95.8408 127.039 96.5707C126.514 99.9579 125.736 103.096 123.591 105.136C121.439 107.183 118.371 107.972 115.071 108.534C114.362 108.655 113.642 108.766 112.92 108.876C110.307 109.277 107.661 109.682 105.392 110.607C103.078 111.549 100.911 113.224 98.7775 114.874C98.234 115.294 97.6927 115.713 97.1517 116.117C94.4614 118.127 91.7708 119.797 88.7598 119.797C85.7475 119.797 82.9994 118.131 80.2814 116.124C79.66 115.665 79.0431 115.191 78.426 114.716L78.2594 114.588C77.5876 114.072 76.9154 113.557 76.2416 113.068C74.8952 112.09 73.5322 111.208 72.1317 110.608C70.7297 110.008 69.1382 109.644 67.4866 109.363C66.5638 109.206 65.6048 109.073 64.6469 108.94C63.9038 108.837 63.1615 108.734 62.4374 108.62C59.0763 108.091 55.9627 107.307 53.9387 105.146C51.9066 102.977 51.1236 99.8849 50.5655 96.5598C50.4456 95.8454 50.3361 95.1198 50.2262 94.3917C49.8289 91.7592 49.4267 89.0939 48.5092 86.8076C47.574 84.4768 45.9117 82.2937 44.2745 80.1435C43.8576 79.5958 43.4422 79.0503 43.0409 78.5051C41.0461 75.7946 39.3887 73.0825 39.3887 70.0465C39.3887 67.0093 41.0423 64.2392 43.034 61.5009C43.4894 60.8748 43.9601 60.2532 44.431 59.6315C44.4734 59.5755 44.5159 59.5194 44.5583 59.4634C45.0709 58.7864 45.5817 58.1091 46.0671 57.4302C47.037 56.0734 47.9128 54.7003 48.5076 53.2895C49.103 51.8773 49.4647 50.274 49.7433 48.6099C49.899 47.6801 50.0311 46.7139 50.163 45.7489C50.2653 45.0002 50.3676 44.2522 50.4807 43.5223C51.0056 40.1351 51.7839 36.9967 53.9285 34.9568C56.0809 32.9096 59.1488 32.1209 62.4483 31.5586C63.1571 31.4378 63.877 31.3275 64.5995 31.2168C67.2122 30.8164 69.8581 30.411 72.1277 29.4864C74.4412 28.5438 76.6082 26.8685 78.7421 25.2188C79.2855 24.7987 79.8268 24.3802 80.3679 23.9759C83.0582 21.9656 85.7487 20.2965 88.7598 20.2965Z"
          stroke="white"
          stroke-width="0.5"
        />
      </g>
      <path
        d="M80.4486 72.8867C80.4486 78.0814 79.6005 81.9267 77.9045 84.4223C76.2219 86.918 73.624 88.1658 70.1108 88.1658C66.7053 88.1658 64.1343 86.8773 62.3979 84.3003C60.675 81.7232 59.8135 77.9187 59.8135 72.8867C59.8135 67.6377 60.6548 63.7721 62.3373 61.29C64.0199 58.7943 66.6111 57.5465 70.1108 57.5465C73.5164 57.5465 76.0873 58.8486 77.8237 61.4528C79.5736 64.0569 80.4486 67.8682 80.4486 72.8867ZM66.0121 72.8867C66.0121 76.5352 66.3217 79.153 66.9409 80.7399C67.5735 82.3132 68.6302 83.0999 70.1108 83.0999C71.5646 83.0999 72.6145 82.2997 73.2606 80.6992C73.9067 79.0987 74.2298 76.4945 74.2298 72.8867C74.2298 69.2381 73.9 66.6204 73.2404 65.0335C72.5943 63.433 71.5511 62.6328 70.1108 62.6328C68.6436 62.6328 67.5937 63.433 66.961 65.0335C66.3284 66.6204 66.0121 69.2381 66.0121 72.8867Z"
        fill="url(#paint2_linear_442_220)"
      />
      <path
        d="M88.3028 66.9256C88.3028 68.6481 88.4509 69.9366 88.747 70.7911C89.0566 71.6321 89.5479 72.0525 90.2209 72.0525C91.5132 72.0525 92.1593 70.3435 92.1593 66.9256C92.1593 63.5347 91.5132 61.8393 90.2209 61.8393C89.5479 61.8393 89.0566 62.2598 88.747 63.1007C88.4509 63.9281 88.3028 65.203 88.3028 66.9256ZM97.2474 66.8849C97.2474 70.0045 96.6484 72.3509 95.4504 73.9243C94.2524 75.4841 92.4958 76.264 90.1806 76.264C87.9596 76.264 86.2433 75.4637 85.0319 73.8632C83.8204 72.2492 83.2147 69.9231 83.2147 66.8849C83.2147 60.6864 85.5367 57.5872 90.1806 57.5872C92.4554 57.5872 94.1985 58.3942 95.41 60.0083C96.6349 61.6087 97.2474 63.9009 97.2474 66.8849ZM111.139 58.0144L94.7639 87.7589H89.9181L106.293 58.0144H111.139ZM108.978 78.8071C108.978 80.5296 109.126 81.8182 109.422 82.6726C109.732 83.5136 110.223 83.934 110.896 83.934C112.189 83.934 112.835 82.2251 112.835 78.8071C112.835 75.4162 112.189 73.7208 110.896 73.7208C110.223 73.7208 109.732 74.1413 109.422 74.9822C109.126 75.8096 108.978 77.0845 108.978 78.8071ZM117.923 78.7664C117.923 81.8724 117.324 84.2121 116.126 85.7854C114.928 87.3452 113.171 88.1251 110.856 88.1251C108.635 88.1251 106.919 87.3249 105.707 85.7244C104.496 84.1104 103.89 81.791 103.89 78.7664C103.89 72.5679 106.212 69.4687 110.856 69.4687C113.131 69.4687 114.874 70.2757 116.085 71.8898C117.31 73.4902 117.923 75.7825 117.923 78.7664Z"
        fill="url(#paint3_linear_442_220)"
      />
    </g>
    <defs>
      <filter
        id="filter0_d_442_220"
        x="0.138672"
        y="0.0465088"
        width="215.783"
        height="200"
        filterUnits="userSpaceOnUse"
        color-interpolation-filters="sRGB"
      >
        <feFlood flood-opacity="0" result="BackgroundImageFix" />
        <feColorMatrix
          in="SourceAlpha"
          type="matrix"
          values="0 0 0 0 0 0 0 0 0 0 0 0 0 0 0 0 0 0 127 0"
          result="hardAlpha"
        />
        <feOffset dx="11" dy="30" />
        <feGaussianBlur stdDeviation="25" />
        <feComposite in2="hardAlpha" operator="out" />
        <feColorMatrix
          type="matrix"
          values="0 0 0 0 0.360784 0 0 0 0 0.745098 0 0 0 0 0.917647 0 0 0 0.1 0"
        />
        <feBlend
          mode="normal"
          in2="BackgroundImageFix"
          result="effect1_dropShadow_442_220"
        />
        <feBlend
          mode="normal"
          in="SourceGraphic"
          in2="effect1_dropShadow_442_220"
          result="shape"
        />
      </filter>
      <filter
        id="filter1_b_442_220"
        x="35.1387"
        y="16.0465"
        width="107.242"
        height="108"
        filterUnits="userSpaceOnUse"
        color-interpolation-filters="sRGB"
      >
        <feFlood flood-opacity="0" result="BackgroundImageFix" />
        <feGaussianBlur in="BackgroundImage" stdDeviation="2" />
        <feComposite
          in2="SourceAlpha"
          operator="in"
          result="effect1_backgroundBlur_442_220"
        />
        <feBlend
          mode="normal"
          in="SourceGraphic"
          in2="effect1_backgroundBlur_442_220"
          result="shape"
        />
      </filter>
      <linearGradient
        id="paint0_linear_442_220"
        x1="98.1886"
        y1="8.11005"
        x2="200.052"
        y2="88.8166"
        gradientUnits="userSpaceOnUse"
      >
        <stop stop-color="#1DE5E2" />
        <stop offset="1" stop-color="#B588F7" />
      </linearGradient>
      <linearGradient
        id="paint1_linear_442_220"
        x1="88.7597"
        y1="-32.0368"
        x2="88.7597"
        y2="145.047"
        gradientUnits="userSpaceOnUse"
      >
        <stop stop-color="white" />
        <stop offset="1" stop-color="white" stop-opacity="0" />
      </linearGradient>
      <linearGradient
        id="paint2_linear_442_220"
        x1="80.841"
        y1="53.4667"
        x2="113.726"
        y2="103.291"
        gradientUnits="userSpaceOnUse"
      >
        <stop stop-color="#1DE5E2" />
        <stop offset="1" stop-color="#B588F7" />
      </linearGradient>
      <linearGradient
        id="paint3_linear_442_220"
        x1="80.841"
        y1="53.4667"
        x2="113.726"
        y2="103.291"
        gradientUnits="userSpaceOnUse"
      >
        <stop stop-color="#1DE5E2" />
        <stop offset="1" stop-color="#B588F7" />
      </linearGradient>
    </defs>
  </symbol>
  <symbol
    fill="none"
    xmlns="http://www.w3.org/2000/svg"
    viewBox="0 0 132 131"
    id="icon-chip"
  >
    <path
      d="M91.2085 40.1868H39.7891V91.6062H91.2085V40.1868Z"
      fill="#59E0D8"
    />
    <path
      d="M91.2067 95.4848H39.7881C37.6452 95.4848 35.9072 93.7471 35.9072 91.6039V40.1853C35.9072 38.0424 37.6449 36.3044 39.7881 36.3044H91.2067C93.3496 36.3044 95.0875 38.0421 95.0875 40.1853V91.6039C95.0875 93.7473 93.3501 95.4848 91.2067 95.4848ZM43.6689 87.7231H87.3262V44.0661H43.6689V87.7231Z"
      fill="#46FFF4"
    />
    <path
      d="M108.185 104.702H26.69V27.0875H45.3175C45.9756 27.0875 46.5946 26.9222 47.1374 26.6335C48.8353 26.2194 50.0968 24.6924 50.0968 22.8674V4.82492C50.0968 2.68204 48.3591 0.944092 46.216 0.944092C44.0731 0.944092 42.3351 2.68179 42.3351 4.82492V19.3261H22.8094C20.6666 19.3261 18.9286 21.0638 18.9286 23.2069V41.8344H4.4277C2.28457 41.8341 0.546875 43.5721 0.546875 45.715C0.546875 47.8578 2.28457 49.5958 4.4277 49.5958H18.9289V62.0141H12.1939C10.0511 62.0141 8.31312 63.7518 8.31312 65.8949C8.31312 68.0381 10.0508 69.7758 12.1939 69.7758H18.9286V82.1941H4.4277C2.28457 82.1936 0.546875 83.9315 0.546875 86.0744C0.546875 88.2173 2.28457 89.9552 4.4277 89.9552H18.9289V108.583C18.9289 110.726 20.6666 112.464 22.8097 112.464H41.4372V126.965C41.4372 129.108 43.1749 130.846 45.318 130.846C47.4609 130.846 49.1988 129.108 49.1988 126.965V112.464H61.6171V119.198C61.6171 121.341 63.3548 123.079 65.498 123.079C67.6408 123.079 69.3788 121.341 69.3788 119.198V112.464H81.7971V126.965C81.7971 129.108 83.5348 130.846 85.6779 130.846C87.8211 130.846 89.5588 129.108 89.5588 126.965V112.464H108.186C110.329 112.464 112.067 110.726 112.067 108.583C112.067 106.44 110.328 104.702 108.185 104.702Z"
      fill="#46FFF4"
    />
    <g filter="url(#filter0_b_442_203)">
      <path
        d="M127.466 82.1936H112.965V69.7752H119.7C121.843 69.7752 123.581 68.0375 123.581 65.8944C123.581 63.7513 121.843 62.0136 119.7 62.0136H112.965V49.5958H127.466C129.609 49.5958 131.347 47.8581 131.347 45.715C131.347 43.5721 129.609 41.8341 127.466 41.8341H112.965V23.2069C112.965 21.064 111.227 19.3261 109.084 19.3261H90.4567V4.82492C90.4567 2.68204 88.719 0.944092 86.5759 0.944092C84.4328 0.944092 82.6956 2.68204 82.6956 4.82492V19.3261H70.2773V12.5914C70.2773 10.4485 68.5396 8.71059 66.3965 8.71059C64.2533 8.71059 62.5156 10.4483 62.5156 12.5914V22.8671C62.5156 22.9246 62.5218 22.9806 62.5241 23.037C62.5218 23.0937 62.5156 23.1497 62.5156 23.2069C62.5156 25.3498 64.2533 27.0877 66.3965 27.0877H105.204V84.13C104.839 84.7025 104.644 85.3652 104.644 86.0747C104.644 88.2175 106.382 89.9555 108.525 89.9555H126.567C128.71 89.9555 130.448 88.2178 130.448 86.0747C130.448 83.9315 128.711 82.1936 127.466 82.1936Z"
        fill="url(#paint0_linear_442_203)"
      />
      <path
        d="M112.465 82.1936V82.6936H112.965H127.466C127.881 82.6936 128.499 83.0069 129.041 83.652C129.567 84.2783 129.948 85.1378 129.948 86.0747C129.948 87.9416 128.434 89.4555 126.567 89.4555H108.525C106.658 89.4555 105.144 87.9414 105.144 86.0747C105.144 85.4587 105.312 84.8896 105.625 84.3988L105.704 84.2759V84.13V27.0877V26.5877H105.204H66.3965C64.5295 26.5877 63.0156 25.0736 63.0156 23.2069C63.0156 23.181 63.0165 23.1713 63.0178 23.1552C63.0193 23.1383 63.0213 23.1143 63.0236 23.0573L63.0245 23.037L63.0236 23.0167C63.0213 22.9601 63.0193 22.9362 63.0178 22.9192C63.0165 22.903 63.0156 22.8931 63.0156 22.8671V12.5914C63.0156 10.7244 64.5295 9.21059 66.3965 9.21059C68.2634 9.21059 69.7773 10.7247 69.7773 12.5914V19.3261V19.8261H70.2773H82.6956H83.1956V19.3261V4.82492C83.1956 2.95808 84.709 1.44409 86.5759 1.44409C88.4429 1.44409 89.9567 2.95817 89.9567 4.82492V19.3261V19.8261H90.4567H109.084C110.951 19.8261 112.465 21.3401 112.465 23.2069V41.8341V42.3341H112.965H127.466C129.333 42.3341 130.847 43.8482 130.847 45.715C130.847 47.5819 129.333 49.0958 127.466 49.0958H112.965H112.465V49.5958V62.0136V62.5136H112.965H119.7C121.567 62.5136 123.081 64.0274 123.081 65.8944C123.081 67.7614 121.566 69.2752 119.7 69.2752H112.965H112.465V69.7752V82.1936Z"
        stroke="white"
      />
    </g>
    <g filter="url(#filter1_b_442_203)">
      <rect
        x="56.3291"
        y="33.1946"
        width="44.2411"
        height="44.2411"
        rx="2"
        fill="url(#paint1_linear_442_203)"
      />
      <rect
        x="56.8291"
        y="33.6946"
        width="43.2411"
        height="43.2411"
        rx="1.5"
        stroke="white"
      />
    </g>
    <defs>
      <filter
        id="filter0_b_442_203"
        x="58.5156"
        y="-3.05591"
        width="76.8311"
        height="97.0114"
        filterUnits="userSpaceOnUse"
        color-interpolation-filters="sRGB"
      >
        <feFlood flood-opacity="0" result="BackgroundImageFix" />
        <feGaussianBlur in="BackgroundImage" stdDeviation="2" />
        <feComposite
          in2="SourceAlpha"
          operator="in"
          result="effect1_backgroundBlur_442_203"
        />
        <feBlend
          mode="normal"
          in="SourceGraphic"
          in2="effect1_backgroundBlur_442_203"
          result="shape"
        />
      </filter>
      <filter
        id="filter1_b_442_203"
        x="55.3291"
        y="32.1946"
        width="46.2412"
        height="46.2411"
        filterUnits="userSpaceOnUse"
        color-interpolation-filters="sRGB"
      >
        <feFlood flood-opacity="0" result="BackgroundImageFix" />
        <feGaussianBlur in="BackgroundImage" stdDeviation="0.5" />
        <feComposite
          in2="SourceAlpha"
          operator="in"
          result="effect1_backgroundBlur_442_203"
        />
        <feBlend
          mode="normal"
          in="SourceGraphic"
          in2="effect1_backgroundBlur_442_203"
          result="shape"
        />
      </filter>
      <linearGradient
        id="paint0_linear_442_203"
        x1="96.9313"
        y1="0.944093"
        x2="131.347"
        y2="148.606"
        gradientUnits="userSpaceOnUse"
      >
        <stop stop-color="white" />
        <stop offset="1" stop-color="white" stop-opacity="0" />
      </linearGradient>
      <linearGradient
        id="paint1_linear_442_203"
        x1="78.4497"
        y1="33.1946"
        x2="78.4497"
        y2="114.558"
        gradientUnits="userSpaceOnUse"
      >
        <stop stop-color="white" />
        <stop offset="1" stop-color="white" stop-opacity="0" />
      </linearGradient>
    </defs>
  </symbol>
</svg>
